<mxfile host="Electron" agent="Mozilla/5.0 (Macintosh; Intel Mac OS X 10_15_7) AppleWebKit/537.36 (KHTML, like Gecko) draw.io/24.7.5 Chrome/126.0.6478.183 Electron/31.3.0 Safari/537.36" version="24.7.5">
  <diagram name="Page-1" id="IcS81tDd18Xg92tB0pAG">
    <mxGraphModel dx="1878" dy="4242" grid="1" gridSize="10" guides="1" tooltips="1" connect="1" arrows="1" fold="1" page="1" pageScale="1" pageWidth="850" pageHeight="1100" math="0" shadow="0">
      <root>
        <mxCell id="0" />
        <mxCell id="1" parent="0" />
        <mxCell id="TFUA7mYGxWeyPXUw_z48-1" value="Build context" style="rounded=0;whiteSpace=wrap;html=1;verticalAlign=top;align=left;fontStyle=1;fontSize=14;" parent="1" vertex="1">
          <mxGeometry x="20" y="-10" width="220" height="240" as="geometry" />
        </mxCell>
        <mxCell id="TFUA7mYGxWeyPXUw_z48-3" value="" style="image;aspect=fixed;html=1;points=[];align=center;fontSize=12;image=img/lib/azure2/general/Folder_Blank.svg;" parent="1" vertex="1">
          <mxGeometry x="63.03999999999999" y="60" width="36.96" height="30" as="geometry" />
        </mxCell>
        <mxCell id="TFUA7mYGxWeyPXUw_z48-5" value="" style="whiteSpace=wrap;html=1;shape=mxgraph.basic.document" parent="1" vertex="1">
          <mxGeometry x="100" y="105" width="30" height="30" as="geometry" />
        </mxCell>
        <mxCell id="TFUA7mYGxWeyPXUw_z48-7" value="Dockerfile" style="text;html=1;align=center;verticalAlign=middle;whiteSpace=wrap;rounded=0;fontColor=#FF0000;" parent="1" vertex="1">
          <mxGeometry x="140" y="105" width="60" height="30" as="geometry" />
        </mxCell>
        <mxCell id="TFUA7mYGxWeyPXUw_z48-8" value="" style="endArrow=none;dashed=1;html=1;dashPattern=1 3;strokeWidth=2;rounded=0;exitX=0.273;exitY=0.833;exitDx=0;exitDy=0;exitPerimeter=0;" parent="1" source="TFUA7mYGxWeyPXUw_z48-1" target="TFUA7mYGxWeyPXUw_z48-3" edge="1">
          <mxGeometry width="50" height="50" relative="1" as="geometry">
            <mxPoint x="50" y="150" as="sourcePoint" />
            <mxPoint x="100" y="100" as="targetPoint" />
          </mxGeometry>
        </mxCell>
        <mxCell id="TFUA7mYGxWeyPXUw_z48-9" value="... otros archivos" style="text;html=1;align=center;verticalAlign=middle;whiteSpace=wrap;rounded=0;" parent="1" vertex="1">
          <mxGeometry x="110" y="150" width="110" height="30" as="geometry" />
        </mxCell>
        <mxCell id="EB3Wcq8O334e_s77gDpH-2" value="RED red_interna (10.17.0.0/16)" style="rounded=0;whiteSpace=wrap;html=1;verticalAlign=top;" parent="1" vertex="1">
          <mxGeometry x="162" y="400" width="398" height="290" as="geometry" />
        </mxCell>
        <mxCell id="EB3Wcq8O334e_s77gDpH-3" value="productos" style="rounded=1;whiteSpace=wrap;html=1;fillColor=#dae8fc;strokeColor=#6c8ebf;" parent="1" vertex="1">
          <mxGeometry x="230" y="470" width="120" height="60" as="geometry" />
        </mxCell>
        <mxCell id="EB3Wcq8O334e_s77gDpH-4" value="mongo" style="rounded=1;whiteSpace=wrap;html=1;fillColor=#d5e8d4;strokeColor=#82b366;" parent="1" vertex="1">
          <mxGeometry x="360" y="590" width="120" height="60" as="geometry" />
        </mxCell>
        <mxCell id="EB3Wcq8O334e_s77gDpH-5" value="27017:27017" style="text;html=1;align=center;verticalAlign=middle;whiteSpace=wrap;rounded=0;" parent="1" vertex="1">
          <mxGeometry x="390" y="560" width="60" height="30" as="geometry" />
        </mxCell>
        <mxCell id="EB3Wcq8O334e_s77gDpH-6" value="3002:3002" style="text;html=1;align=center;verticalAlign=middle;whiteSpace=wrap;rounded=0;" parent="1" vertex="1">
          <mxGeometry x="260" y="440" width="60" height="30" as="geometry" />
        </mxCell>
        <mxCell id="EB3Wcq8O334e_s77gDpH-7" value="imagen propia (docker build)" style="text;html=1;align=center;verticalAlign=middle;whiteSpace=wrap;rounded=0;" parent="1" vertex="1">
          <mxGeometry x="320" y="485" width="120" height="30" as="geometry" />
        </mxCell>
        <mxCell id="EB3Wcq8O334e_s77gDpH-8" value="imagen: mongo" style="text;html=1;align=center;verticalAlign=middle;whiteSpace=wrap;rounded=0;" parent="1" vertex="1">
          <mxGeometry x="450" y="600" width="120" height="30" as="geometry" />
        </mxCell>
        <mxCell id="EB3Wcq8O334e_s77gDpH-10" value="" style="endArrow=classic;html=1;rounded=0;exitX=0.5;exitY=1;exitDx=0;exitDy=0;" parent="1" source="EB3Wcq8O334e_s77gDpH-3" target="EB3Wcq8O334e_s77gDpH-4" edge="1">
          <mxGeometry width="50" height="50" relative="1" as="geometry">
            <mxPoint x="260" y="610" as="sourcePoint" />
            <mxPoint x="310" y="560" as="targetPoint" />
            <Array as="points">
              <mxPoint x="290" y="620" />
            </Array>
          </mxGeometry>
        </mxCell>
        <mxCell id="EB3Wcq8O334e_s77gDpH-11" value="" style="shape=cylinder3;whiteSpace=wrap;html=1;boundedLbl=1;backgroundOutline=1;size=15;fillColor=#f5f5f5;fontColor=#333333;strokeColor=#666666;" parent="1" vertex="1">
          <mxGeometry x="310" y="650" width="60" height="80" as="geometry" />
        </mxCell>
        <mxCell id="EB3Wcq8O334e_s77gDpH-12" value="mongo_data:/data/db" style="text;html=1;align=center;verticalAlign=middle;whiteSpace=wrap;rounded=0;" parent="1" vertex="1">
          <mxGeometry x="310" y="740" width="60" height="30" as="geometry" />
        </mxCell>
        <mxCell id="ZiWsZx-Odm-pgWmwKfXJ-1" value="Build context" style="rounded=0;whiteSpace=wrap;html=1;verticalAlign=top;align=left;fontStyle=1;fontSize=14;" parent="1" vertex="1">
          <mxGeometry x="380" y="-10" width="220" height="240" as="geometry" />
        </mxCell>
        <mxCell id="ZiWsZx-Odm-pgWmwKfXJ-2" value="" style="image;aspect=fixed;html=1;points=[];align=center;fontSize=12;image=img/lib/azure2/general/Folder_Blank.svg;" parent="1" vertex="1">
          <mxGeometry x="423.03999999999996" y="60" width="36.96" height="30" as="geometry" />
        </mxCell>
        <mxCell id="ZiWsZx-Odm-pgWmwKfXJ-3" value="" style="whiteSpace=wrap;html=1;shape=mxgraph.basic.document" parent="1" vertex="1">
          <mxGeometry x="460" y="105" width="30" height="30" as="geometry" />
        </mxCell>
        <mxCell id="ZiWsZx-Odm-pgWmwKfXJ-4" value="compose.yaml" style="text;html=1;align=center;verticalAlign=middle;whiteSpace=wrap;rounded=0;fontColor=#FF0000;" parent="1" vertex="1">
          <mxGeometry x="500" y="105" width="60" height="30" as="geometry" />
        </mxCell>
        <mxCell id="ZiWsZx-Odm-pgWmwKfXJ-5" value="" style="endArrow=none;dashed=1;html=1;dashPattern=1 3;strokeWidth=2;rounded=0;exitX=0.273;exitY=0.833;exitDx=0;exitDy=0;exitPerimeter=0;" parent="1" source="ZiWsZx-Odm-pgWmwKfXJ-1" target="ZiWsZx-Odm-pgWmwKfXJ-2" edge="1">
          <mxGeometry width="50" height="50" relative="1" as="geometry">
            <mxPoint x="410" y="150" as="sourcePoint" />
            <mxPoint x="460" y="100" as="targetPoint" />
          </mxGeometry>
        </mxCell>
        <mxCell id="ZiWsZx-Odm-pgWmwKfXJ-6" value="... otros archivos" style="text;html=1;align=center;verticalAlign=middle;whiteSpace=wrap;rounded=0;" parent="1" vertex="1">
          <mxGeometry x="460" y="160" width="110" height="30" as="geometry" />
        </mxCell>
        <mxCell id="FBJof0aadqx5oighFzIr-2" value="Servicios" style="rounded=0;whiteSpace=wrap;html=1;verticalAlign=top;align=left;fontStyle=1;fontSize=14;" parent="1" vertex="1">
          <mxGeometry x="740" y="-69" width="320" height="200" as="geometry" />
        </mxCell>
        <mxCell id="FBJof0aadqx5oighFzIr-3" value="Contendor:&lt;div&gt;- Sección de configuración&lt;/div&gt;&lt;div&gt;- Referencias a Volumenes&lt;/div&gt;&lt;div&gt;- Referencias a Redes&lt;/div&gt;" style="rounded=1;whiteSpace=wrap;html=1;align=left;" parent="1" vertex="1">
          <mxGeometry x="790" y="-20" width="220" height="100" as="geometry" />
        </mxCell>
        <mxCell id="FBJof0aadqx5oighFzIr-4" value="Volumenes" style="rounded=0;whiteSpace=wrap;html=1;verticalAlign=top;align=left;fontStyle=1;fontSize=14;" parent="1" vertex="1">
          <mxGeometry x="740" y="160" width="320" height="140" as="geometry" />
        </mxCell>
        <mxCell id="FBJof0aadqx5oighFzIr-5" value="Configuraciones&amp;nbsp;" style="rounded=1;whiteSpace=wrap;html=1;align=left;" parent="1" vertex="1">
          <mxGeometry x="800" y="180" width="220" height="100" as="geometry" />
        </mxCell>
        <mxCell id="FBJof0aadqx5oighFzIr-6" value="Redes" style="rounded=0;whiteSpace=wrap;html=1;verticalAlign=top;align=left;fontStyle=1;fontSize=14;" parent="1" vertex="1">
          <mxGeometry x="740" y="345" width="320" height="140" as="geometry" />
        </mxCell>
        <mxCell id="FBJof0aadqx5oighFzIr-7" value="Configuraciones&amp;nbsp;" style="rounded=1;whiteSpace=wrap;html=1;align=left;" parent="1" vertex="1">
          <mxGeometry x="800" y="365" width="220" height="100" as="geometry" />
        </mxCell>
        <mxCell id="FBJof0aadqx5oighFzIr-8" value="Build context" style="rounded=0;whiteSpace=wrap;html=1;verticalAlign=top;align=left;fontStyle=1;fontSize=14;" parent="1" vertex="1">
          <mxGeometry x="1530" y="-270" width="220" height="240" as="geometry" />
        </mxCell>
        <mxCell id="FBJof0aadqx5oighFzIr-9" value="" style="image;aspect=fixed;html=1;points=[];align=center;fontSize=12;image=img/lib/azure2/general/Folder_Blank.svg;" parent="1" vertex="1">
          <mxGeometry x="1573.04" y="-200" width="36.96" height="30" as="geometry" />
        </mxCell>
        <mxCell id="FBJof0aadqx5oighFzIr-10" value="" style="whiteSpace=wrap;html=1;shape=mxgraph.basic.document" parent="1" vertex="1">
          <mxGeometry x="1610" y="-155" width="30" height="30" as="geometry" />
        </mxCell>
        <mxCell id="FBJof0aadqx5oighFzIr-11" value="compose.yaml" style="text;html=1;align=center;verticalAlign=middle;whiteSpace=wrap;rounded=0;fontColor=#FF0000;" parent="1" vertex="1">
          <mxGeometry x="1650" y="-155" width="60" height="30" as="geometry" />
        </mxCell>
        <mxCell id="FBJof0aadqx5oighFzIr-12" value="" style="endArrow=none;dashed=1;html=1;dashPattern=1 3;strokeWidth=2;rounded=0;exitX=0.273;exitY=0.833;exitDx=0;exitDy=0;exitPerimeter=0;" parent="1" source="FBJof0aadqx5oighFzIr-8" target="FBJof0aadqx5oighFzIr-9" edge="1">
          <mxGeometry width="50" height="50" relative="1" as="geometry">
            <mxPoint x="1560" y="-110" as="sourcePoint" />
            <mxPoint x="1610" y="-160" as="targetPoint" />
          </mxGeometry>
        </mxCell>
        <mxCell id="FBJof0aadqx5oighFzIr-13" value="... otros archivos" style="text;html=1;align=center;verticalAlign=middle;whiteSpace=wrap;rounded=0;" parent="1" vertex="1">
          <mxGeometry x="1610" y="-100" width="110" height="30" as="geometry" />
        </mxCell>
        <mxCell id="_lj3PMiW9SpoReRvYWBm-2" value="" style="shape=cube;whiteSpace=wrap;html=1;boundedLbl=1;backgroundOutline=1;darkOpacity=0.05;darkOpacity2=0.1;" parent="1" vertex="1">
          <mxGeometry x="3300" y="180" width="120" height="80" as="geometry" />
        </mxCell>
        <mxCell id="_lj3PMiW9SpoReRvYWBm-3" value="" style="image;sketch=0;aspect=fixed;html=1;points=[];align=center;fontSize=12;image=img/lib/mscae/Docker.svg;" parent="1" vertex="1">
          <mxGeometry x="3348" y="209" width="50" height="41" as="geometry" />
        </mxCell>
        <mxCell id="_lj3PMiW9SpoReRvYWBm-4" value="" style="shape=cube;whiteSpace=wrap;html=1;boundedLbl=1;backgroundOutline=1;darkOpacity=0.05;darkOpacity2=0.1;fillColor=#d5e8d4;strokeColor=#82b366;" parent="1" vertex="1">
          <mxGeometry x="3450" y="10" width="190" height="80" as="geometry" />
        </mxCell>
        <mxCell id="_lj3PMiW9SpoReRvYWBm-5" value="" style="shape=cube;whiteSpace=wrap;html=1;boundedLbl=1;backgroundOutline=1;darkOpacity=0.05;darkOpacity2=0.1;" parent="1" vertex="1">
          <mxGeometry x="3500" y="180" width="120" height="80" as="geometry" />
        </mxCell>
        <mxCell id="_lj3PMiW9SpoReRvYWBm-6" value="" style="image;sketch=0;aspect=fixed;html=1;points=[];align=center;fontSize=12;image=img/lib/mscae/Docker.svg;" parent="1" vertex="1">
          <mxGeometry x="3548" y="209" width="50" height="41" as="geometry" />
        </mxCell>
        <mxCell id="_lj3PMiW9SpoReRvYWBm-7" value="" style="shape=cube;whiteSpace=wrap;html=1;boundedLbl=1;backgroundOutline=1;darkOpacity=0.05;darkOpacity2=0.1;" parent="1" vertex="1">
          <mxGeometry x="3685" y="180" width="120" height="80" as="geometry" />
        </mxCell>
        <mxCell id="_lj3PMiW9SpoReRvYWBm-8" value="" style="image;sketch=0;aspect=fixed;html=1;points=[];align=center;fontSize=12;image=img/lib/mscae/Docker.svg;" parent="1" vertex="1">
          <mxGeometry x="3733" y="209" width="50" height="41" as="geometry" />
        </mxCell>
        <mxCell id="_lj3PMiW9SpoReRvYWBm-9" value="" style="image;sketch=0;aspect=fixed;html=1;points=[];align=center;fontSize=12;image=img/lib/mscae/Docker.svg;" parent="1" vertex="1">
          <mxGeometry x="3535" y="40" width="50" height="41" as="geometry" />
        </mxCell>
        <mxCell id="_lj3PMiW9SpoReRvYWBm-10" value="Imagen (plantilla)" style="text;html=1;align=center;verticalAlign=middle;whiteSpace=wrap;rounded=0;fontStyle=1" parent="1" vertex="1">
          <mxGeometry x="3653" y="40" width="80" height="40" as="geometry" />
        </mxCell>
        <mxCell id="_lj3PMiW9SpoReRvYWBm-11" value="" style="endArrow=classic;html=1;rounded=0;exitX=0;exitY=0;exitDx=10;exitDy=70;exitPerimeter=0;" parent="1" source="_lj3PMiW9SpoReRvYWBm-4" target="_lj3PMiW9SpoReRvYWBm-2" edge="1">
          <mxGeometry width="50" height="50" relative="1" as="geometry">
            <mxPoint x="3180" y="110" as="sourcePoint" />
            <mxPoint x="3230" y="60" as="targetPoint" />
          </mxGeometry>
        </mxCell>
        <mxCell id="_lj3PMiW9SpoReRvYWBm-12" value="" style="endArrow=classic;html=1;rounded=0;exitX=0.516;exitY=0.988;exitDx=0;exitDy=0;exitPerimeter=0;" parent="1" source="_lj3PMiW9SpoReRvYWBm-4" target="_lj3PMiW9SpoReRvYWBm-5" edge="1">
          <mxGeometry width="50" height="50" relative="1" as="geometry">
            <mxPoint x="3470" y="90" as="sourcePoint" />
            <mxPoint x="3399" y="190" as="targetPoint" />
          </mxGeometry>
        </mxCell>
        <mxCell id="_lj3PMiW9SpoReRvYWBm-13" value="" style="endArrow=classic;html=1;rounded=0;exitX=0.968;exitY=1.025;exitDx=0;exitDy=0;exitPerimeter=0;entryX=0.275;entryY=0;entryDx=0;entryDy=0;entryPerimeter=0;" parent="1" source="_lj3PMiW9SpoReRvYWBm-4" target="_lj3PMiW9SpoReRvYWBm-7" edge="1">
          <mxGeometry width="50" height="50" relative="1" as="geometry">
            <mxPoint x="3558" y="99" as="sourcePoint" />
            <mxPoint x="3566" y="190" as="targetPoint" />
          </mxGeometry>
        </mxCell>
        <mxCell id="_lj3PMiW9SpoReRvYWBm-14" value="Contenedores" style="text;html=1;align=center;verticalAlign=middle;whiteSpace=wrap;rounded=0;fontStyle=1" parent="1" vertex="1">
          <mxGeometry x="3840" y="195" width="80" height="40" as="geometry" />
        </mxCell>
        <mxCell id="_lj3PMiW9SpoReRvYWBm-30" value="" style="rounded=1;whiteSpace=wrap;html=1;" parent="1" vertex="1">
          <mxGeometry x="2220" y="-240" width="510" height="160" as="geometry" />
        </mxCell>
        <mxCell id="_lj3PMiW9SpoReRvYWBm-31" value="Dockerfile" style="whiteSpace=wrap;html=1;shape=mxgraph.basic.document;fontSize=17;" parent="1" vertex="1">
          <mxGeometry x="2290" y="-210" width="100" height="100" as="geometry" />
        </mxCell>
        <mxCell id="_lj3PMiW9SpoReRvYWBm-32" value="" style="shape=flexArrow;endArrow=classic;html=1;rounded=0;" parent="1" edge="1">
          <mxGeometry width="50" height="50" relative="1" as="geometry">
            <mxPoint x="2410" y="-160.5" as="sourcePoint" />
            <mxPoint x="2490" y="-160.5" as="targetPoint" />
          </mxGeometry>
        </mxCell>
        <mxCell id="_lj3PMiW9SpoReRvYWBm-33" value="docker build&lt;br&gt;docker tag&amp;nbsp;" style="text;html=1;align=center;verticalAlign=middle;whiteSpace=wrap;rounded=0;" parent="1" vertex="1">
          <mxGeometry x="2390" y="-140" width="120" height="30" as="geometry" />
        </mxCell>
        <mxCell id="_lj3PMiW9SpoReRvYWBm-34" value="" style="group" parent="1" vertex="1" connectable="0">
          <mxGeometry x="2520" y="-200" width="140" height="80" as="geometry" />
        </mxCell>
        <mxCell id="_lj3PMiW9SpoReRvYWBm-35" value="" style="shape=cube;whiteSpace=wrap;html=1;boundedLbl=1;backgroundOutline=1;darkOpacity=0.05;darkOpacity2=0.1;fillColor=#d5e8d4;strokeColor=#82b366;" parent="_lj3PMiW9SpoReRvYWBm-34" vertex="1">
          <mxGeometry width="140" height="80" as="geometry" />
        </mxCell>
        <mxCell id="_lj3PMiW9SpoReRvYWBm-36" value="" style="image;sketch=0;aspect=fixed;html=1;points=[];align=center;fontSize=12;image=img/lib/mscae/Docker.svg;" parent="_lj3PMiW9SpoReRvYWBm-34" vertex="1">
          <mxGeometry x="60" y="30" width="50" height="41" as="geometry" />
        </mxCell>
        <mxCell id="_lj3PMiW9SpoReRvYWBm-44" value="HOST Constructor" style="text;html=1;align=center;verticalAlign=middle;whiteSpace=wrap;rounded=0;fontStyle=1;fontSize=16;" parent="1" vertex="1">
          <mxGeometry x="2405" y="-280" width="160" height="30" as="geometry" />
        </mxCell>
        <mxCell id="_lj3PMiW9SpoReRvYWBm-45" value="" style="rounded=1;whiteSpace=wrap;html=1;" parent="1" vertex="1">
          <mxGeometry x="2235" width="510" height="160" as="geometry" />
        </mxCell>
        <mxCell id="_lj3PMiW9SpoReRvYWBm-46" value="" style="shape=flexArrow;endArrow=classic;html=1;rounded=0;" parent="1" edge="1">
          <mxGeometry width="50" height="50" relative="1" as="geometry">
            <mxPoint x="2599.5" y="-69" as="sourcePoint" />
            <mxPoint x="2599.5" y="-9" as="targetPoint" />
          </mxGeometry>
        </mxCell>
        <mxCell id="_lj3PMiW9SpoReRvYWBm-47" value="docker push" style="text;html=1;align=center;verticalAlign=middle;whiteSpace=wrap;rounded=0;" parent="1" vertex="1">
          <mxGeometry x="2626" y="-60" width="88.5" height="40" as="geometry" />
        </mxCell>
        <mxCell id="_lj3PMiW9SpoReRvYWBm-50" value="REGISTRO (PRIVADO/PÚBLICO)" style="text;html=1;align=center;verticalAlign=middle;whiteSpace=wrap;rounded=0;fontStyle=1;fontSize=16;" parent="1" vertex="1">
          <mxGeometry x="2405" y="-40" width="160" height="30" as="geometry" />
        </mxCell>
        <mxCell id="_lj3PMiW9SpoReRvYWBm-55" value="" style="rounded=1;whiteSpace=wrap;html=1;" parent="1" vertex="1">
          <mxGeometry x="2230" y="260" width="510" height="160" as="geometry" />
        </mxCell>
        <mxCell id="_lj3PMiW9SpoReRvYWBm-56" value="" style="shape=cube;whiteSpace=wrap;html=1;boundedLbl=1;backgroundOutline=1;darkOpacity=0.05;darkOpacity2=0.1;dashed=1;" parent="1" vertex="1">
          <mxGeometry x="2535" y="294.5" width="120" height="80" as="geometry" />
        </mxCell>
        <mxCell id="_lj3PMiW9SpoReRvYWBm-57" value="" style="image;sketch=0;aspect=fixed;html=1;points=[];align=center;fontSize=12;image=img/lib/mscae/Docker.svg;" parent="1" vertex="1">
          <mxGeometry x="2583" y="323.5" width="50" height="41" as="geometry" />
        </mxCell>
        <mxCell id="_lj3PMiW9SpoReRvYWBm-58" value="HOST Servidor" style="text;html=1;align=center;verticalAlign=middle;whiteSpace=wrap;rounded=0;fontStyle=1;fontSize=16;" parent="1" vertex="1">
          <mxGeometry x="2405" y="220" width="160" height="30" as="geometry" />
        </mxCell>
        <mxCell id="_lj3PMiW9SpoReRvYWBm-59" value="" style="shape=cube;whiteSpace=wrap;html=1;boundedLbl=1;backgroundOutline=1;darkOpacity=0.05;darkOpacity2=0.1;" parent="1" vertex="1">
          <mxGeometry x="2285" y="294.5" width="120" height="80" as="geometry" />
        </mxCell>
        <mxCell id="_lj3PMiW9SpoReRvYWBm-60" value="" style="image;sketch=0;aspect=fixed;html=1;points=[];align=center;fontSize=12;image=img/lib/mscae/Docker.svg;" parent="1" vertex="1">
          <mxGeometry x="2333" y="323.5" width="50" height="41" as="geometry" />
        </mxCell>
        <mxCell id="_lj3PMiW9SpoReRvYWBm-61" value="" style="shape=flexArrow;endArrow=classic;html=1;rounded=0;" parent="1" edge="1">
          <mxGeometry width="50" height="50" relative="1" as="geometry">
            <mxPoint x="2515" y="340" as="sourcePoint" />
            <mxPoint x="2425" y="340" as="targetPoint" />
          </mxGeometry>
        </mxCell>
        <mxCell id="_lj3PMiW9SpoReRvYWBm-62" value="docker run" style="text;html=1;align=center;verticalAlign=middle;whiteSpace=wrap;rounded=0;" parent="1" vertex="1">
          <mxGeometry x="2425.75" y="280" width="88.5" height="40" as="geometry" />
        </mxCell>
        <mxCell id="_lj3PMiW9SpoReRvYWBm-63" value="" style="group" parent="1" vertex="1" connectable="0">
          <mxGeometry x="2420" y="40" width="140" height="80" as="geometry" />
        </mxCell>
        <mxCell id="_lj3PMiW9SpoReRvYWBm-64" value="" style="shape=cube;whiteSpace=wrap;html=1;boundedLbl=1;backgroundOutline=1;darkOpacity=0.05;darkOpacity2=0.1;fillColor=#d5e8d4;strokeColor=#82b366;" parent="_lj3PMiW9SpoReRvYWBm-63" vertex="1">
          <mxGeometry width="140" height="80" as="geometry" />
        </mxCell>
        <mxCell id="_lj3PMiW9SpoReRvYWBm-65" value="" style="image;sketch=0;aspect=fixed;html=1;points=[];align=center;fontSize=12;image=img/lib/mscae/Docker.svg;" parent="_lj3PMiW9SpoReRvYWBm-63" vertex="1">
          <mxGeometry x="60" y="30" width="50" height="41" as="geometry" />
        </mxCell>
        <mxCell id="_lj3PMiW9SpoReRvYWBm-66" value="" style="shape=flexArrow;endArrow=classic;html=1;rounded=0;" parent="1" edge="1">
          <mxGeometry width="50" height="50" relative="1" as="geometry">
            <mxPoint x="2590" y="185" as="sourcePoint" />
            <mxPoint x="2590" y="245" as="targetPoint" />
          </mxGeometry>
        </mxCell>
        <mxCell id="_lj3PMiW9SpoReRvYWBm-67" value="docker pull" style="text;html=1;align=center;verticalAlign=middle;whiteSpace=wrap;rounded=0;" parent="1" vertex="1">
          <mxGeometry x="2616.5" y="194" width="88.5" height="40" as="geometry" />
        </mxCell>
        <mxCell id="_lj3PMiW9SpoReRvYWBm-68" value="" style="rounded=1;whiteSpace=wrap;html=1;" parent="1" vertex="1">
          <mxGeometry x="2580" y="739" width="510" height="160" as="geometry" />
        </mxCell>
        <mxCell id="_lj3PMiW9SpoReRvYWBm-69" value="" style="shape=flexArrow;endArrow=classic;html=1;rounded=0;" parent="1" edge="1">
          <mxGeometry width="50" height="50" relative="1" as="geometry">
            <mxPoint x="2760" y="973" as="sourcePoint" />
            <mxPoint x="2760" y="913" as="targetPoint" />
          </mxGeometry>
        </mxCell>
        <mxCell id="_lj3PMiW9SpoReRvYWBm-70" value="docker push" style="text;html=1;align=center;verticalAlign=middle;whiteSpace=wrap;rounded=0;fontStyle=1;fontSize=14;" parent="1" vertex="1">
          <mxGeometry x="2656.5" y="920" width="88.5" height="40" as="geometry" />
        </mxCell>
        <mxCell id="_lj3PMiW9SpoReRvYWBm-71" value="REGISTRO (PRIVADO/PÚBLICO)" style="text;html=1;align=center;verticalAlign=middle;whiteSpace=wrap;rounded=0;fontStyle=1;fontSize=16;" parent="1" vertex="1">
          <mxGeometry x="2760" y="700" width="160" height="30" as="geometry" />
        </mxCell>
        <mxCell id="_lj3PMiW9SpoReRvYWBm-73" value="" style="group" parent="1" vertex="1" connectable="0">
          <mxGeometry x="2680" y="779" width="140" height="80" as="geometry" />
        </mxCell>
        <mxCell id="_lj3PMiW9SpoReRvYWBm-74" value="" style="shape=cube;whiteSpace=wrap;html=1;boundedLbl=1;backgroundOutline=1;darkOpacity=0.05;darkOpacity2=0.1;fillColor=#d5e8d4;strokeColor=#82b366;" parent="_lj3PMiW9SpoReRvYWBm-73" vertex="1">
          <mxGeometry width="140" height="80" as="geometry" />
        </mxCell>
        <mxCell id="_lj3PMiW9SpoReRvYWBm-75" value="" style="image;sketch=0;aspect=fixed;html=1;points=[];align=center;fontSize=12;image=img/lib/mscae/Docker.svg;" parent="_lj3PMiW9SpoReRvYWBm-73" vertex="1">
          <mxGeometry x="60" y="30" width="50" height="41" as="geometry" />
        </mxCell>
        <mxCell id="_lj3PMiW9SpoReRvYWBm-76" value="" style="shape=flexArrow;endArrow=classic;html=1;rounded=0;" parent="1" edge="1">
          <mxGeometry width="50" height="50" relative="1" as="geometry">
            <mxPoint x="2910" y="913" as="sourcePoint" />
            <mxPoint x="2910" y="973" as="targetPoint" />
          </mxGeometry>
        </mxCell>
        <mxCell id="_lj3PMiW9SpoReRvYWBm-77" value="docker pull" style="text;html=1;align=center;verticalAlign=middle;whiteSpace=wrap;rounded=0;fontStyle=1;fontSize=14;" parent="1" vertex="1">
          <mxGeometry x="2910" y="920" width="88.5" height="40" as="geometry" />
        </mxCell>
        <mxCell id="_lj3PMiW9SpoReRvYWBm-79" value="Nombre del Repositorio:[etiqueta]" style="text;html=1;align=center;verticalAlign=middle;whiteSpace=wrap;rounded=0;fontStyle=1" parent="1" vertex="1">
          <mxGeometry x="2830" y="804" width="230" height="30" as="geometry" />
        </mxCell>
        <mxCell id="_lj3PMiW9SpoReRvYWBm-81" value="Repositorio" style="text;html=1;align=center;verticalAlign=middle;whiteSpace=wrap;rounded=0;" parent="1" vertex="1">
          <mxGeometry x="2720" y="859" width="60" height="30" as="geometry" />
        </mxCell>
        <mxCell id="_lj3PMiW9SpoReRvYWBm-82" value="Build context" style="rounded=0;whiteSpace=wrap;html=1;verticalAlign=top;align=left;fontStyle=1;fontSize=14;" parent="1" vertex="1">
          <mxGeometry x="1520" y="245" width="220" height="240" as="geometry" />
        </mxCell>
        <mxCell id="_lj3PMiW9SpoReRvYWBm-83" value="" style="image;aspect=fixed;html=1;points=[];align=center;fontSize=12;image=img/lib/azure2/general/Folder_Blank.svg;" parent="1" vertex="1">
          <mxGeometry x="1563.04" y="315" width="36.96" height="30" as="geometry" />
        </mxCell>
        <mxCell id="_lj3PMiW9SpoReRvYWBm-84" value="" style="whiteSpace=wrap;html=1;shape=mxgraph.basic.document" parent="1" vertex="1">
          <mxGeometry x="1600" y="360" width="30" height="30" as="geometry" />
        </mxCell>
        <mxCell id="_lj3PMiW9SpoReRvYWBm-85" value="compose.yaml" style="text;html=1;align=center;verticalAlign=middle;whiteSpace=wrap;rounded=0;fontColor=#FF0000;" parent="1" vertex="1">
          <mxGeometry x="1640" y="360" width="60" height="30" as="geometry" />
        </mxCell>
        <mxCell id="_lj3PMiW9SpoReRvYWBm-86" value="" style="endArrow=none;dashed=1;html=1;dashPattern=1 3;strokeWidth=2;rounded=0;exitX=0.273;exitY=0.833;exitDx=0;exitDy=0;exitPerimeter=0;" parent="1" source="_lj3PMiW9SpoReRvYWBm-82" target="_lj3PMiW9SpoReRvYWBm-83" edge="1">
          <mxGeometry width="50" height="50" relative="1" as="geometry">
            <mxPoint x="1550" y="405" as="sourcePoint" />
            <mxPoint x="1600" y="355" as="targetPoint" />
          </mxGeometry>
        </mxCell>
        <mxCell id="_lj3PMiW9SpoReRvYWBm-87" value="Dockerfile" style="text;html=1;align=center;verticalAlign=middle;whiteSpace=wrap;rounded=0;" parent="1" vertex="1">
          <mxGeometry x="1600" y="415" width="110" height="30" as="geometry" />
        </mxCell>
        <mxCell id="5RLO0JrXhLwPrKWi8I5i-1" value="" style="shape=image;verticalLabelPosition=bottom;labelBackgroundColor=default;verticalAlign=top;aspect=fixed;imageAspect=0;image=data:image/png,iVBORw0KGgoAAAANSUhEUgAAAeQAAAAzCAYAAABG4nvaAAABW2lDQ1BJQ0MgUHJvZmlsZQAAKJF1kLFLQlEUxj/LUEKoKKEh6A3R0itEDYQmdZCgQTTFanrv+noG+rw8X0TQWLvQ1BbW3hIVtPQHBA1BQURzW0P0lpLbuVqpRedyOD8+vns4fECfX+O87AVQsRw7k0oohZVVxfcMP70RjGJSYzUeT6eXyILv2VvuHTxy3s7KXWuX9+rLSfB0oeDymWDB+OvvqcGiUWM0P6hDjNsO4FGJ01sOl7xDPGbTUcR1yWabjyXrbb5oeZYzSeJr4mFW0orEj8Sq3qWbXVwpb7KvG+T1AcPKZeUe6gnEkUWOWkEeKUQwj/w//mjLn0QVHNuwsQETJTj0M04KRxkG8SIsMMxBJQ4jRB2VOf/Or6NVG0DsDeivdzT9ADjfA8YfOtrUITC0C5zdcM3WflL1uN7aeiTc5kACGHgS4nUa8O0DzboQ7w0hmke0nzK6sj4BmZdjwGmVZ/MAAAA4ZVhJZk1NACoAAAAIAAGHaQAEAAAAAQAAABoAAAAAAAKgAgAEAAAAAQAAAeSgAwAEAAAAAQAAADMAAAAA056SqQAAFeNJREFUeAHtXQtsF0Uan5aC8i6lHBwIiKINEkU8OB9RiI8Y1Bg4xcTTaEyMjxC5yKFRokSMFyVGQT01vl8XEfVQ0QtyUaNi8AEaJSoPAwoFUSgILYXyaNmb35zfZrqd+WZ3239pyzdJO//db77X75vdb2dnd6dIKRXpPymCgCAgCAgCgoAgcAgRKD6EukW1ICAICAKCgCAgCPyOgCRk6QqCgCAgCAgCgkAbQKBZCbkkhwOPPfaYOu6443Jw/p+lS5cu6vHHH1dDhgzJLaMjMTYXz7RYlJeXq65du6ZtLu0EAUFAEBAEciCAOeTMfzoZR/8dOjCaUNorE2+ky6WXXpqJx7avT58+EBGdd955uWXY8tr7b2DRHDzT+l9dXR0tXLhQMM9xrKTFWNplPw8JZoJZR+oDeQa52n+l6vXf3OpaNbNPT1VSVKT+s6Pa7Jd/HROB888/X23evLljOideCQKCgCDQBhBo1i3rxTtr1D927FIzSnuoiX16O90544wz1M6dO9XBgwfV2rVrG7U55ZRT1K+//mpoNTU16vLLL4/puK29YcMGQ9u7d6+68847Y5r9Y8GCBQq8w4YNM7uHDh1q9EBfXV2duummm+LmJ554otq3b5+69957DU0PLtV1110X030/fHy4fQ55Z599dswKWy+++GJVVlZmaK+++qpqaGgwfsyfPz9ul/cHh6dPZsiWM88808QIeFRWVqo9e/aoiy66yIjbtm2b8WPJkiWNYsDJHDNmjAIO119/vZGB6YXa2lr14IMP+kyU/YKAICAICAIagdS3Iaf2K4v+PXhAk7+lwwZF+BvR7YgmsnSyjDZt2hRNmjQp+uCDD3CH1dxiLSkpifSJP/rhhx/M7edFixYZmk6sRsaWLVsiPSKL9MgsevTRRw1NJ/DIvmX91FNPmf2QTX5s3LjR8J1zzjnRiy++aOjDhw83dJ0ozLZOotEDDzwQ3XXXXVFFRUXMSzKStY9PJ2QjTyevWAZ2XHHFFZGeczU0+DBhwoToySefNNujRo2K2yb1pNn24cnxhmwhmfDjnXfeMXZedtllxk59kRTpi5YIbfTFT2x7SCba7t+/PxowYEC0evXqSF+URXoOOubn7BVa+mNSsBKspA90qD6Q3plR3btGk/r0bvT317JSk4yRqMtLihudcJF8UMaOHRvvxzbmPPUoEj8jPXoytOLi4kiPqqKHHnoo0qNjQzvrrLNiPiRsJDZKyO+//75pM2XKlLjNiBEjzL7JkydHSML4Q/K95557TBtKrHYCTdOZfXxpEjIuDEiHHrVHetQYb9P+ZI0LDVy80N8LL7xgeDg8kzLsbUqeLltI5qmnnhrbBRApIZMcXFS5ErJLJniQfHfs2GESOeTZfYBkSp3+2BOsBCvpAx2/D2SaQ16xu07hj0oX/WPWgHJVezBS07ZsV9vqDxLJ1PQ09VdffdVoPzZOOOEEcxsXt0hRcItZj4rV8ccfb2jY9+WXX6Iy5cILLzS1TsimPvfcc039/fffmxr/cAsc5fXXXzc1/cNtbLusXLnS3kz9Ow9ffT1m2/9fdF5K9aQy2gEPKthG4fCktlztsuXYY481LMuXL+dYvTSXTDTGdAGmAxALffGk8sr3KhaCICAICAIdDIFMCTnp+/T+fdWfjuiipmzdpjbuP5AkK3372Ow7+uij1Y8//tiIvn79eqVHxaq0tNTMX4KIZKtHYmbuGNuYF6YkOH78eLVu3Tq1e/dukNTzzz+v9OhMLV682LwCVVVVFT90hCRDiR5t7eSG7ZYqlIy6devWUiKNnBtuuMEpj8PTyZBi588//2xaHXPMMU3m+FOwe5sgtnPnzlUHDhxQuHjSdy/UqlWrvO2FIAgIAoLA4Y5A7oe6kMkHdOqkplVtV+vq9jtx/Prrr5WeR1T6lqtJvLNmzYrbvffeeyZRIrHq+WR18803q549e5pE+91335kR1jPPPGNGlPoVJ/XRRx+p0aNHx/zz5s1TeBgJJ/6PP/7Y7P/iiy/MA0hvv/226t69uxo4cKAZZevbsTFfS/5AosfDS1deeaURq+ekW1J8E1kcnk0ap9xBMp977jmFC4vp06c34gSGgwcPVp07dzaY4jce6AqVp59+Wg0aNEiNHDnSXBwhfoizFEFAEBAEBAE/AvHcoW7S4r/xgJN+yljfdY3i+UR6bxYPDGGOF0Unt+j++++P9eM9Yzz0ReWll14yNJpDpveQJ06caJrMmTPH0LFfP9Fr9kHmN998E+lRuKHhoTAUfQs71pPGZ45PJzAjE//wQBl0wi+at7XnwYHD1KlTM+lO2sfhmWxL2yFb9AVFHCN9q9n4Q3PIFJ/YSf1DJ1fWP/3UuWl+6623Gl/xoB58pxiSXVK3/PEmmAqm0gfadR8ovPF4YEuPrLyJCDS0cXWko446KtfTuXi6t7We6tUjy0iPJJ32u3xq7r4Qnlnl48EsYIXEqV+rMsn0pJNOajV/stor7Qt/zArGgrH0gdbvA0W/g64rKYcrApib7tWrl1qxYoU67bTTzC1m/YT64QqH+C0ICAKCwCFBQBLyIYG9bSnVo2PzARX9CpSZc9fvfSt6YK1tWSrWCAKCgCDQcRGQhNxxYyueCQKCgCAgCLQjBHI/Zd2OfBRTBQFBQBAQBASBNo+AJOQ2HyIxUBAQBAQBQeBwQKDDJmT9OpRaunSp+vbbb1Xa94Mxl4r3bl2Fo7na2/t8Mu02rt/6CXPznrWL5tsXsjMPLlhEI68PPjtd+2E71rrGu84tXVrLh7R254ltWtmt1S5Pn+DiwPVdjmb761ofHHaC31XyHA8uOfY+Th9Hs2Wk/c3hGZKRJn4uPH1y08bIx+/b74sRp4/DhaP5bGjN/S32egu+V4zyyiuvBGXim9Wu8vLLLzfiTcpMw0fvDesPhkR6ZadU7/6+++67sTn4pja956wDEfloIVvwzjAWWEBBjW3IC/3pDtjo/ez77rvP8IT0+ewkfSFckliDT3/AJcYF7yjbuJDclqrpfWn9VbYgRkmdWKzk2muvjfSX3SLE3aY31wcXLrZ8328Xny+2JAPvqeMb4HifPe378pzvWBgkWYBTc/Tl7ddcHLi+y9HID6rhK33n4PTTT2/0LYM333wz9hvtQ8cDyaQ6dPxx+jgaFz/S7ao5PF3taV+W+Nl4Er+rX4di5OvXId99MeL0cbhwNPLvENfhBJHWQL2Uojn29TKDjTq+ix8f68B7r/Snv7pleO0PaYAvKTMNHz4wgqTq0uvahxMUCnSjg+hvaBu9aMvROFvwbjKS8GuvvWbe8X3rrbfMdu/evVm79NWbsV0v22jaXX311cY2vQSk+cAJ4YXaxoyzk3wO4ZLE+rbbbjOJAYtr6KvRSH9BLdKfKGXtJ1156uYkZL1MpLmIQdyXLVsW29gSPiRxSetbko+LLWRi4REkYv3VtAjvhvvezU/q9/mOdrNnzzYfysGqafTXr18/g08efXn7NRcHru9ytCQO2EahhKw/tRvpT/ZGsBkLzqDYF5Sh4yEpnzve0ZbTx9G4+CVtoG0OT2rjqrPGD5gRniQv2a9DMeL6Wch3V4w4fRwuHI18awN1uoSMq3W9nrE5YWCkpNcZjk96cAIrKuELWVu3bo3shBziIwCQgBBo2uZk2m1sPqxYhC9L4aSGgt/4o9WdfLacfPLJ0VVXXRXrxtKM4IMejmbbgd+2LXQVqW8LGTk4mFFwUkRbny1IvCi0Cpb+xrTx54477ojtI722Ps7OEC6Q54rfLbfcEj3xxBOxXixXiYsM0o9VufSa1cY+JEK9ZnVM8/kHXh8fJWR88QwFX/eCTtLHyaQLOb2QSaOEHPKBk+nDBfvz8IViiy/TYalR4EA+U83p8/kOXhyLOG5xQZVM8Jw+rMaGJTNRENtp06YZm/L2ay4OXN/laPAPH7KBnTjm4ScKJZDq6ur463C40EZBcggdD77+SbGg2j7+sM+nL0Tj4ueLA4cn9Pn4QvHj8IRc13kiFCOun/l852LE6eNw4WgcZqC14l86ZThJYm1fXLkn1xnGl7Zw8sSBgKRqJ2SOj5zs0aOH4dffs44d52T6+DD6RICxVCM6AX7jD5/bBE/IFnRG2IATEGSQHtQcDfSkD/jSFQqWNwQdJ0ScNOhCxmcLLUuJEwiSNxIgCpZktO1J6iOay84QLmmwhnwkX4ySSZdvzWrQff6B5uOjhIxRDUYydFsKJ8iQTLIpmZBpP9VJHzg7OVzy8HGxhS4USoI4nvBZVrKb00dtXL5/8sknpt9BNvofTSeF9OGCFLf+0X9pjWz0o7z9mmykOhkH7Hf1XWrvo9Fa3sn11sGHT7Xi+MGF4meffWbOMf37949Cx4Ovf5ItqF3Hn08fZ4st0xU/XxxsPvxO4unjC8WPw5M7HmCDK0ahfkZ+JH0Pxcinj+RRncSF9qNO0nyY2Tyt8DuckEPrDANMvUiBOXnYCTnER85hnhdgIAnRPp9MoqN28WE/RnU4sdlt09iCRECj6wsuuKARP0dz2YLRCBL7mjVronHjxpkTAk6KmL/hbMEcI8qMGTOMLRgxYU5RL9bQyB6f75ydLlxgexqsMX8GbOiTmkiSKHSFCzm0ZjXnH8dHCZluK6I/IDHdfffdLGZ2nJMHtk1L+sDZyeGSl4+LLXxGQeLQS5NGehUzgzcwCekjH12+o59g7XDIx/MZKLgw4PRBHuY8cTLFtAhNm2DUkrdfk42ok3EgGtd3XTRayxujPpIB/2iEjL6JPos+hIKpKGqH2nU8cP3T5nUdf5w+jkZyXfHzxYF4ULvw9PFx8QvhGTpPuGIU6mfkh8t30FwxIh6XPqKhduFCdBfNhxnxtFIdTshYfMBVcEWIhRRQLrnkErMIPZLHhx9+GOlPL0Ycn+0cbnXrFaHig4WTyfERzRXEtLZgng8nRSRTkkc1R0v6AB4kdYzUUTDCQcFJjbMFt9dRcCKh2+i4uIBPZAdqlz6i++x04ZIGa7KXRvfQQ8kFI3/SSzW1N45Y/9BfOD5KyOOth7rQn5599lkWM9KL2ndgk022D7TPMtH8bE6/5vDkYktznJjagB80xYHjirMzje92G4yAcIeL04f26Cvog+i/NGrHCAi0PP2abCBf7DgQDbWv77po5IN9Kx4BpIQMX5csWWJsxnMQ8Mde3MV1PHD907bTdfxx+jgayXX1XS4O4PPhyfH54sfhyfVrsh91Mn4k09WvbT6X76C7YmTzJfURzYcL6D4ahxnJbYU6nJBp9R7MZ2LUQn84EJC8XEW/bhRxfOTYNddcY9hprhX7OZkcH9FcQeRsQafRS0PGiYU6H/zkaKTP5QPRUAMn3ArHXQAkMM6WiooKgwdGMSQDfHgggbZd+tLY6cIlhDVGHziRgZf0o8Y8DgpGc7QfiRSLgXD+cXyuhAzfMafPyST9qF0Hts8HTiaHS14+LrY0OqE7EOh7KEjInL6Q77iYsUeQuB2LuU9OH8UBT2hDPhZqQaGETDqz9Gvw+OLA9V2OhotbFJyXyCZsIyHjRI2CO1JEg+9vvPFGvO06Hrj+SXJcxx+nj6ORTNTJvhuKgw/PEB/pTMaPw5M7HrgYcf2M7HD5TjRXjDh94PPhwtHSYkZ2FbAOJ2Q8mYcRI+YPcW8fDxxhWUMM8ZOG2bes0/BVVlZGn3/+eRM5tlxbJu3n+FxB5Gyhp+8QSHRSzJ3hChi6OFoaW3ASw2tLuG328MMPG5mcLdCPh+YWLlxo2t54443mxELzqNDp8j2NnS5cyAeqbaxxkQRbcDBizoz+YCMSBkZPn376qbnIoFtTuJDg/OP46KDAqwk4ic2cOdP4jrhwMsl21MmTGudDWpmQa+OSl4+LLWgYReG2KnxHX8GFEOY80+pL+k524wlfJFWKEZ5S5fQhwaFgDhvH+4IFC8w2LrgI66z9mosD13c5GnDCBRtGwRiB4aIahUbI6Lv6WwSmryLZAM/bb7899sF1PHD9k3x3HX+gcfo4GslNxo+LA4cnx0e6XPEL4Um8qO3jgYsR189seUnfieaKEaePw4WjpcGMbCpwHU7IMAAHM5IUCjq2vc6wbSAe/LIf6uL46IoMc6y2jOTvpMwQnyuInA/oNPYVIC4+aITK0SAzZAuwwtOXjzzyiDkJkm8cLrhthhMNYU3vIXP6QnaC14cL2YTaxhprTLsKPXELH+iWPNrhVi/J4vzz8ZWVlRl1uE1NxX4vnZNJepHQ7Nee0vjQ0v2abEniiW0utnhgEn0PBf0GT4WSrDy+gxcnXjtGWMuaZHL68DwAFZx8UezbvVn7NRcHru9yNPiBETDNEeOCBoUSMh70IjyxH8c45JH/vuPB1z/Bxx3vnD6ORvYk+y72++LA4cnxkS5f/Dg8iRe1fZ4IxYjrZyTT5Ttorhhx+jhcOBp0+bAmG1upTpeQyZi86wzn5SO9LVn7bMEIkF43SurjaMm2WbZ9tkAGbMEVexZ5hbKTs4Fbs5rzj+MDDSNml15Opqt9mn15Zebl42KLh6nsxGHbn1cfZGKkbcui3z59eDsBNGqXpc5jJ9d3ORqw4uwE1uDPYj/acv2Tk8Xp42g+mXnjkJcvhKfPTi5G4PH1M5+80P6QvhC/i54XM5esPPtktSeNmhRBQBAQBAQBQeBQI9Bhv2V9qIEV/YKAICAICAKCQBYEJCFnQUvaCgKCgCAgCAgCBUJAEnKBgBWxgoAgIAgIAoJAFgQkIWdBS9oKAoKAICAICAIFQkAScoGAFbGCgCAgCAgCgkAWBCQhZ0FL2goCgoAgIAgIAgVCQBJygYAVsYKAICAICAKCQBYEJCFnQUvaCgKCgCAgCAgCBUJAEnKBgBWxgoAgIAgIAoJAFgQkIWdBS9oKAoKAICAICAIFQkAScoGAFbGCgCAgCAgCgkAWBCQhZ0FL2goCgoAgIAgIAgVCQBJygYAVsYKAICAICAKCQBYEJCFnQUvaCgKCgCAgCAgCBUJAEnKBgBWxgoAgIAgIAoJAFgQkIWdBS9oKAoKAICAICAIFQkAScoGAFbGCgCAgCAgCgkAWBEqyNKa2FeXF6i9DjlQVvUrU6L7+nF40/Eil+nchNqkPEwQWFVeolcUDnd5WVfdVtXXdnbS+m39SPWp+c9J+2fqb2rW7zkk7nHdW76pV+/btVzW7dqkdO3cezlCI74JAu0egSHsQpfWivFuRmj22uxpTnj6PF43splRp+vZpbZF2bRuB+cWj1KbiMqeRv2z/g9p7QF+sOUr/DWvUkXW1DopSlb9Uqb179ztpslOp3XV1akPlJrV7zx6BQxAQBNohAqkT8pDSYjVvXE/VozNY0pTfRXcqUkWjdFLu2ikNk7TpIAjUqU7qX53GqJoiHftEaThYrDZvH6DqG5peqBU11Ks//rRKda5vmnjrGxpU5eYqVV/fkJAY3uzcuUT9/W+T1Z/HVKh+fXsZhqrtNWrZ8tVqzj8XqAMH6sNC2kmLtT+t16Pl6nZirZgpCAgChMD/AEeoHKxvekzdAAAAAElFTkSuQmCC;" parent="1" vertex="1">
          <mxGeometry x="150" y="-940" width="484" height="51" as="geometry" />
        </mxCell>
        <mxCell id="5RLO0JrXhLwPrKWi8I5i-2" value="" style="shape=image;verticalLabelPosition=bottom;labelBackgroundColor=default;verticalAlign=top;aspect=fixed;imageAspect=0;image=data:image/png,iVBORw0KGgoAAAANSUhEUgAAAOcAAAAlCAYAAAC51P6fAAABW2lDQ1BJQ0MgUHJvZmlsZQAAKJF1kLFLQlEUxj/LUEKoKKEh6A3R0itEDYQmdZCgQTTFanrv+noG+rw8X0TQWLvQ1BbW3hIVtPQHBA1BQURzW0P0lpLbuVqpRedyOD8+vns4fECfX+O87AVQsRw7k0oohZVVxfcMP70RjGJSYzUeT6eXyILv2VvuHTxy3s7KXWuX9+rLSfB0oeDymWDB+OvvqcGiUWM0P6hDjNsO4FGJ01sOl7xDPGbTUcR1yWabjyXrbb5oeZYzSeJr4mFW0orEj8Sq3qWbXVwpb7KvG+T1AcPKZeUe6gnEkUWOWkEeKUQwj/w//mjLn0QVHNuwsQETJTj0M04KRxkG8SIsMMxBJQ4jRB2VOf/Or6NVG0DsDeivdzT9ADjfA8YfOtrUITC0C5zdcM3WflL1uN7aeiTc5kACGHgS4nUa8O0DzboQ7w0hmke0nzK6sj4BmZdjwGmVZ/MAAAA4ZVhJZk1NACoAAAAIAAGHaQAEAAAAAQAAABoAAAAAAAKgAgAEAAAAAQAAAOegAwAEAAAAAQAAACUAAAAAgPYd7gAAD3hJREFUeAHtWwl8jVcW/7/sEYmEhMQaW4ilJsZWY1fG2qqllI4uP2psv7aDdmbwQ6nBNOhYi0HVVktHldjVUltRS0nGiESEJCQSiTzZ8805N76vb/neS/Je1Gvz3d/v/b5771nuOefec+859/ueDoBEP1x4tRJcnHRcNStNVu8EdM5m/dwROWqAeT/zae4JXUUXc9jTnoavLYI+6Roy7/yI6h3Hi16pMB+FOZm4uWOyaLv7BKDeoHDEfD0FOen3RZ9nQDCCe09H9sNYFOZnwbNqY4LdRXbyTeRnZ8C/xSBErX/76ShAw9cWIjf9HuIOhEPQ9vsYt3Z8gNzHDxUcZ3cPhAxfpbTjD8xFZsJ/Rdu3fmsEdZqIqHVvUluYCqFvb0DC8SVIjzmv0IQM+4xkuoU7h/6l9FkaT0ZQ00+GBXV8Gz612+DGprFyl3ha4hkQ1s+i7veOr0TD11cg/sAnpNcNwSf0rXV4cHErHv50QLTr9p0KZ4+KiN75N6PxStPIgTO2OochWedtRlZQqENSWjXk5rmZwXQFBagWdwPuuVlmsIKCQsQnphBdnhlM7ji0ex5++PF/mDpzrdwlnr16tMFrgzthzrzNiIlNwCcz30GbliHo8fJfjfC4se7zySgokDBqXLgZ7PDeBThx8io+nrfRDGatw8nZCSs/ew8hDWqgS6+iNW2Kf+jb+Th5+id8/A9z3k4ycpy+aOHJbcNnfkqyYdN6vQSOyQziD4fj/tmNyLh9CdHb30NG3Bk8SbiC2xGzFP5Vfvcy8vWpimMyICs5DnB2gXuVYKRc/g90Oie4+9SA/t415GWSnLSJOLu5Kzyc3byQ9yRNaVurpMecRH5mCmp2nwwXDy+BmpdZ5MTuPv7WSG2CqelnEyMisld3Ma6kLIdSi/G8HJMFjSbH6/BiU3h5eRjJvf/QD3hnzKfCMRnGOIxbmtK3dzt4erpj6ardJSLr3jUMo9/qI3ALaWPZseskXN1coXMqsu3fPxqOxo3qKLxy8vLhRnC1oszG13E5anDRlxyxzSLMCFBCx2Sa7NS7KMgtGjM/W4+EE/9G/HcryJEeKyz55EiPPqq0iyoSCrLTyQddob8fgzz9A+hcPehEiMLjuCt0uBWgRpc/k5M6oUrzXgTzJB4nTHioNx/fOo3b+2aTw+sQ3HeaQNLzZlCQR6f7GOH01X4/0IjYtYIP3Cr6ifF0zh6i7uxmvEiMCAwa6voZIJSiaq/u+VmP4OJVhXT0AEcSTs7qkZKaSM/TMVmemXO+pP3aGYvmj1WcwFBOdoyFBGMcxi1NGfVmL0RGxSE1NUOVbMoHQzFv9mgFVj3IH2/+qSdCGwfTmtDh1f7tkZWVA6mwUOC82KYJZk8fCT9fb7Ru1YieFfHDhRsKvWFFcc4D8bnIL1Q/PdNOHkVuUrwhnXo9xMNqKKtOpN7rXbOpcLqH1w+aIeSk3UVexgPRr0+MRGHuEwpx88jZs5F46nN4Bb6A0LfWo2qr15EWGQF9YnQRD+mpfvLTjDOfQGm0USyDK53Gge1GAIUFSDq7Bh4B9REyYjX8Qv9oRNVg8CLUH/IZhYSVUCGomajX6vGXYsezpp/RAKYNWXb5+RRerO6mfLhtwCNZRCE60nGVCPG9a7VQo1Dti3BqpBrKMnJKehXVUJZh/omxqqEsw5JS0qyGsowjl/vJaVixeg+aNgnG3h2zweGsj7eX+HGd+5oRjHEYV62orXzmV7WqH5ZbOTU7d3wB7Vo3Ulh+ueWwcOY1yz/AqSOLEdqoNmZ98vOG8PcZ6+Bf2Rt7vp6DxQvG4crVW9i997RCb1jRUUORq0stVyxuUxTOGSIV1XXwa98BWbejkZOSikphLZF9JxbZiUkCrGtAp0U183zCnE/Jeqq1Ggg370A6TZeXjMAEi0+z3MxH1KuoZ4JR2qaOTkVf4qk+uaXlZq9+1sazWXeRIgRQ7p6Ogpxsa0MoMHbMSKfqStuwkkyOmZmlvp6qJMSiYkaqIbpST3yQisd68/xTQbBQada0HubPGQXfSsZjPkrX46Npa3DteowFStu7XVxc6ER2Qk52rhETDlV9K1XEAwubQUCALx49ykQehbWWipFzMlL32m4Ib13BEr5qf1k7puogWqfDWcCRHNPQOHxqtmsbKrrOnotCxmO9IfhXUzdzTpY82M8J4xt7okd19UTVUDvNMQ2tUX7qjuqYv6UZUHXO35KCmi6aBWyxwKmAPRbJ/pDczyKsLAHKhVBZMtV4aRbQLGC/BTTntN+GGgfNAs/EAsU6J11GlbosW7YMDRs2LDWdTODm5obly5ejdu3actczfXp6eorxatWqZfM4/v7+9LLa04h+7ty5gi/r0r9/fyOYacNem5nyK+u2mn72jvEseNork6PR87sG1R85pvTPBYFSnz6+qnBLdBKVQYMGlYrGkJefnx+zkF566SWbeRjyK65Oi0SM17lzZ5vHS09Pl7755hsj+n379kkXLlyQcnNzpZ07dxrBTGViAeyxmcyvZ8+e0oABA6yOJeOW5qmmX2no1XCfBU+1cWzpo5xTsvSzhZ8tNFbPxXx6BfPdsWx07+YJZ2cdvv22bN7xkaC/uUJOgYQE40/DevfuLfS8e/fuL6bv1KlTERAQgF27dpXpmGr62TvAs+Bpr0yORF9sWBsR8QhHj2ahS2cPDBhAn6mplPbt29ML1UcopE+UoqOffo3zFK9ly5ZISkoSsIyMDAwbNkzhwKFvXFycgGVnZ2PatGkKzLBCpw6Ytm7duqK7Tp06YhweLysrCxMmTFDQmzdvjpycHHBIyTA6kDB69M+fVymIKpWNGzcK/AL6EHvGjBkCg0Ns5te1a1eFgmWVw9SUlBQBP3HihEX5FUKDijWbGaCVuMobAcvZsWNHhIaGijq3AwMDrfJYv349WAfWOTMzE3SaifmYNGmSoLOkX+XKlcUYX331laDludi6dasyVocOHcSaYPvfuXMHT548Qd++fW3m2apVK7Dd3333XcGDUx6WNzzc/EN1RYgSVipVoj992JK/lZC/rWhmzjl2rD/mzws0+nXqVPStaMcOHmjezPwDhf379wtDDRw4UDibLAwr/P333wvH4l2S61u2bFGcjNuurq7o1asX1qxZg9mzZ4Od2bCsWrUKzHfkyJGIjY0VIKarUKECKOzFtm3bsGTJEjRo0EDA3N3d6UNiN/Di4jxu5syZYMcpScmjfz706NEDBw8eFHRy3sz8eDy58Bje3t6iyRsD/9gROIcqabFks5LSm+KdPXtW2CMqKgp8UrNt+MfOZa3wKcvzNHz4cPpw3AubNm3CpUuXMH78eEFmST8n+l6V7cKbATvd6tWrMXToULRoUfTZX0REhFgT/fr1w5UrV0Q+LtvQFp6UHmDv3r1YunSp2HB4jvIptLO0oVvT2RTGG9Tp0+qf0Jni/tJto/ykZZiX9OoAP6Pf68MqS+GfBknktFJAgIsRPk0Gp0tS69atlX5uc/5EpwtXJdrlBIwmVKLdT1q8eLFEC1/AaHIVOppQiRxVknPOw4cPC5xx48YpOHQqiL7BgwdL5JDiR44hkWMLHNphBZwWjEJDBrVal3NOWswCjxarRCeJNGvWLIkWoBk/7qDFbMSTHMJiXmkKs2az4mSlzUo6cuSI8qOFZSTH8ePHpcjISKM+azxpwUvXrl0T+KwX22DlypUShehGPEx1kG3WrVs3BY9OT4lONknWr23btgqMeQ8ZMkRps0yl4cn4dOEmpaWlSRRFMTujNWdNx+JgvN54DU2cOFGRz1K+yf3F8SsruFnO+eMlPfgnFzc3HSZPCqBQR8Ky5alITjb+FlA+XS5evCiTKM8mTZqIEInDGi4c+ty/fx8hISFgGBfeEeXSp08fUSVjiWf37t3F8/r16zKKcrJu375d6eMKh7qGhRaoYbNEdT45ufCOzGF0zZo1S0RXWiRrNiuOF61JYUcZj9vPs7Ct5MKy8I11/fr1Rdf58+dlUKmeajyZAacpnKLw3NPGDVv5mwpDDo8vvvgCCxYsEFGYKfx5tc2c01SQCeP94Uef861anU65g/HHvYwbH1/0b5Xg4GDExBh/WHz79m1w+OPryx/58kfoIF5+IuziXJML55GyI9FtKW7dugW9vmhzWLduHWhnBoeAnGMkJycrly68AGSnZz7s+GVZOATjSZMXihySlcUY1mxWHP8xY8YUhyJsXizSM0S4d++e4F6vXj2zOwh7huW1tGjRIvpYPA+8cXNuzWG8vYXn9o033sD8+fPtZVWm9GY5pyF3SkXg4+OEDRsycPOm+r8EOD+hVwXguJ2dcCbleHI5dOiQcBp2Ms5r3n//fZGrcZtCKbETcq7Juy3nR8eOHUNYWJhMjs2bN4MvFnhSKFwT/efOnRP53e7du0WOVL16dXH6Ugil0Nla4fyF86jp06eLJ192sNPzRcSIEfT3MSryRZE8Bo/P70c5d+acjet8WcLFEsyazWS+tj4TExNFFMEy8EZo76ZiSQdr8sn6rV27VowvXy7JNLbwZFrOa2vUqIGmTZuKjZnXC6+rkhReYxylUYpkhr5ixQrwQWK4ds2QnlOH3TE051+co3GR8wH5nR3dzop4nmGck1DooIzH+Q3d4jFIlA0bNggY5wBc5BzwlVdeEe2FCxcKOPfTTZ3oY56XL1+WaGMQMLpQEv0U5irjkF2t1mkhCxrOZ+RCFyMKDS0uuVuiU0/owXoxX85VTAstmmJh1mxWnLzW4JQuGMnEtrOGv2fPHqOck3NIw5zTkn5yzml4Z8BrQM7baDNT1gSFo8JEcs5pC0+6LRc8pkyZIvShiEvwl9eMNR0ZRpumoOec3BSXYXRja9TvCDmn7qmg9LCv8OnGu5ocsply4xOFwx218JNzu4cPH4qT1JTOWptfE/DVP+ciZVVYFj4pTW85+QTiyMD0XaY94xZnM1t582nC6QLrwKH58yicjpw5c0bcrAYFBeHUqVPiJvfq1avPQxwxJt+mm86rJWHIOS2B8Et9+F5mzmlREw1QLi3Am7SPj494jdKuXTsRhsqvu34NBnEE57Sac/4ajKjJ6JgW4Bv5OXPmCKf88MMP0bhxY8cU1IGl0k5OB54cTbTybQHt5Czf869p78AW0JzTgSdHE618W0BzzvI9/5r2DmwBzTkdeHI00cq3BTTnLN/zr2nvwBbQnNOBJ0cTrXxbQHPO8j3/mvYObAHNOR14cjTRyrcFNOcs3/Ovae/AFtCc04EnRxOtfFtAc87yPf+a9g5sAc05HXhyNNHKtwU05yzf869p78AW+D9tzCkoKMqkDgAAAABJRU5ErkJggg==;" parent="1" vertex="1">
          <mxGeometry x="150" y="-800" width="231" height="37" as="geometry" />
        </mxCell>
        <mxCell id="5RLO0JrXhLwPrKWi8I5i-6" value="localhost / mitienda.local" style="rounded=1;whiteSpace=wrap;html=1;verticalAlign=top;" parent="1" vertex="1">
          <mxGeometry x="680" y="-730" width="430" height="380" as="geometry" />
        </mxCell>
        <mxCell id="5RLO0JrXhLwPrKWi8I5i-7" value="perfil" style="rounded=1;whiteSpace=wrap;html=1;" parent="1" vertex="1">
          <mxGeometry x="762.5" y="-670" width="120" height="60" as="geometry" />
        </mxCell>
        <mxCell id="5RLO0JrXhLwPrKWi8I5i-8" value="carrito" style="rounded=1;whiteSpace=wrap;html=1;" parent="1" vertex="1">
          <mxGeometry x="765" y="-560" width="120" height="60" as="geometry" />
        </mxCell>
        <mxCell id="5RLO0JrXhLwPrKWi8I5i-9" value="producto" style="rounded=1;whiteSpace=wrap;html=1;" parent="1" vertex="1">
          <mxGeometry x="765" y="-450" width="120" height="60" as="geometry" />
        </mxCell>
        <mxCell id="5RLO0JrXhLwPrKWi8I5i-11" value="web" style="rounded=1;whiteSpace=wrap;html=1;" parent="1" vertex="1">
          <mxGeometry x="960" y="-680" width="120" height="60" as="geometry" />
        </mxCell>
        <mxCell id="5RLO0JrXhLwPrKWi8I5i-12" value="" style="endArrow=classic;html=1;rounded=0;exitX=0;exitY=0.5;exitDx=0;exitDy=0;entryX=1;entryY=0.5;entryDx=0;entryDy=0;" parent="1" source="5RLO0JrXhLwPrKWi8I5i-11" target="5RLO0JrXhLwPrKWi8I5i-7" edge="1">
          <mxGeometry width="50" height="50" relative="1" as="geometry">
            <mxPoint x="1150" y="-540" as="sourcePoint" />
            <mxPoint x="1200" y="-590" as="targetPoint" />
          </mxGeometry>
        </mxCell>
        <mxCell id="5RLO0JrXhLwPrKWi8I5i-13" value="" style="endArrow=classic;html=1;rounded=0;exitX=0;exitY=0.5;exitDx=0;exitDy=0;entryX=1;entryY=0.5;entryDx=0;entryDy=0;" parent="1" target="5RLO0JrXhLwPrKWi8I5i-8" edge="1">
          <mxGeometry width="50" height="50" relative="1" as="geometry">
            <mxPoint x="960" y="-630" as="sourcePoint" />
            <mxPoint x="893" y="-630" as="targetPoint" />
          </mxGeometry>
        </mxCell>
        <mxCell id="5RLO0JrXhLwPrKWi8I5i-14" value="" style="endArrow=classic;html=1;rounded=0;exitX=0;exitY=0.5;exitDx=0;exitDy=0;entryX=1;entryY=0.25;entryDx=0;entryDy=0;" parent="1" target="5RLO0JrXhLwPrKWi8I5i-9" edge="1">
          <mxGeometry width="50" height="50" relative="1" as="geometry">
            <mxPoint x="970" y="-620" as="sourcePoint" />
            <mxPoint x="903" y="-620" as="targetPoint" />
          </mxGeometry>
        </mxCell>
        <mxCell id="5RLO0JrXhLwPrKWi8I5i-17" value="PC Cliente X" style="rounded=1;whiteSpace=wrap;html=1;verticalAlign=top;" parent="1" vertex="1">
          <mxGeometry x="2655" y="-2072.25" width="230" height="224.5" as="geometry" />
        </mxCell>
        <mxCell id="5RLO0JrXhLwPrKWi8I5i-19" value="" style="outlineConnect=0;dashed=0;verticalLabelPosition=bottom;verticalAlign=top;align=center;html=1;shape=mxgraph.aws3.user;fillColor=#D2D3D3;gradientColor=none;" parent="1" vertex="1">
          <mxGeometry x="2840" y="-1890" width="45" height="63" as="geometry" />
        </mxCell>
        <mxCell id="5RLO0JrXhLwPrKWi8I5i-20" value="" style="rounded=1;whiteSpace=wrap;html=1;" parent="1" vertex="1">
          <mxGeometry x="1750" y="-1250" width="310" height="340" as="geometry" />
        </mxCell>
        <mxCell id="5RLO0JrXhLwPrKWi8I5i-21" value="web" style="rounded=1;whiteSpace=wrap;html=1;" parent="1" vertex="1">
          <mxGeometry x="1845" y="-1200" width="120" height="60" as="geometry" />
        </mxCell>
        <mxCell id="5RLO0JrXhLwPrKWi8I5i-23" value="Server: mitienda.com" style="rounded=1;whiteSpace=wrap;html=1;verticalAlign=top;" parent="1" vertex="1">
          <mxGeometry x="2186.5" y="-2020" width="273.5" height="380" as="geometry" />
        </mxCell>
        <mxCell id="5RLO0JrXhLwPrKWi8I5i-24" value="perfil" style="rounded=1;whiteSpace=wrap;html=1;" parent="1" vertex="1">
          <mxGeometry x="2269" y="-1960" width="120" height="60" as="geometry" />
        </mxCell>
        <mxCell id="5RLO0JrXhLwPrKWi8I5i-25" value="carrito" style="rounded=1;whiteSpace=wrap;html=1;" parent="1" vertex="1">
          <mxGeometry x="2271.5" y="-1850" width="120" height="60" as="geometry" />
        </mxCell>
        <mxCell id="5RLO0JrXhLwPrKWi8I5i-26" value="producto" style="rounded=1;whiteSpace=wrap;html=1;" parent="1" vertex="1">
          <mxGeometry x="2271.5" y="-1740" width="120" height="60" as="geometry" />
        </mxCell>
        <mxCell id="5RLO0JrXhLwPrKWi8I5i-28" value="" style="endArrow=classic;html=1;rounded=0;exitX=0;exitY=0.5;exitDx=0;exitDy=0;entryX=1;entryY=0.5;entryDx=0;entryDy=0;" parent="1" source="5RLO0JrXhLwPrKWi8I5i-31" target="5RLO0JrXhLwPrKWi8I5i-24" edge="1">
          <mxGeometry width="50" height="50" relative="1" as="geometry">
            <mxPoint x="2560" y="-1950" as="sourcePoint" />
            <mxPoint x="2706.5" y="-1880" as="targetPoint" />
          </mxGeometry>
        </mxCell>
        <mxCell id="5RLO0JrXhLwPrKWi8I5i-29" value="" style="endArrow=classic;html=1;rounded=0;entryX=1;entryY=0.5;entryDx=0;entryDy=0;exitX=0;exitY=0.75;exitDx=0;exitDy=0;" parent="1" source="5RLO0JrXhLwPrKWi8I5i-31" target="5RLO0JrXhLwPrKWi8I5i-25" edge="1">
          <mxGeometry width="50" height="50" relative="1" as="geometry">
            <mxPoint x="2567.269230769231" y="-1920" as="sourcePoint" />
            <mxPoint x="2399.5" y="-1920" as="targetPoint" />
          </mxGeometry>
        </mxCell>
        <mxCell id="5RLO0JrXhLwPrKWi8I5i-30" value="" style="endArrow=classic;html=1;rounded=0;exitX=0.25;exitY=1;exitDx=0;exitDy=0;entryX=1;entryY=0.25;entryDx=0;entryDy=0;" parent="1" source="5RLO0JrXhLwPrKWi8I5i-31" target="5RLO0JrXhLwPrKWi8I5i-26" edge="1">
          <mxGeometry width="50" height="50" relative="1" as="geometry">
            <mxPoint x="2620" y="-1920" as="sourcePoint" />
            <mxPoint x="2409.5" y="-1910" as="targetPoint" />
          </mxGeometry>
        </mxCell>
        <mxCell id="5RLO0JrXhLwPrKWi8I5i-31" value="web" style="rounded=1;whiteSpace=wrap;html=1;" parent="1" vertex="1">
          <mxGeometry x="2714.5" y="-2000" width="120" height="60" as="geometry" />
        </mxCell>
        <mxCell id="5RLO0JrXhLwPrKWi8I5i-32" value="" style="image;points=[];aspect=fixed;html=1;align=center;shadow=0;dashed=0;image=img/lib/allied_telesis/computer_and_terminals/Server_Desktop.svg;" parent="1" vertex="1">
          <mxGeometry x="2426" y="-1680" width="42.599999999999994" height="54" as="geometry" />
        </mxCell>
        <mxCell id="5RLO0JrXhLwPrKWi8I5i-33" value="DNS&lt;div&gt;mitienda.com&lt;/div&gt;" style="rounded=1;whiteSpace=wrap;html=1;" parent="1" vertex="1">
          <mxGeometry x="2496.5" y="-2030" width="120" height="60" as="geometry" />
        </mxCell>
        <mxCell id="T2tRfhaVKCpMN6s5OHe6-3" style="edgeStyle=orthogonalEdgeStyle;rounded=0;orthogonalLoop=1;jettySize=auto;html=1;" edge="1" parent="1" source="T2tRfhaVKCpMN6s5OHe6-1" target="T2tRfhaVKCpMN6s5OHe6-2">
          <mxGeometry relative="1" as="geometry" />
        </mxCell>
        <mxCell id="T2tRfhaVKCpMN6s5OHe6-16" style="edgeStyle=orthogonalEdgeStyle;rounded=0;orthogonalLoop=1;jettySize=auto;html=1;" edge="1" parent="1" source="T2tRfhaVKCpMN6s5OHe6-1" target="T2tRfhaVKCpMN6s5OHe6-9">
          <mxGeometry relative="1" as="geometry" />
        </mxCell>
        <mxCell id="T2tRfhaVKCpMN6s5OHe6-25" style="edgeStyle=orthogonalEdgeStyle;rounded=0;orthogonalLoop=1;jettySize=auto;html=1;entryX=0;entryY=0.5;entryDx=0;entryDy=0;" edge="1" parent="1" source="T2tRfhaVKCpMN6s5OHe6-1" target="T2tRfhaVKCpMN6s5OHe6-24">
          <mxGeometry relative="1" as="geometry" />
        </mxCell>
        <mxCell id="T2tRfhaVKCpMN6s5OHe6-1" value="&lt;b&gt;Procesos/&lt;/b&gt;&lt;div&gt;&lt;b&gt;programas/&lt;/b&gt;&lt;/div&gt;&lt;div&gt;&lt;b&gt;código&lt;/b&gt;&lt;div&gt;sobre el S.O&lt;/div&gt;&lt;/div&gt;" style="ellipse;whiteSpace=wrap;html=1;" vertex="1" parent="1">
          <mxGeometry x="3800" y="-1626" width="120" height="80" as="geometry" />
        </mxCell>
        <mxCell id="T2tRfhaVKCpMN6s5OHe6-14" style="edgeStyle=orthogonalEdgeStyle;rounded=0;orthogonalLoop=1;jettySize=auto;html=1;entryX=0;entryY=0.5;entryDx=0;entryDy=0;" edge="1" parent="1" source="T2tRfhaVKCpMN6s5OHe6-2" target="T2tRfhaVKCpMN6s5OHe6-4">
          <mxGeometry relative="1" as="geometry" />
        </mxCell>
        <mxCell id="T2tRfhaVKCpMN6s5OHe6-15" style="edgeStyle=orthogonalEdgeStyle;rounded=0;orthogonalLoop=1;jettySize=auto;html=1;" edge="1" parent="1" source="T2tRfhaVKCpMN6s5OHe6-2" target="T2tRfhaVKCpMN6s5OHe6-13">
          <mxGeometry relative="1" as="geometry" />
        </mxCell>
        <mxCell id="T2tRfhaVKCpMN6s5OHe6-2" value="Gestión Manual&lt;div&gt;con &lt;b&gt;Docker&lt;/b&gt;&lt;/div&gt;" style="ellipse;whiteSpace=wrap;html=1;" vertex="1" parent="1">
          <mxGeometry x="4090" y="-1800" width="120" height="80" as="geometry" />
        </mxCell>
        <mxCell id="T2tRfhaVKCpMN6s5OHe6-60" style="edgeStyle=orthogonalEdgeStyle;rounded=0;orthogonalLoop=1;jettySize=auto;html=1;" edge="1" parent="1" source="T2tRfhaVKCpMN6s5OHe6-4" target="T2tRfhaVKCpMN6s5OHe6-58">
          <mxGeometry relative="1" as="geometry" />
        </mxCell>
        <mxCell id="T2tRfhaVKCpMN6s5OHe6-61" style="edgeStyle=orthogonalEdgeStyle;rounded=0;orthogonalLoop=1;jettySize=auto;html=1;" edge="1" parent="1" source="T2tRfhaVKCpMN6s5OHe6-4" target="T2tRfhaVKCpMN6s5OHe6-59">
          <mxGeometry relative="1" as="geometry" />
        </mxCell>
        <mxCell id="T2tRfhaVKCpMN6s5OHe6-4" value="Dockerfile" style="ellipse;whiteSpace=wrap;html=1;fontStyle=1" vertex="1" parent="1">
          <mxGeometry x="4290" y="-1860" width="120" height="80" as="geometry" />
        </mxCell>
        <mxCell id="T2tRfhaVKCpMN6s5OHe6-9" value="Gestión&lt;div&gt;Automática&lt;/div&gt;&lt;div&gt;&lt;b&gt;&lt;font color=&quot;#990000&quot;&gt;LOCAL&lt;/font&gt;&lt;/b&gt;&lt;/div&gt;&lt;div&gt;&lt;b&gt;Compose&lt;/b&gt;&lt;/div&gt;" style="ellipse;whiteSpace=wrap;html=1;" vertex="1" parent="1">
          <mxGeometry x="4090" y="-1480" width="120" height="80" as="geometry" />
        </mxCell>
        <mxCell id="T2tRfhaVKCpMN6s5OHe6-68" style="edgeStyle=orthogonalEdgeStyle;rounded=0;orthogonalLoop=1;jettySize=auto;html=1;entryX=0.5;entryY=1;entryDx=0;entryDy=0;" edge="1" parent="1" source="T2tRfhaVKCpMN6s5OHe6-13" target="T2tRfhaVKCpMN6s5OHe6-67">
          <mxGeometry relative="1" as="geometry" />
        </mxCell>
        <mxCell id="T2tRfhaVKCpMN6s5OHe6-13" value="&lt;div&gt;&lt;b&gt;Run&lt;/b&gt;&lt;/div&gt;" style="ellipse;whiteSpace=wrap;html=1;" vertex="1" parent="1">
          <mxGeometry x="4290" y="-1750" width="120" height="80" as="geometry" />
        </mxCell>
        <mxCell id="T2tRfhaVKCpMN6s5OHe6-20" style="edgeStyle=orthogonalEdgeStyle;rounded=0;orthogonalLoop=1;jettySize=auto;html=1;entryX=0;entryY=0.5;entryDx=0;entryDy=0;exitX=1;exitY=0.5;exitDx=0;exitDy=0;" edge="1" parent="1" target="T2tRfhaVKCpMN6s5OHe6-22" source="T2tRfhaVKCpMN6s5OHe6-9">
          <mxGeometry relative="1" as="geometry">
            <mxPoint x="4200" y="-1440" as="sourcePoint" />
          </mxGeometry>
        </mxCell>
        <mxCell id="T2tRfhaVKCpMN6s5OHe6-21" style="edgeStyle=orthogonalEdgeStyle;rounded=0;orthogonalLoop=1;jettySize=auto;html=1;exitX=1;exitY=0.5;exitDx=0;exitDy=0;" edge="1" parent="1" target="T2tRfhaVKCpMN6s5OHe6-23" source="T2tRfhaVKCpMN6s5OHe6-9">
          <mxGeometry relative="1" as="geometry">
            <mxPoint x="4210" y="-1435" as="sourcePoint" />
          </mxGeometry>
        </mxCell>
        <mxCell id="T2tRfhaVKCpMN6s5OHe6-65" style="edgeStyle=orthogonalEdgeStyle;rounded=0;orthogonalLoop=1;jettySize=auto;html=1;" edge="1" parent="1" source="T2tRfhaVKCpMN6s5OHe6-22" target="T2tRfhaVKCpMN6s5OHe6-63">
          <mxGeometry relative="1" as="geometry" />
        </mxCell>
        <mxCell id="T2tRfhaVKCpMN6s5OHe6-22" value="build: ./Dockerfile" style="ellipse;whiteSpace=wrap;html=1;fontStyle=1" vertex="1" parent="1">
          <mxGeometry x="4290" y="-1535" width="120" height="80" as="geometry" />
        </mxCell>
        <mxCell id="T2tRfhaVKCpMN6s5OHe6-77" style="edgeStyle=orthogonalEdgeStyle;rounded=0;orthogonalLoop=1;jettySize=auto;html=1;" edge="1" parent="1" source="T2tRfhaVKCpMN6s5OHe6-23" target="T2tRfhaVKCpMN6s5OHe6-74">
          <mxGeometry relative="1" as="geometry" />
        </mxCell>
        <mxCell id="T2tRfhaVKCpMN6s5OHe6-23" value="&lt;div&gt;&lt;b&gt;image: repository&lt;/b&gt;&lt;/div&gt;" style="ellipse;whiteSpace=wrap;html=1;" vertex="1" parent="1">
          <mxGeometry x="4290" y="-1420" width="120" height="80" as="geometry" />
        </mxCell>
        <mxCell id="T2tRfhaVKCpMN6s5OHe6-24" value="Gestión&lt;div&gt;Automática&lt;/div&gt;&lt;div&gt;&lt;b&gt;&lt;font color=&quot;#990000&quot;&gt;PRODUCTIVA&lt;/font&gt;&lt;/b&gt;&lt;/div&gt;&lt;div&gt;&lt;b&gt;SWARM&lt;/b&gt;&lt;/div&gt;" style="ellipse;whiteSpace=wrap;html=1;" vertex="1" parent="1">
          <mxGeometry x="4100" y="-1270" width="120" height="80" as="geometry" />
        </mxCell>
        <mxCell id="T2tRfhaVKCpMN6s5OHe6-79" value="" style="edgeStyle=orthogonalEdgeStyle;rounded=0;orthogonalLoop=1;jettySize=auto;html=1;" edge="1" parent="1" source="T2tRfhaVKCpMN6s5OHe6-26" target="T2tRfhaVKCpMN6s5OHe6-78">
          <mxGeometry relative="1" as="geometry" />
        </mxCell>
        <mxCell id="T2tRfhaVKCpMN6s5OHe6-26" value="&lt;div&gt;&lt;b&gt;image: repository&lt;/b&gt;&lt;/div&gt;" style="ellipse;whiteSpace=wrap;html=1;" vertex="1" parent="1">
          <mxGeometry x="4300" y="-1270" width="120" height="80" as="geometry" />
        </mxCell>
        <mxCell id="T2tRfhaVKCpMN6s5OHe6-27" value="" style="endArrow=classic;html=1;rounded=0;exitX=1;exitY=0.5;exitDx=0;exitDy=0;entryX=0;entryY=0.5;entryDx=0;entryDy=0;" edge="1" parent="1" source="T2tRfhaVKCpMN6s5OHe6-24" target="T2tRfhaVKCpMN6s5OHe6-26">
          <mxGeometry width="50" height="50" relative="1" as="geometry">
            <mxPoint x="4230" y="-1260" as="sourcePoint" />
            <mxPoint x="4280" y="-1310" as="targetPoint" />
          </mxGeometry>
        </mxCell>
        <mxCell id="T2tRfhaVKCpMN6s5OHe6-28" value="" style="endArrow=none;dashed=1;html=1;dashPattern=1 3;strokeWidth=4;rounded=0;" edge="1" parent="1">
          <mxGeometry width="50" height="50" relative="1" as="geometry">
            <mxPoint x="3940" y="-1630" as="sourcePoint" />
            <mxPoint x="5290" y="-1630" as="targetPoint" />
          </mxGeometry>
        </mxCell>
        <mxCell id="T2tRfhaVKCpMN6s5OHe6-31" value="environment: dev" style="image;points=[];aspect=fixed;html=1;align=center;shadow=0;dashed=0;image=img/lib/allied_telesis/computer_and_terminals/Server_Desktop.svg;" vertex="1" parent="1">
          <mxGeometry x="5147.89" y="-1554.3500000000001" width="82.6" height="104.7" as="geometry" />
        </mxCell>
        <mxCell id="T2tRfhaVKCpMN6s5OHe6-32" value="developer" style="image;points=[];aspect=fixed;html=1;align=center;shadow=0;dashed=0;image=img/lib/allied_telesis/computer_and_terminals/Laptop.svg;" vertex="1" parent="1">
          <mxGeometry x="5112.45" y="-1890" width="80.15" height="81.3" as="geometry" />
        </mxCell>
        <mxCell id="T2tRfhaVKCpMN6s5OHe6-33" value="developer" style="image;points=[];aspect=fixed;html=1;align=center;shadow=0;dashed=0;image=img/lib/allied_telesis/computer_and_terminals/Laptop.svg;" vertex="1" parent="1">
          <mxGeometry x="5050" y="-1554.3500000000001" width="80.15" height="81.3" as="geometry" />
        </mxCell>
        <mxCell id="T2tRfhaVKCpMN6s5OHe6-35" value="" style="image;points=[];aspect=fixed;html=1;align=center;shadow=0;dashed=0;image=img/lib/allied_telesis/computer_and_terminals/Server_Desktop.svg;" vertex="1" parent="1">
          <mxGeometry x="5070" y="-1309.3500000000001" width="90.78" height="115.07" as="geometry" />
        </mxCell>
        <mxCell id="T2tRfhaVKCpMN6s5OHe6-36" value="Clúster: ambiente formal" style="image;points=[];aspect=fixed;html=1;align=center;shadow=0;dashed=0;image=img/lib/allied_telesis/computer_and_terminals/Server_Desktop.svg;" vertex="1" parent="1">
          <mxGeometry x="5100" y="-1264.2800000000002" width="92.6" height="117.38" as="geometry" />
        </mxCell>
        <mxCell id="T2tRfhaVKCpMN6s5OHe6-38" value="" style="image;points=[];aspect=fixed;html=1;align=center;shadow=0;dashed=0;image=img/lib/allied_telesis/computer_and_terminals/Server_Desktop.svg;" vertex="1" parent="1">
          <mxGeometry x="5140" y="-1288.9800000000002" width="90.49" height="114.7" as="geometry" />
        </mxCell>
        <mxCell id="T2tRfhaVKCpMN6s5OHe6-39" value="" style="endArrow=none;dashed=1;html=1;dashPattern=1 3;strokeWidth=4;rounded=0;" edge="1" parent="1">
          <mxGeometry width="50" height="50" relative="1" as="geometry">
            <mxPoint x="3940" y="-1325.07" as="sourcePoint" />
            <mxPoint x="5281" y="-1325" as="targetPoint" />
          </mxGeometry>
        </mxCell>
        <mxCell id="T2tRfhaVKCpMN6s5OHe6-44" value="" style="edgeStyle=orthogonalEdgeStyle;rounded=0;orthogonalLoop=1;jettySize=auto;html=1;" edge="1" parent="1" source="T2tRfhaVKCpMN6s5OHe6-40" target="T2tRfhaVKCpMN6s5OHe6-41">
          <mxGeometry relative="1" as="geometry" />
        </mxCell>
        <mxCell id="T2tRfhaVKCpMN6s5OHe6-40" value="&lt;div&gt;1.&lt;/div&gt;Tengo un programa" style="ellipse;whiteSpace=wrap;html=1;" vertex="1" parent="1">
          <mxGeometry x="3475" y="-1020" width="140" height="100" as="geometry" />
        </mxCell>
        <mxCell id="T2tRfhaVKCpMN6s5OHe6-45" value="" style="edgeStyle=orthogonalEdgeStyle;rounded=0;orthogonalLoop=1;jettySize=auto;html=1;" edge="1" parent="1" source="T2tRfhaVKCpMN6s5OHe6-41" target="T2tRfhaVKCpMN6s5OHe6-42">
          <mxGeometry relative="1" as="geometry" />
        </mxCell>
        <mxCell id="T2tRfhaVKCpMN6s5OHe6-41" value="2.&lt;br&gt;Lo meto en docker&lt;br&gt;y pruebo local con Compose&lt;div&gt;&lt;/div&gt;" style="ellipse;whiteSpace=wrap;html=1;" vertex="1" parent="1">
          <mxGeometry x="3710" y="-1020" width="140" height="100" as="geometry" />
        </mxCell>
        <mxCell id="T2tRfhaVKCpMN6s5OHe6-46" value="" style="edgeStyle=orthogonalEdgeStyle;rounded=0;orthogonalLoop=1;jettySize=auto;html=1;" edge="1" parent="1" source="T2tRfhaVKCpMN6s5OHe6-42" target="T2tRfhaVKCpMN6s5OHe6-43">
          <mxGeometry relative="1" as="geometry" />
        </mxCell>
        <mxCell id="T2tRfhaVKCpMN6s5OHe6-42" value="3. Cuando tengo una versión final, lo subo a un registro&lt;div&gt;&lt;/div&gt;" style="ellipse;whiteSpace=wrap;html=1;" vertex="1" parent="1">
          <mxGeometry x="3940" y="-1020" width="140" height="100" as="geometry" />
        </mxCell>
        <mxCell id="T2tRfhaVKCpMN6s5OHe6-43" value="4. Cuando tengo una versión final, lo subo a un registro&lt;div&gt;&lt;/div&gt;" style="ellipse;whiteSpace=wrap;html=1;" vertex="1" parent="1">
          <mxGeometry x="4170" y="-1020" width="140" height="100" as="geometry" />
        </mxCell>
        <mxCell id="T2tRfhaVKCpMN6s5OHe6-47" value="" style="shape=image;verticalLabelPosition=bottom;labelBackgroundColor=default;verticalAlign=top;aspect=fixed;imageAspect=0;image=data:image/png,iVBORw0KGgoAAAANSUhEUgAAA08AAAIwCAYAAABePVC6AAABXGlDQ1BJQ0MgUHJvZmlsZQAAKJF1kLFLAmEYxh/NUEKqoaKiwUGaLEwNou10kKDi0JRquzuvM9Dz4+5CgsbaD5oigrD+hmrsDwgagoaIGlpamiKXkuv9vOq06IOH98fD8728PIA/JDFWCQCo6paRy6Yjq2vrkeAzQujHMMbglxSTCaK4SBF8z+7XvIWPz5spvmv+ZWmmvnwkHMpPI4+l8ejffNfrK6mmQvODFFeYYQG+GLFYtxjnHeIhg44itjlrLp9yll2+aGdWchniK+JBpSyViO+JY3KHr3VwtbKlfN3Arw+reiHP95AmICCPAimCIrJIYhbFf/Kpdj6DGhi2YWATGsqw6KdADkMFKvECdCiYRow4gTgpxXv+3Z/n1RrA3BvQY3uefACc7wGjd54XPQYGdoGzayYZ0k+rvmbA3EgmXA6ngd4Hx3mdBIL7QMt2nPeG47ROaD91dKl/AkoKYvwsAKHZAAAAOGVYSWZNTQAqAAAACAABh2kABAAAAAEAAAAaAAAAAAACoAIABAAAAAEAAANPoAMABAAAAAEAAAIwAAAAAP2Hz/kAAEAASURBVHgB7J0HfFTFFsa/9EIa6YGE3nuvSlEEVKQJggiC4lOx94rt+axP7L3ywAooKgIKSO/Se+8JEEJ6b7w5s9xlN9kUSGE3+Y6/ZO+dO+3+5wbvt2fmjFNwrahzoJEACZAACZAACZAACZAACZAACRRLwLnYq7xIAiRAAiRAAiRAAiRAAiRAAiSgCVA88UEgARIgARIgARIgARIgARIggVIQoHgqBSRmIQESIAESIAESIAESIAESIAGKJz4DJEACJEACJEACJEACJEACJFAKAhRPpYDELCRAAiRAAiRAAiRAAiRAAiRA8cRngARIgARIgARIgARIgARIgARKQYDiqRSQmIUESIAESIAESIAESIAESIAEKJ74DJAACZAACZAACZAACZAACZBAKQhQPJUCErOQAAmQAAmQAAmQAAmQAAmQAMUTnwESIAESIAESIAESIAESIAESKAUBiqdSQGIWEiABEiABEiABEiABEiABEnC1VwRefoHw8PaHq5s74ORkr91kv0iABEiABEiABEiABEiABOyBwLlzyM3JRlZ6EjKS4yukR3Ynnlxc3eAbHImczDRkJMXh3Ln8CrlxVkoCJEACJEACJEACJEACJFC1CDg5O8PNwwsB4fWQEheNvNyccr1Bu5u2J8IpKy1RiycKp3Ida1ZGAiRAAiRAAiRAAiRAAlWawLn8fGRnpCk9kaQdMuV9s3YlnmSqnnic8pS7jUYCJEACJEACJEACJEACJEACl0JA9IToCtEX5Wl2JZ5kjVNuVkZ53h/rIgESIAESIAESIAESIAESqIYERFeIvihPsyvxJMEhOFWvPIeXdZEACZAACZAACZAACZBA9SQgukIHnyvH27cr8cSoeuU4sqyKBEiABEiABEiABEiABKo7gXKO2m1f4qm6Dy7vnwRIgARIgARIgARIgARIwG4JUDzZ7dCwYyRAAiRAAiRAAiRAAiRAAvZEgOLJnkaDfSEBEiABEiABEiABEiABErBbAhRPdjs07BgJkAAJkAAJkAAJkAAJkIA9EaB4sqfRYF9IgARIgARIgARIgARIgATslgDFk90ODTtGAiRAAiRAAiRAAiRAAiRgTwQonuxpNNgXEiABEiABEiABEiABEiABuyVA8WS3Q8OOkQAJkAAJkAAJkAAJkAAJ2BMBiid7Gg32hQRIgARIgARIgARIgARIwG4JUDzZ7dCwYyRAAiRAAiRAAiRAAiRAAvZEgOLJnkaDfSEBEiABEiABEiABEiABErBbAhRPdjs07BgJkAAJkAAJkAAJkAAJkIA9EaB4sqfRYF9IgARIgARIgARIgARIgATslgDFk90ODTtGAiRAAiRAAiRAAiRAAiRgTwQonuxpNNgXEiABEiABEiABEiABEiABuyVA8WS3Q8OOkQAJkAAJkAAJkAAJkAAJ2BMBiid7Gg32hQRIgARIgARIgARIgARIwG4JUDzZ7dCwYyRAAiRAAiRAAiRAAiRAAvZEgOLJnkaDfSEBEiABEiABEiABEiABErBbAq522zN2jARIgARIgARIgARIgARIwK4I1K7bEN379od8ltXWLVuA44cPIvrowbJWVWnl6XmqNNRsiARIgARIgARIgARIgAQcm0BU/YblIpyEQtfe/bUQcyQi1dLz5OQERAR4wsvNGTGJWcjIznOkMStTX53UzdeKCIeXlxeiY2KQkZFZpvpYmARIgARIgARIgARIoPoQEMFTnlYeHqzy7E9JdVUr8eTu6ox7+tXFxN5R8PZw0Wzyz53DlHmH8enfR0ti5dDX3d3d8cA9d+HOiRNQw9vbdO/5+Xhjyrv48NMv9HlUZG288+Zrhe5zxs+zIT+Xy5589CF07tgBTz33Ig4cPFRp3Qj0cUN8ak6ltceGrAl0bHI1BnYZZ52ozr5d+DqOnt5TKL2yEh4b9QmcnVzw5o93VlaTbIcESIAESIAESMBOCFQr8fT04Ia49YpIHI/PxDcrTiA5PQe1anriYGyanQxHxXXj+aefwG233oJjx0/gq2+mITE5GbVrRViJETc3NzSsX8/cCS8vT/j6+mLNuvXmtMtx0LxpE3Tv2hk+Pj6V1ryI7Eeva4A3/ziIzxYfq7R2q2pD7q6eeP+BJSXe3rNfDsPZ5FM6n7enL8ID65nLyLnUI5+X05pGdYSzs+nLl8vZD7ZNAiRAAiRAApVBQDxDjrQmqaKZVBvxFObngXE9IxGbnI1Bb/2D1MzcimZrN/WHhYViwrgxiI09g/6DhiElNdVm3w4dPoL23XuZr90yeiTefOXf5vPqdJCQloOs3HwkpVef50TG97PbWyPY1x2jPtyE3Lxz5TfkaqpsDU8/ZOdmYseh1UXWm5OXbb62YtuvkB/DJg15Ez1aXm+c8pMESIAESIAESKCCCXTr01+vSxLxNGvqJxXcmmNUX23EU9NaNSBrnZbtPluthJM8hi2aNlX37oTFy5YXKZwc43GtvF7+sCYGM9adRF5+OQqIyuv+JbfUoraP9sY6Qf2xoPzvPTktHu/Muv+S+8eCJEACJEACJEACJHA5CVRp8eTl7gKf82ubGoXV0JzTVXCIEPXNumE56uU4UXkZLM3F2QmBNdy05yE5w+R58PF0RatIX/XNeT72xKRC6rFlQT7uaBTmjcNn0rWXq2AeWXfl7+WKFOX5Usut0DrKF/Gq/UOx6XB1cUL7uv667l3RKfp6wfKlPddT7s5Pc2vUqIEulpaejtCQYHMVOTm5SEhMNJ+X5cDFxQV1oiL1VMAzZ+Jw6MhR5ORYcy1Yv/SxQf168Pfzx9FjxxBz8pS654t7YQ8JDtLCMCk5BVlZWQWbKPW5MeYFC6SpcU7PKjzWAer5cFGC9GxqNiIDPdWPF7YcTUJmTj5qq6mgdYK9sPdkqtWaKW/1PNZQz2Oi8mbl5OWr56QGQvzc9fMknq6STMo3V+JG8srzVRwqX/W8eqqAKPJsGQJQ2gv398CJhAwcOZNhbk7uxU0982LCQUz6laOedcOMPhvn9v4p0/vCA+vCx8sfcUkxOJMYraRg8c+Wu5snItQ0QfGQnU44jng1fbCkMpYcXJxdVXsBOik5PV6NzwV+lvl4TAIkQAIkQAIk4LgEqrR4url7LTw7pJHV6Iy/MhLyY9iOEykY8vYG41R/RgR4YNnk7liqvFRP/7QH745tiU4N/M0vli/N3o9pas2Upck39lPGtECTCJNIk2vHzmbgyR/3YP3BCwKlZ5Oa+PKONtqr0b9VMOTFVewTFbDi2jahqBfipc+X7DqLO77cpo8v5dfYm0fhxWefsio6cfw4yI9h23bsxLVDRhinl/w5YtgQPPP4I5DpgYadiTuLKe99iOnf/2gkmT9dldB67OEHdF+8vU33Kxd37d6D5/79Ctautx4Pc8ECB48+eB8eeeBebNi0GWPG34FLl05Ag1Bv/PlElwItAO//dQTv/XW4UPrUO9vqsZq7ORaj1XMmdkKtpZu94RTuu6ae9nKKwJYxXHfANP7y3D12fQO89vsBDO4QhpZKjBu2Zn8C7pu2s5CQl+s11TPyxuhm6NM8yPwMivh+a+4hfLsq2qjC6vP5YY0xvHM4hr27EW2UQH9wQH1IAAyxRLXWr+Pkleb8ci8i4i1txXPdLU8x5uPN5vuwumBnJ64ubhje6z4M6DxWr48yunc8dh+mLXgVe479YySZP13U+qUbe92P/qqMh9uF5/FY7F5M12VKfh7dXD3w8IgP0LpBTyz451tMX1g48Iq5QR6QAAmQAAmQAAk4LAFXh+15KTq+fE+8elHcrXN2aRCAkV0jsFiJkvlbY82li/vGX16oZz3YUYU0d8HCHXF6/Uuwr5v2FJgrUAcd6/tj+qR22hPw0aKj2HE8BU2ViJrYJwrfqvR7/7cDC7fHWRZB72aBeF0FIwhVXrBHVGCCSVfXxU9rT+oXdQlW0LdFEDqpejccTrIqV9qTZctX4qHEp3X2bl06YfTIG7Fo8VL8Mf8vcxXxCQnm40s9GD7kBrz31us4eOgw3njyWR3+vFmTJrj37n/h9Zdf0J6tP+b9aVX9888+qYWTiKTvf5qppxJ269wJt48fi+lffY7rh43EvgMHrcoUPBHRJD9btm3H2NvuhHjVymLiffx62XFzFU0jfCBCtzgT746z8tQ8OH0n7uxbR4uhm9Qz9pQS3HWV50nGUYTUugNbrKp56oZGWLkvHo99v1sLo6Edw9C9cU38cE97XK/W40kESMP8lJdyzqOdVWh9D/zyzykt6GVN0pgetfHSjU0QFeSlxZiRv+DnE0qsSd2bjiSpZ1+8m87ae2qZT8ShCDSxZwc30oJevjTItZiyePB02fhatleRx+MHTEafdiOw/dAqLN48A9k5mWhWtzOu7TIej4z8EJO/HoFY5VWytDFXP6GF055jG7B0yyxkZKWiaZ1O6N/pFjw26lO88M0oRMcV/Ty6urjjoRHva+EkbVI4WdLlMQmQAAmQAAlULQJVWjwdOJ0G+RGT6UginmTKnbyElsbqqBfTeUpoPfHDniL3gpJ1VM8NbQwPNR1v7CdbIB4EsQXbz+DvnXGY/VAn5f1qrNZaxVu9tM5SfZip1tSIjVKei1A1Teq5WXv1FCt/b1e8OLwJ6ivxdqniScSHIUBkSp2Ip1179mLmL7/qNsvr1+23jlWBBfIw7va7cPS46aV05eq1EK/W7J++xc2qXUvxJH0ZNWI4RLiNvvV289S+BYsW4+Tp09pbNvLGYXjljbeK7OLD998D8Trt3LUHYybcUS7ruM6kZOOV3w6Y2xzdrVaJ4kkyT55pGjMZ/zdvbo7v1VqpWetN4yqez/ohprDw5orVwZ/bzuD+aTvM0+5kfdV397RD2zp+uLZtCOZuuSDu7+tfTwunDxccwTt/XvCA/ao8XL+oZ+u2XpHqOYpRz7ltcdO2rh9u+XgL1h4oWiiLl9OwhwfW1+Jp9obTemqhkV5en+IZqh/R0mZ1x1T48bz8PJvXSpPo5aEEb6sbcCr+KKbMmGSua9uhlcjKzsCI3veja7MBmLPmS3N1EnK8V1sVRCU9AW/8cId6lk3TJzftX4KElNO4pd+TuLLNEPy4+G1zGcsDEU4Pj/wAbRpcoYNbTJ1fPQOsWDLhMQmQAAmQAAlUZQJVWjyVdeBkepNMuytuE93WUX56ytNqJZoM4WS0uys6VYsvmaJ1hfJiiNfLsHMW3+pnqXUyEtnMWJsi62bEZM2KvdugG0fZ7KJMpctX+0hJmHFLkzVNuWqtlew7FRhYE6dPXxAK07//CeIxS0ktOnT8g/dOwmMP3Y+9+w9o8ZWUlGxZfaUfG04iicwnJmNpmIyjrTFcdzDBLJwkrzxfn/59DJ/c1goD2lwQTyLMb1YiTqboFQyXnqTW4n2x5Bheuamp+lKgVpHep0+UJ7Q44WT0tbI+A3xC8O/bZths7r73eiEp7cLfiM1MxSSKx+j2NzvYzLH3+EadHhla4HlUq5py83Lh5uoOX6+aSEi98Dwu3jRDe7CkXlsmQlA8TiKcVu+ciy/mPndRa6Rs1ck0EiABEiABEiAB+yZA8VTM+BxWi+ptBQuwLNJQeYfENhYxvU7SRTw1VIv1LcWTZR2Ofiz7Q10/sD86dmiH8LAw+NQwrfuSCH+ubtaPmAgqWQv18gvPYvnCeZirphGuXrsOy1et0aHUDW+ZLSa3jbsFI4YN1qLs9rvu1d4rW/kcMU2CTYhJ8AnDJLiDbOYsa+ZsBSgxvJISoKQokzV99mSpGUmYuew9m13KyCpaNNssUESiBIno2Wowagc3RIBvKNyUyPFWQSDEXFVQB0uToA6zV3yEcf2fwZt3/4H1exZg15H12HlkDRJTzxQ5XU+iEU4a/AbaNrxSBaM4gc/nPM0AEZZgeUwCJEACJEACVZSA9ZtEFb3JirwtecEVi1PTvmyZkS5rVqqi1a1TBz//8D9EhIdjv5oqeOjIEZw8VXzUvK+nfYvde/finrvuwLDBg/Q0PmEj3qq33v0AK5SQsmUinLKzs7XXavJTj+Nf9zygXlgvrA+yVcZR0s6mmqaLyXomw8IDTEIqTkX0s2VGuvEM2spjb2mZ2WlYvOmnCutWhyZX4d6h/1WCyR0HY7briHnJyptlTMez1fCCDd/hmAooMaj7RL2PVK82w3S2/Se24OcVH2Ln4cLPowSI6NJ8gKo3GyEBkejXcQz++me6reqZRgIkQAIkQAIkUIUIUDyVcTCjEzJ1DbJmyZZJyGexaBWJrSrax++9hZCQEEy48x4s/HuJ1S2OGD7U6tzyZM26fyA/np6e6Nq5I/pd1UetjxqB76d+iduUV0mCWxS03WrNllz75rOPcG3/fnjgnrvx3kdVY8M2QzTFJl2IGRhz/pkJVRs82zIj5L7xDNrKU53SJEy4CKeU9ES8/v1EtfbpiPn2m0S2R7tGvc3nBQ8kCp/8SIjzplEd0K5xH/RpeyOeHP053pl5HzYfWFawCFbtmIM/1nyFF8Z/h5uvflwJsD3YfbRwNL9CBZlAAiRAAiRAAiTgsATsf1GNnaM1AlJ0aRhgs6dG+v7zgStsZnLQRF9fX7Rp1RIiagoKJ5myZ9oxyPrmmjZuhPFjb0a7Nq31hczMTCxbsQrPvfSK9iQ5OztjnAqzbsuenPwijp+IxsRJDyBZ7ev02EP34eq+Rb8Q26rDXtMksqLY0bMXRPbp5Cy93qlFLR9IZL+C1vX8M1dUsIiC+Utznp1r8uS5u9oavdLUcPnyNI5sp8XP+t1/WQkn6ZGTk+1/6mqHNFJeo5vRIKKV7nh2bia2H16tQ5S/9/ODulzfDoWfx5zcLHw25xmcOLMfn//xrApI44L7h72NIL+IyweALZMACZAACZAACVQ4AdtvFBXebNVpQIJCyJqUzioUej+1b5Olta/njwGtQ3QktFX7io52ZlnGkY7z1EJ7mTYXVbs2REhZmkTDk8h6IoYsLSDAH6++9Dxefv5ZuLpaC4LUNNOal4yMDMsi5uM8tV5KTDbUve+Rx/XmuB+981/Ur1fXnMcRDro2rKn3gTL6Khvn3q1C1Yv9ttE6EuTU5Sf0uqcHB9bT141f4qm6Q4VHl02bf1hte68nI+/FfB6NM0Xta6ei9DmaGVPz6oQ1teq6bH47uOedOq2giPLx9IeEN5c1T7LJraXJFEOx7JzCz6NsnmtsgvvPnoWYu/Yr+HoH6gASMqWPRgIkQAIkQAIkUDUJWL8tVM17rPC7evnX/fj+3vb4eEIrtVdTDGSRfuPwGpBw17JXzku/7DNH0qvwzpShAQn28OyTj5prqF/X9EJ/3YBrUK9uHXP6Cy+/poM1pKdnYO6fCzD4+msx/9eZmDN3vs7Tt08vNG/WFHkqhLmfElUiouRYbP2GTZj310JInb/N/B6//DoHScnJaNSwAW4dM1qtIcnD9B9sR2PTFZz/9feSZXjng4/1Xk9fq2l8NwwfBUN8WeYr7XGYWrv25KCG5uyyT5OYRL8zjuVcxrq4vcEkT0km4chl/6+5W87AX+3jJAFFZHNl2UxX9iaztM8XH9Phy2/rFaX64a1C3p/Vm93e2DlCB5eYMu8QjpfjlND5Kox6b7UZ7ztjW+C7VTF6Q93aKojFZrVP1PytZyy7VuHHLet3R6/WF6Z+NlGeJbEhPe5SU+pMmzsnp8fju0Vv6PR9xzfpPZxa1uuGp2/5Rk2hW4caShx1VWuTfL1Ne3bJ1D5LkzIb9i5Cp6b98LyafidT8dIzU1ArqD6uUh4nCZ0uezeVZDOWvIf64a3Qol5XTLzuRXz6u2mPtZLK8ToJkAAJkAAJkIBjEaB4KofxEu/TDWpz01dHNcOILhF6A1MJPb79eDImz9pXaFPdcmiyQqrw9/OFbHpb0JqpcOPyY9gbU941R7p7/OnnkJySoveReuDeu3WWXbv3YPS42/CfFybrcq3V1L4tW7fpa+Kpuu/hx3Hn7ePxL/Xz7+efMarVed58532sWrPWnFbcgYgnmf53lRJr76qNessSQEI2ox2iNqstaLLZsfwYJmKlrOJJQow3U1Px/q02uZVw5BLSfLbat0n2jCpoEmVv2DsbMVntJSai6yq1ebLY0bgM3P+/nToUfsEyZTmXPaoaqL2pZIPnBwbU01Xl5OUj/nxAi7LUfbFlIwLroUerQYWKiagyLC4p2iyespSH6L8/3Y3bBj6vRUyLul20d2jLgeWYvfJjvDThR7XHVAvI3k7550xiXjxIH//2BAZ2uVVtpHsrxl1zQfRIwImfl72vou+tM5or8lPq+/DXx/Dy7TN1pL/DJ3cxgESRtHiBBEiABEiABByXgFNwrSjTIgc7uIfgOs2QHGvaaNUOunNJXXB1cYJsrisBIoy9fy6pIgcrJOHKxTuVkpKKU2qz29JaUGAggtR+T9ExJ5GWbnuj19LWZe/5JqmpeY9d3wAvKk/k9JXRejPaYB93HFFT5URsl2QitCIDvZCs9h+TfZ4q0rzcXRAV5Kn7dUI9yzI90JFMNsyV9Uey0W1aZun3ApOpd37KS3U2+SQys6v28+hI48m+kgAJkAAJXB4C3fr0R9fe/RF99CBmTf1Ed+LBF94q986899Jj5V6nUaFfaBTiju0xTsv8Sc9TmRFaVyAvwYdiq99LV05Ojg5Vbk2j5LOz8fGQn+poiWk5kJ/SmkRlP3628Pqb0pa/mHyyce++k+Wz79LFtFteeWVjWwnmcLGWoqYByg+NBEiABEiABEiABGwRsF7NbysH00iABEiABEiABEiABEiABEiABEDxxIeABEiABEiABEiABEiABEiABEpBgNP2SgGJWUigPAjM2XwaW48l49CZ6jetszz4sQ4SIAESIAESIIHLT0DWP9WueyFC8eXvUeX2gJ6nyuXN1qoxAQm8sHp/Ak4lZlVjCrx1EiABEiABEiABRyawZsmCcu3+umXlW1+5ds5GZfQ82YDCJBIgARIgARIgARIgARIggcIExPMk0fEkEl9Z7fjhgzqSX1nrqczyFE+VSZttkQAJkAAJkAAJkAAJkEAVILB2qWN5jMoLOcVTeZFkPSRAAiRAAiRAAiRAAiRQRQmU1zon8Vw5slE8OfLose8kQAIkQAIkQAIkQAIkUEEEZFpd197QASJGTJhULq3IZruOLKAYMKJcHgNWQgIkQAIkQAIkQAIkQAJVi4CInPIO6BBV37Ej9dHzVLWecd4NCZAACZAACZAACZAACZQbAVnbVF3XN9mCSM+TLSpMIwESIAESIAESIAESIAESIIECBCieCgDhKQmQAAmQAAmQAAmQAAmQAAnYIkDxZIsK00iABEiABEiABEiABEiABEigAAGKpwJAeEoCJEACJEACJEACJEACJEACtghQPNmiwjQSIAESIAESIAESIAESIAESKECA4qkAEJ6SAAmQAAmQAAmQAAmQAAmQgC0CFE+2qDCNBEiABEiABEiABEiABEiABAoQoHgqAISnJEACJEACJEACJEACJEACJGCLQLXcJNfJCYgI8ISXmzNiErOQkZ1niw3TSIAESIAESIAESIAESIAESMBMoFqJJ3dXZ9zTry4m9o6Ct4eLhpB/7hymzDuMT/8+aobCg/Ih8OE7/0V4WBjGTLgD2dnZRVYaFBiIs/HxRV6/XBcCfdwQn5pzuZpnu+VIwNc7EA8MfxsxcYfwzZ//LrZmyZuSbn/PY7Gd5kUSIAESIAESIIFKIVCtxNPTgxvi1isicTw+E9+sOIHk9BzUqumJg7FplQK7ujXSoV0b1K1TB87ORc8OfeCeu/Dkow/h1Ten4KPPvrQbRCKyH72uAd784yA+W3zMbvrlqB0JDYjEv2+fadX9zOx0nI4/ih1H1mDhhu8g5xVlbi5uaFanM9xcPYttYnCPOzGyz4P4acnb+GPNV8Xm5UUSIAESIAESIIHqR6DaiKcwPw+M6xmJ2ORsDHrrH6Rm5la/0bbDO45PSERWVhYSk5LsqncJaTnIys1HUnr1ek4+u701gn3dMerDTcjNO1duY+Lk5Iwann5ISovDtkOrdL2ebt6oG94cN/V5CAM6j8OLU29GXFJ0ubV5KRWlZiQiJzcLaRn29Txeyr2wDAmQAAmQAAmQQPkTqDbiqWmtGpC1Tst2n6VwKv/n6JJr/PaHn/DDjFnIy7OvdWc/rInBjHUnkZdffgLikiFVYsEWtX20N9YJ6o8F5X/v0Wra3OdznjHfkYiqQd1ux019H8Z9w6YoATXafO1yHCzePANLt/yM/HP29TxeDhZskwRIgARIgARIoDCBKi2evNxd4HN+bVOjsBr67tNVcIgQ9c26YTnq5ThReRkszcXZCYE13LTnITnD5Hnw8XRFq0hfZCtvxJ6YVEg9tizIxx2Nwrxx+Ey69nIVzCPrrvy9XJGiPF9quRVaR/kiXrV/KDYdri5OaF/XX9e9KzpFXy9Y/mLPfX194eXpgfj4BOVJMPW5SaOGCA8Pw/ET0Th8xPZaLyelNBvUr4fAmjWxa/cepKUXP6VK8jdsUB/+fn7YvXcv0tMzbHbV1cUFgYE1C11LS0svsQ0pVDMgQPdL2jt0+AjiExIK1XUpCcaYFyybpsY5PavwWAeo58NF9eFsajYiAz3Vjxe2HE1CZk4+aqupoHWCvbD3ZKrVmilv9TzWUM9jovJm5eTlq+ekBkL83PXzJJ6ukkzKN1fiRvLK8yXPT1Hmq55XTxUQRZ4tQwBKe+H+HjiRkIEjZy6Mj9yLm3rmxYSDmPQrRz3rhhl9Ns7L6/PcuXzMWfMlure8Hg1rtYZfjUAkpxVeb+Sqpt3VCW2q7iUXJ84c0J/F9cHF2RX1lFcrW3mRYuIOFpnVxVn9G+FV+HnMykkv1TTCIL9whNWsg7TMFJxOOFqqMkV2hhdIgARIgARIgATsnkCVFk83d6+FZ4c0shqE8VdGQn4M23EiBUPe3mCc6s+IAA8sm9wdS5WX6umf9uDdsS3RqYG/+cXypdn7MU2tmbI0+cZ+ypgWaBJhEmly7djZDDz54x6sP5hoztqzSU18eUcb7dXo3yoY8uIq9okKWHFtm1DUC/HS50t2ncUdX27Tx2X59fLzz2Dk8KG4fthNaNumFR598D5IgAaxxMQktOzYrVD1N1x/LV55cbI5X35+Pv5esgwPP/EMEhIv3ItRsHvXzvj43SkIDQ3RSSLSprz7gfL0FV7rJAJr8Z9zjKLmz7ff/whT3vvQfF7wIDQkGP9+7hkMum6gqtf0gi95/lr0N57/96s4ER1TsMhFnTcI9cafT3QpVOb9v47gvb8OF0qfemdbPVZzN8ditHrOxE6otXSzN5zCfdfU015OEdgyhusOmJjJc/fY9Q3w2u8HMLhDGFoqMW7Ymv0JuG/azkJCXq7XVM/IG6OboU/zIPMzKOL7rbmH8O0q29Pcnh/WGMM7h2PYuxvRRgn0BwfUhwTAEEtUa/06Tl6pj+WX3IuIeEtb8Vx3y1OM+Xiz+T6sLpTTSbQSOFGhTVA7uKGVeBIRNPSKSRjU/Xb15YLpS4/cvGzMXz8Ns5a+b9NDJFMARylPlpurh+6dTMWbufQ9mz0ND6qP1//1W6Frs1d8jF9WfFQo3UgQoTeu/7Na8Blp0q9FG3/EjKXv6ql/Rjo/SYAESIAESIAEqg4B16pzK4XvZPmeePWiuFtf6NIgACO7RmCxEiXzt8aaMxf3jb+8UM96sKMKae6ChTvi9PqXYF837SkwV6AOOtb3x/RJ7bQn4KNFagH88RQ0VSJqYp8ofKvS7/3fDizcHmdZBL2bBeJ1FYwgVHnBHlGBCSZdXRc/rT2pX9QlWEHfFkHopOrdcDjJqtylnjzzxCPo2b0bNmzajEWLl8LV1VVFwCvs7bj7X7fjuacex/4DB/HGlHeRlJyCfn17awH2+6wfcNW1g5GTc6Fcu7Zt8OO0r7WgmfbdD9i8dTtatmiGu++4Hf7+foW6K+Lri6//Z05v1rQJruxp/aJuvnj+QLxV0776DK1btsCPM3/WQs5F9f8GJaSuH9gf9erWVeJwJDIyMgsWLfW5eB+/XnbcnL9phA9E6BZn4t1xVp6aB6fvxJ1962gxdJN6xp5Sgruu8jzJOIqQWndgi1U1T93QCCv3xeOx73drYTS0Yxi6N66JH+5pj+vVejyJAGmYn/JSznm0swqt74Ff/jmlBb2sSRrTozZeurEJooK8tBgz8hf8fEKJNal705Ek9eyLd9NZe08t84k4FIEm9uzgRlrQy5cGuRZTFg+eLt7zaFnfpRxHhjTSxRJSLvxtSsJDI95Hu0a9seXAMqza8YcSRO7o3XY4buh+BwJ8QqymAEr+gV1uxS39nlTR8hIwd+03eg1V87pdMGHgc3K5kKWmJ+JPJcQMiwppjJb1i38eJfjFE6O/gIuLqxZYR07uVB6zIFzTaYxu39vTF1/8Mdmokp8kQAIkQAIkQAJViECVFk8HTqdBfsRkOpKIJ5lyJy+hpbE66sV0nhJaT/ywp8i9oMQJ8tzQxvBQ0/HGfrIF4kEQW7D9DP7eGYfZD3VS3q/Gaq1VvNVL6yzVh5lqTY3YKOW5CFXTpJ6btVdPsfL3dsWLw5ugvhJv5SWe2rdti5G3TMDqtet0m7Z+1a9XF088/ICeDnft0BFmMfLHvD/1tL+77rgNN980AiKSDHv8ofu1EHv0qcla2Oj0n4Hf/piHn7+fBnf3C1Mk5VrsmTi8+MrrRnHcMnpkieKpVauWWjgtWLQY0o5hc+bOxzeffYT+/a5C9y5dsHjZcuPSRX+eScnGK78dMJcb3a1WieJJMk+eaRozGf83b26O79VaqVnrTeMqns/6Id7mOo2DP7edwf3Tdpin3cn6qu/uaYe2dfxwbdsQzN1yQUDc17+eFk4fLjiCd/684AH7VXm4flHP1m29ItVzFKOec9vipm1dP9zy8RasPVD09Ebxchr28MD6WjzN3nBaTy000ivqU6bNDb3iHkQq0bLv+CacUtH3DOvZ6gYtnFbtmINPf3/KSMZqdT553HRcoa7PUwLpxJn9+pqnuzeG9LxLTU9VY/nteIg3S2zZ1l9w5NQuLap0gsUvCWDx3aI3zCl9240oUTx1bjYAIpCknKXwWrf7T7x591xc0Xowpi94lVP4zFR5QAIkQAIkQAJVh0DheVVV597KfCcyvUmm3RW3iW7rKD895Wm1Ek2GcDIa3hWdqsVXlFoTc0UBL8Y5i2/1s9Q6GYlsZqxNkXUzYrJmpbzsg08+K1Y4STujRgyHh4cH3vvoE7NwMtr/9Ktv9KF4egwTz1KfXlfoKXMzfp5tJOvPTZu34uSp0olUq4I2Tow9okKCg7VQs8wiYqrvgEHYuMXau2OZpyKPDSeRROYTk7E0TMbR1hiuO5hgFk6SV56vT/8+posNaGOa+ignIsxvViJOpugVDJeepNbifbHk2PkvBUzTBnUFBX59ojyhxQmnAtkr/FSm5d0z5L/65+GRH+Ltexcq8XS3Wi90DB//9oRV+/06jtbnBafc5eXnYcGGbxUfZ3RscrW5TKv6PdT6pQCIiDGEk3Fx/e6/jMMyf4o4Ewv0DbeqS0KtvzR1DJ75Ypj6e861usYTEiABEiABEiCBqkGgSnueyjpEh9WielvBAizrbai8Q2Ibi5heJ+myvqWhWqwvUwYvl23bsbPEppurKXRiV/bsgdbK21PQZC1TnahIc3I9tYeT2NZt2yHroirKdu/Zi7nz/8L11w7AqsV/Yf5fC7FKedBWr1mnA0aUV9CIiup/aeqVYBNiEnzCMAnuIJs5y5o5WwFKDK+kBCgpymRNnz2Zj5c/WtTrqrskQSAkfPmuI+swZeY9yM7JNHdVov2JN0rSru063pxuHPjXCNaHoTUvPI+hAVE67UB02dcKGu3Y+ly9cy6u6jBK96tpnY7Ysn8pdh5Zi4Mx23A22eR1tFWOaSRAAiRAAiRAAo5PgOKpjGMoL7hicWraly0z0mXNir2bRNcTGzFsiP609SsoyBRsQq4ZASIqWrycU+6dSQ8+ihtV0Irbbr0Fd9x2K/51+3jk5uZinhJS/33nfT3V0FZ/HSXtbKppHZmsZzIsPMAkpOJURD9bZqQbz6CtPPaWtldNzXvtu9t0t7w8fPDuvYtUVLwWcHV2QzYuiCd/n2B4upuCr0gAiKLMz/vC8yhroMQkQERFWkp6vPIw3YwBXcbhytZDMLzXffonPSsFS1So899XfaG+dLEv0VqRPFg3CZAACZAACVQnAhRPZRzt6ATTC5+sWbJlEvJZLFpFYrN3Ox0bq8OAd+9zDY4dP1Fid0+eNE3LCwoKKjFvWTPIPlAyNVB+JHz6FT266ch7EjSiZ/euuG7oyDJH3CtrH8tS3hBNsUlZ5mpizj8zoX62hbcRct94Bs0FHeQgIysVf6npd8NUNL0Bncdi9spPzD2XgA+5eTl6U92HPuxnTi/uID7F9DxaCqri8pflmogjicgnPxKqXIJMSCCL67tNRNOojnh52q02IwGWpU2WJQESIAESIAESuPwEym9RzeW/l8vSAyMgRZeGATbbN9L3nw9cYTOTnSTuVPs5ifW+8opS9ejI0WN6ul7Hdm1VFDeXUpW5lEy9ruiB8WNvRnhYmC4unq7fVbCIO+99EB9//pUOqS5T+hzZJLKi2NGzF0T26eQsvd6pRS0fSGS/gtb1/DNXVLCIgvlLc56da4r05+6qFlxVgi3451sdWGGAipInnijDZD+nmLOHEOQXgVoqnHhp7OTZIzpbk6gOpcl+yXmubDNUT9szQvHLeq3Fm35SG/zejAPRW9CodjvUDWt2yfWzIAmQAAmQAAmQgP0SoHgq49hIUAhZk9JZhULvp/ZtsrT29fwxoHWIjoS2al/R0c4sy1zO4+9/nKmnwj3xyAMq/LdpPZPRH58aNTDl9f+gXZvWRhJS09IwR0XiCwsLxUQ1lc7SrlbhzSNr17ZMuuTjDkqcvfrS87hTTdUraNIHsbKEKS9YZ0Wfd21YUweDMNqRjXPvVqHqxX7baPKeGNemLj+h1z09OLCekaQ/xVN1hwqPLps2/7Da9l5PVgVKeXI0zhS1r52K0lcZJlPsFm/+Sa996t9prFWTizZ8r89vv+4l8xQ+I0OEElR3D34N/ipEuGE7j6zRa446Nb1G7b/UxkjWn9d0usXqvCwnV7QajNsGPo92Da+0qkY2/M3KztBpWbmmT6sMPCEBEiABEiABEnB4AoW/znb4W6r8G3j51/34/t72+HhCK7VXUwxkkX7j8BqQcNeyV85Lv+wzR9Kr/N6VvsW9+w/o9UNPP/4I/przC36Y8bPa7+kAGjdqpMKB90XtiAgsX7kaW1SACMNkc9urel+J559+Ah3bt8O27TvUPk/N0f/qvjD5MIycpk/xHj375KPmxPpqjyax6wZcYyXYXnj5NR0MQq5N/fZ73HTjUEio9MjatbB0xUpJ1u2NGD4Up06fxp8LFuq0S/0VptauPTmoobm47NMkJtHvjGM5l7Eubm8wyVOSSThy2f9r7pYz8Ff7OElAEdlcWTbTlb3JLO3zxcd0+PLbekWpfnirkPdn9Wa3N3aO0MElpsw7hOPlOCV0vgqj3lttxvvO2Bb4blWM3lC3tgpisVntEzV/6xnLrpXb8by1U3FNxzE6AMNf/0xXniiTIF665Wd0bNoPbZVIeWXiz1i18w8kpp7RG9N2UulZORl6f6WkNFMgFpnmJxvU3j34dTw15iusUYEdJIBD8zqd0axuZ5v9rekbhtF9HzFfCws0fWkg9ct0PMO+XfS63jtKzmcsfUeFSp+G+4a/jaWbZ+GwCoPurbxm7Rv30dP3JHhETNwhoyg/SYAESIAESIAEqhABiqdyGEzxPt2gNjd9dVQzjOgSoTcwldDj248nY/KsfYU21S2HJiusig8//QI7d+3B5Kcfx8TxY9UmsM5ISUnBP5s24/Gnn8eqNWut2j5w8BCGjByD96a8oQWQhDJPTEzCsy/+B8OHDNIb81oW8PfzVek3WCbpY9ksV34Mkw16jUAUUt/QUWPx+EMP6DqNKXoS4W/+gkV4/a139P5RRtlL+ZTNaIeozWoLmmx2LD+GiVgpq3iSEOPN1FS8f6tNbiUcuYQ0n632bZI9owqaRNkb9s5GTFZ7iYnoukptnix2NC4D9/9vpw6FX7BMWc5lj6oGam8q2eD5gQH1dFU5efmIPx/Qoix1F1VW9lqSvZj6dbwZ/ZWH6PfVn+us55T8njLjHrXx7Dhc22W8XhslFxJSTmPrgRVaxMQlxVhVu1ptpJubm40xaqPcvu1H6msnzx7Gf6bfiudunW6VV05kv6YerQYVSo8KVRsQqx/DZi57DykweY8PxmzHv/83FqOuegT9Ot0MZyfTlFUJVS77Pv28/EOjGD9JgARIgARIgASqGAGn4FpRthwEl+U2g+s0Q3Ls8cvSdnk16uriBNlcVwJEGHv/lFfdlV2Pl5cnIsLDYaxtKqn9gAB/yPS+E9HWL7QllbuY605KbdSuFQE3NzfdTk6OKUrdxdRxufJOUlPzHru+AV5UnsjpK6P1ZrTBPu44oqbKidguyURoRQZ6IVntPyb7PFWkebm7ICrIU/frhHqWZXrg5TZf75rwcPNCQcFUVL9kvVR2bqbZY1RUvrKkS7j1kIBIFVI9A/EpsWr/rsvPqSz3w7IkQAIkQAIkUNUI+IVGIe6YaV1/edwbPU/lQdGiDnkJPhRrWjdikeyQh7KO6NDhI6Xuu3iI5KciTcKWV6Q4q8i+F6w7MS0H8lNakw15j5+tnLU0snHvvpOm6XOl7V9F55MIfIb3pzRtVcaeSzJVUDxbNBIgARIgARIggepBgAEjqsc48y5JgARIgARIgARIgARIgATKSIDiqYwAWZwESIAESIAESIAESIAESKB6EOC0veoxzrxLOyAwZ7MKdHAsGYfOVI1pnXaAlF0gARIgARIgARIggUolQPFUqbjZWHUmIIEX5IdGAiRAAiRAAiRAAiTgmAQ4bc8xx429JgESIAESIAESIAESIAESqGQCFE+VDJzNkQAJkAAJkAAJkAAJkAAJOCYBiifHHDf2mgRIgARIgARIgARIgARIoJIJUDxVMnA2RwIkQAIkQAIkQAIkQAIk4JgEKJ4cc9zYaxIgARIgARIgARIgARIggUomQPFUycDZHAmQAAmQAAmQAAmQAAmQgGMSoHhyzHFjr0mABEiABEiABEiABEiABCqZAMVTJQNncyRAAiRAAiRAAiRAAiRAAo5JgOLJMceNvSYBEiABEiABEiABEiABEqhkAhRPlQyczZEACZAACZAACZAACZAACTgmAYonxxw39poESIAESIAESIAESIAESKCSCVA8VTJwNkcCJEACJEACJEACJEACJOCYBCieHHPc2GsSIAESIAESIAESIAESIIFKJkDxVMnA2RwJkAAJkAAJkAAJkAAJkIBjEqB4csxxY69JgARIgARIgARIgARIgAQqmQDFUyUDZ3MkQAIkQAIkQAIkQAIkQAKOSYDiyTHHjb0mARIgARIgARIgARIgARKoZAIUT5UMnM2RAAmQAAmQAAmQAAmQAAk4JgGKJ8ccN/aaBEiABEiABEiABEiABEigkglQPFUycDZHAiRAAiRAAiRAAiRAAiTgmAQonhxz3NhrEiABEiABEiABEiABEiCBSiZA8VTJwNkcCZAACZAACZAACZAACZCAYxKgeHLMcWOvSYAESIAESIAESIAESIAEKpkAxVMlA2dzJEACJEACJEACJEACJEACjkmA4skxx429JgESIAESIAESIAESIAESqGQCFE+VDJzNkQAJkAAJkAAJkAAJkAAJOCYBiifHHDf2mgRIgARIgARIgARIgARIoJIJUDxVMnA2RwIkQAIkQAIkQAIkQAIk4JgEKJ4cc9zYaxIgARIgARIgARIgARIggUomQPFUycDZHAmQAAmQAAmQAAmQAAmQgGMSoHhyzHFjr0mABEiABEiABEiABEiABCqZAMVTJQNncyRAAiRAAiRAAiRAAiRAAo5JgOLJMceNvSYBEiABEiABEiABEiABEqhkAhRPlQyczZEACZAACZAACZAACZAACTgmAYonxxw39poESIAESIAESIAESIAESKCSCVA8VTJwNkcCJEACJEACJEACJEACJOCYBCieHHPc2GsSIAESIAESIAESIAESIIFKJkDxVMnA2RwJkAAJkAAJkAAJkAAJkIBjEqB4csxxY69JgARIgARIgARIgARIgAQqmQDFUyUDZ3MkQAIkQAIkQAIkQAIkQAKOSYDiyTHHjb0mARIgARIgARIgARIgARKoZAIUT5UMnM2RAAmQAAmQAAmQAAmQAAk4JgGKJ8ccN/aaBEiABEiABEiABEiABEigkglQPFUycDZHAiRAAiRAAiRAAiRAAiTgmAQonhxz3NhrEiABEiABEiABEiABEiCBSiZA8VTJwNkcCZAACZAACZAACZAACZCAYxKgeHLMcWOvSYAESIAESIAESIAESIAEKpkAxVMlA2dzJEACJEACJEACJEACJEACjkmA4skxx429JgESIAESIAESIAESIAESqGQCFE+VDJzNkQAJkAAJkAAJkAAJkAAJOCYBiifHHDf2upIIBASHo36L9pXUGpspDwJRjVsipHbd8qiKdZAACZAACZAACZCAFQFXqzOekMBFEhh+5b1oXrdzoVKvfDuhUFplJYQH1sXE617Cgeht+GnJ25fcbM3QWrhy0M04fmDXJdfBgpVPwNPbB536DMLahb/g5JH9ld8BtkgCJEACJEACJFBlCVA8Vdmhvfgba1W/B+4bNqXYgmeTT+LZL4eb8wT4hiI8sJ753L9GEJycLq9D09O9BprV6YysnExzvy72wMPTGz2uHYn42BhsWfnXxRZn/stIYP/WdfAPDEGXfkOxeNbXSEk8exl7w6ZJgARIgARIgASqEgGKp6o0mmW8FxdnV9Tw9MPZ5FM4esq2tyUpPd6qla/nvWB1/v4DS1DTJ9QqzRFP2va8Bq5u7ti0bB7O5ec74i1U6z5vXbUI4XUboWOf67H012nVmgVvngRIgARIgARIoPwIUDyVH8sqU9Ouo+vw+Zxnqsz9XOyN+NUMRmSjFjiw/R+kpyRdbHHmtwMCOdmZ2L9lHVp27YPwOg1x6thBO+gVu0ACJEACJEACJODoBC7v/KpKpOfu6ok6oU3Rom4XhAZEwkn9Z8vE8+JfI1hfEk9Mw1qt0SSqA9zdPG1l12kyVc3Hy18fe3v4qiljnVA3rBmcnVyKLMML0F6uRrXboUlkezPzkrj4eAVAyjSObAdf75olZS903cPNS7dVXNlGbbrockf3bitUvrITvN394Odleh6l7Zo1ItA4vCvC/Our56v4P183Fw/UrtlU5e+CIF/bz7yri7uuX/LKT4PQDgj1q6dvU57/BqEdERnYosi/F8no6eaj8wX7RhWbT1daib+O7d+Bc+fOoVHrwmvyKrEbbIoESIAESIAESKAKEajynidXFzcM73UfBnQeCxFQhh2P3YdpC17FnmP/GEn681615qe1Wvvz8W+P45Z+T5pf6vPy8/D3xh/w3aI3kX8uz6rMu/f9jRNn9mPjvr9xQ49/mdvJzE7H1D9fxqodv1vlr+4nNX3DFNsn0LX5QCsUm/cvxf/++o+aNnjSKl1ORNCO6/80ujQfYPWCvmnfYkxf+BrikmIKlSmYEOxfG8+OnYpAvzB89OvjWL/b9lqmWvWaIC05AUlnYwtWUenn4658E81rX4GXfr4GN3Z5Bq2i+pr7EJOwD9NXPImTidZBEVyc3XBtu3vRu/k4LYiMApL/l/Wv4sDpDUYSmkR0w51XfYy1B35B66irUMMjQF9btP0LtK3bHyF+pqh1u04sx+eL7zGXkwMfz5q4qdsLaF3navOYpGUlYta6l7H5iG22VhVU8ElGWgriT0eryHv14ObugZzsrApukdWTAAmQAAmQAAlUdQJVXjyNHzAZfdqNwPZDq7B48wxkqyACzVR0uGu7jMcjIz/E5K9HIDbheKFxvnvw61i6eRb2HN+AiMD6uKrDTeivBJiLi6sWRAUL1A1vrjxaUZiz+gvEJp5QHqs2uLrDKNw9+DXk5mVj3e4/Cxa5qPPmV49HQESjYssc3jAXp/asLTbP5b4oAvbxUZ8iMrQxFmz4DtsOroB4P7q3vE6LqUC/cLw4dbRilmPuqouzCx4b9QnqhbfAsq2/YMuBZRCviIivzs2uQVjNOnh+6ig9tuZCBQ6C/Wsp4fQNglT9n6kpiUUJJ/+gULh7euH0icMFari8p/f2/xpnU0/gx9XPK/Ger4TNNWgZ2RvjrnwDb/0xQqcZPRzZdTK6Nb4Re2JWYfW+mcjJy0TDsE7o22I87rjqQ5V/JOJSrJ/55rWuwO8bpygvVAiub/8A+rX+F9bu/xl/bv0Y16jjFpG9tFfqUOwm3Yx4xB4bNEvnX7Hne+w/uV6tdQvHVS1uw/heU5Ro88L6g78aXbpsn/Gx0QgKj0RwRB2cPGotMi9bp9gwCZAACZAACZCAwxKo0uLJy8MHPVvdgFPxRzFlxiSI90hs26GVyMrOwIje96NrswGYs+bLQgP47cLXsXDD9+b0ldt/w8sTZ2kh9vuqzxGfctp8TQ7yVVCBV7+bgKOn9+j01Tv+0F6tB4a/i2FXTNIv6+dwzqrMxZyENuqE8KZdiy1y9uiOchFPMjWufkTLQm1l52Yh+syBQukXk9BcTZusFdwQK7f9hunK82eYeO2k3Zb1ummRdCB6q3FJn4tw2rR/Cb6c+5w5XQTpw0oAd2jcF81VdL2tSojZMpNwmoogJaC+mvu88gTOsZVNp9UMidCfyXbgdbLs5N6Y1ZipPDqG/XPwNzxy/Y+ICmqJSPVzLG67viRT6Do2GIQzyUfx+d/3mL2ku6NXIjs3A9e1ux/t6g7Aoh3Wz7wInXUHZus6ujcZAX8lomasfUmLMi8llEZ0fVZ7oQzxNLjTYwjwDsOPa17QIsvo15YjC/Ds0D9UO/dh05F5+osD49rl+EyOj9PNBgSHUTxdjgFgmyRAAiRAAiRQxQhUafGUkZWK29/sYHPI9h7fqNMjQ5vYvL7r6HqrdPEmyQu/eJ/aq5f1vzf9aHU9PTPZLJyMC//sWQiZHhil2ogIro+YuEPGpYv+XPbZ/Rdd5lILtG/UG/JT0GLOHsaTnw0qmHxR51sPLseE19vYLCNjIuIpKqSx2qPpgnjKyc3W+WVtmXic8vJzzeVFTPl5ByIx9Yw5zfJAPE0yVU+m7MkUSvFcFWcSolwsKyujuGyVfm3Vvp+s2hQhvv/Uei2eZGqdIZ4yc1Lx+HcdrfIaJ4dOm575iJqNjSTzp3izDBNPqXzRYKSJ50rMzcU07VXWRnVpOBRnU05YCSfJk5xxBhsPz0OPJiNRJ6gVDLEl1y6HZWWm62Y9vGpcjubZJgmQAAmQAAmQQBUjUKXFkzFWEsyhZ6vBqK08HrIvkZtaB+WtAkOIuaqX8dLagZit6I+xCAmoVdoiWgSIeApRL+9lEU+lbrAcMopwWaE8bQVNBGJ5mewNJVP1hIu/T7AOfhCiAnmIuajxsTQRoOv3LECXZv3x1qT52LB3ESQi4G4lcFPSE/SPZX7jWDxZT978pRZOsu6soOA18ll+unuZxFNO1qXvEWVZX0UeZ2SbxsPLzbdQM94e/ujc4AYVWKIh/L1D9dRII58I0LJYeEBDPV7553IxrPNThaqKCGik0yRIxeUWT8Y4epwf10KdZQIJkAAJkAAJkAAJXASBsr1FXURDlytrhyZX4d6h/1WCyR0HY7YjXu1hlJx21mpNTWn7lpKeqLP6nY/GV5pyyef3RfJTXpOyWHizbvDyL37/pLNHtiP5dNnX6pyMP4LFm6w9HWXpe8GyN/V9GIO6T9RrlA5Gb0NiWhxy1JRAETsc8P7BAABAAElEQVS2TLwsH81+DFta34BrOo3BgC7jMLDLrdoDJd69n5d/qKZmHilUVCIlisn6KVkfJdMw5Rmo6iaBH27t9V/1xYAbjqrpfInpp5CaGY88zwvryMrCIOR8ND757H3+2FZ9vp6BtpIrNU2i7dFIgARIgARIgARIoLwIVGnxJC/jIpxE9Lz+/USrF2wJj93OxtS04sD61TC9DCamxBaXzeqaTDUTu5gyVhWcP2na+5YS1zxtnj2lXMSTrfbLK61tw164ofsdet3ZxyriXZqFN2tIz7v0+iZbbUmEwxXbftU/EmZcpvd1UevVurYYqI674vlvRhWKuCeiS6bqZamohxIA5MEb38NzX49EkhLPRVlWRpq+JNHZHNEkWp4Ip7TMBHy08A619umI+Tbqh7bXgR/MCZd4kJxuev7/Ofg7vltl3/uBGeOYlWGavneJt8xiJEACJEACJEACJKAJVGnxJHsBSXQ3iaxW0DPhVMIeObaej6aRHXTyaRvR+Wzll7QmRplE6+hmReUvKn3rnPex+2/TVMOi8qTGla2Nouotz3QRPWKLVNh3S+EkaU5OtvfeaqVCx4cH1lWh4BcjQQXqkKl6a3fN1z+j+j6ivVgypW/euqlSjdl2HF5j9qBJ9EPxWkkAj1e/u81q3ZS5gDowXrKNtU+W1xzhuF5IO+Vl9cCWo39ZCSfpuxOK3xeqtPcnIc/FZP8oCYuel18+Hq3Stn8x+YzpeoYovpiyzEsCJEACJEACJEACBQmUz9tUwVrt5NwId10nrKlVj2TD28E979RpRYko2UzX0moFN0APFbkvKydDvcQvsrykj2UNVd2w5lbpss5KyskaIlvh0K0yl3CSGLMfsQc2FvuTnlh6j1gJzVXY5dzzL9qyibClyXonCSkvVlBENardBhJyXqbqFbTMbJOnKEuFoC9o+eejK0r6d4vewL4Tm/WGx7JfVFGWcMa0x5RfUEhRWew63RAytdTmuJYmXyJIyHGxsoqodLXWauPhuQioEY4bOjxs3uPJaE/2ohra6XEd3MNIu1yffoGmcUw4c+pydYHtkgAJkAAJkAAJVCECVdrztO/4Ji1axNvx9C3fqAAD61DD01+tfxkAmfolVtQ6m3HXPK2nkO07vhkRQXXRq81weLp745cVHyE1I6nQIyB7ET2j9hH6W60VEqEk6216tR2mo5bNWv5BofxVJaF/p1v0nlbG/dQ4H4hj0uA3jCS9V9aSzTP1+dqd89QeW7di2JX36P2zYs4e0vs0yea3wlDM18s0NvpE/RIv1ZWth+K6rhNU8Idaes8uudaodltc0XqI9kZJEIniTCL0ffDLw/iPCjd/dYfROHxyp83Ie8nxZ7T3yQhZXlyd9nhNAjTIHk6y+a3sDXVAReST4BESntzYANf4LEv/Z//zut73qU+LW1XEvxbYeWKpis53Tqe1VuLp8JktcFOCLS87tSzNlLlsYGgtnFPbCMSdPFbmulgBCZAACZAACZAACVRp8SReov/+dDduG/g8Wqh1MeJNOqdCMm85sByzV36Mlyb8qPYzaqEih7mY98MxHonpC19Dvw43K9E0TCfJVLEfF7+NuWu/MrJYfcp1qVP2dPJVobPFJLz5N/Nfwk41fayqWtM6nXQUvIL316PVhZDmIlwM8XQsdi/emXk/bh3wrPLkmfLIxsVLt8zCoZM79NqkBucDPRh1ilh9efo43NjrPl1GpuiJyVhu2Ps3Zix9V61jijOyF/kp4czfVwLqGSWkJwx8DifUnlUHY7YVyh9zZB/qN28H2TA3yc72eyrU2QIJspfTZ39Pwk3dnlPT6rrqqXXCaVf0crXh7Sd45LoftNhxVtNWjVDkBaoo1WmqWlP1xpxhGNLxMS3MZBNeWWN2OvEglu2ejrmb31eb82aVqq6KyiSbHQeFRSI2+jByc0zh7iuqLdZLAiRAAiRAAiRQPQg4BdeKsptwVMF1miE5tmLW7ciGuUF+EdpLUXCtjeVQP3HzF2it1tg89cUQvSGs7BPkqiL1nU4o+pvrb57cAtlT6p53r9DeE5mClqmCFBS195Ble9X5WIJpiOfvTGK02sC18LQ7W2yc1CSxIP8INSZuOkCEMTXTVt5LTfOrGYx+N/0LB3dswNZVC21WE+bfAE8P+d3mNcvED/6agIOnN+ik8b2moH29AZaXCx3L3k0fLbi9UPqlJMiGuTVrRCAp/TRkql1FWmCNWsjKTUdalikiZcG2ejYdhZFdL2xwXPC6nIv4eniaKUKinP/npuXwKSFi3/wtH+GvbZ9I9kLWsFUntO15DVbO/RGxJ8oehbJQA0wgARIgARIgARKwewJ+oVGIO7an3PpZpT1PlpRE3Jw4s98yqVTHZ1Vo84sx2Vz0VPzRiylSbfNK1LviIt/ZAiMv2HFJMbYulVtackIcjh/YhXrN2mHvljXITCs89UxEwpJdU0tsU8KEG7bzxBIVNty0pspIK/gZl1y0SC+Yt6Rz2TD3ZOLFP/Ml1Wvrenxa8WMSHb+nRF4Fo4qv3PsjPNxM+27ZalPSjqjpgbbMxdUNTdp1U9P1jlM42QLENBIgARIgARIggUsiUG3E0yXRYaFqS2DrqgUIrV0XnfoMwqp5P6kpgtYOWtk36bcNb10Unw2H/oD8VEc7cmarEjpbL+rW/9z68UXlt8zctkc/uHt4YsWyuZbJPCYBEiABEiABEiCBMhFwLlNpFiaBKkogOzMDq+fPRGBYbT31q4reZpW8LfE41WnaBmsX/ILUpIQqeY+8KRIgARIgARIggctDoNqseSotXgk37uPlr8OLS8CJ0pgEo5Cw2HuOmda2lKYM8zgGAQkaIRHbDu+2PT3MMe6ievUysmFzZKSl4OypE9Xrxnm3JEACJEACJEAChQiU95oniqdCiJlAAiRAAiRAAiRAAiRAAiRQFQiUt3jitL2q8FTwHkiABEiABEiABEiABEiABCqcAMVThSNmAyRAAiRAAiRAAiRAAiRAAlWBAMVTVRhF3gMJkAAJkAAJkAAJkAAJkECFE6B4qnDEbIAESIAESIAESIAESIAESKAqEKB4qgqjyHsgARIgARIgARIgARIgARKocAIUTxWOmA2QAAmQAAmQAAmQAAmQAAlUBQIUT1VhFHkPJEACJEACJEACJEACJEACFU6A4qnCEbMBEiABEiABEiABEiABEiCBqkCA4qkqjCLvgQRIgARIgARIgARIgARIoMIJUDxVOGI2QAIkQAIkQAIkQAIkQAIkUBUIUDxVhVHkPZAACZAACZAACZAACZAACVQ4AYqnCkfMBkiABEiABEiABEiABEiABKoCAYqnqjCKvAcSIAESIAESIAESIAESIIEKJ0DxVOGI2QAJkAAJkAAJkAAJkAAJkEBVIEDxVBVGkffg0AQCgsNRv0V7h74Hdp4ESKBqE3Bydkab7lfD1dWtat8o744ESIAESiBA8VQCoLJenjTkTTw7dipcXdyLrcrXO7DY67xYPgSEs4zHbQOfL7HCyhiTmqG10GvwLRABZctGX/WI7m9oQKSty9UmzatdUwQ/Mg6uofb9d1Lz9qG6n06uLsWOjbO3J6BeRivKgiaNhN+QPhVVPeutBAJOLm5w9Q6o8JZcPGpA2irJ3Nw9UKtBM/S47ia4uLiWlJ3XSYAESKDKEuC/gBU8tI1qtUFozSg4OxX9ojS4x50Y2edB/LTkbfyx5qsK7tHlrb5nq8EY1/9pq06kpCfgZPwRrN05F2t2zce5c/lW18vzxE29JDSr0xlururltRirjDHx8PRGj2tHIj42BltW/mWzN1GhTXV/Pdy9bV6vLonOAb7waFwHTu4lv+RdTibu9WrBNaQm4ORUZDfcG0UhRAnBzF2HcPbDH4vMV5YL7g2joP6QylIFy5YzgYCmfeDXoAc8g+oiNzMFh2Y9ZrMFyRd+xR3wDK6vHiNn5GWlImH3Ipxc/hly0xOtytS++iEEtb7OKs3Wyak1/0Psuu+sLgV3uBGhnW6CR2AUzuXnIeP0fkQv+QCpxzZb5TNOsjMzsHreT+g7fALaXTkAG5fONS7xkwRIgASqFQGKJzsY7tSMROTkZiEtI8kOelOxXXBzdUcNTz8cPb0Hx2L3Ql4xfb1ronHttmjfqDeu6jAKr38/Ebl5ORXbkRJqr4wxadvzGri6uWPTsnnq5aXiBGMJt1qmyzJmQ664Gyu2/Ya/N1WMEJAOOp0XI/mZWWXqrz0UPpeVg3NZ2chPSa/Q7uRnZFdo/VWl8odHfAB/n2C8PG0c8vJzy/223P3DETXgSSWcuum687PTkbh3ic12QruMQe2r7kdO2lkldr5XwikFPlHtEdxuKGrUaom9/5uIcxb/NuYkn0T6qT0265JEEWpuvqHIToy2ylP7qgcQ2uVmZKl0acdZeZ8CWw5Ao9Ef4PDsZ5C0f7lVfuMkOSEO+7asRfNOV+LEwT04ffygcYmfJEACJFBtCFA82cFQL948A0u3/Iz8c3l20JvK6cLGvYswe+Un5sY8lWflrhteQ6em/TCi9/34cfHb5muX46Cix8SvZjAiG7XAge3/ID3FcUWzTG1sqLyru46sq5RhOpfh+OIp5/gpxDw6BeoPvuKYKbF5rgoIzYoDdKHmuuHNEeQXYRboF66U/cjZ3QuNRr2nvDt1kLRvufbsZCWcsFmxW40g1Op9N3LT4rHnq7FmL9PpNdNQ57pnEdRmkPIyXY+4Lb+ay8f+8xPkx5aJ16r5XTO0QEpUbRsmgiqk8yhkxR/D3mkTkZeZqi+d3ToHTcZ9htp970XSgZXKc2n7C539W9ehYetOaNH5SoonAyo/SYAEqhWBaiGevD181TQtD6RmJKhvFk0CpXZwQ9T0DUNcUjROxR+1OeiuaopXHTVtSr6NPHHmQInfSjopP0pEUD14e/rjuPKqZOVk2KzXxdkFPl5qak8By8pJR6b6VrIk8/EKQHhgPT0zSPou094c3eS+v5r3Ajo2vVp5oPoWKZ4udkxcnF1RT70cZSvPXkxc0d+SlnVMgvzCEVazDtLUdJzTCUdLHMdGbbroITu6d9tFDV2gembD1TOWmBKrnttjJQpumTJa0ydUe/ky1PSfkszdzRMR6tkS7+DphOOITz6Fc+o/S5P1e3JdzNvTV3/KtEL/GsH6WH7l5eeov7fyF4X5pRBPzl4ecHJzQ16q+ls679FzjQiGi5r6l3c2Cbmx8eZ+Wh0oN6hraBCcfbyQcyJWe4esrhc8kfxhKr9av5QTLfmL9pY6+6p1JQWm8p3Ly0N+mu1/Iyybcq7hpdqRtV5Ouu/5cl+lsNKwKkU1Zcoif3/y75Xxb5vx/MaJxyPRtoiwbNDDzQt1w5ohRXnnT509UuhZtMzrrqbienn4ICM7Fdk5mfqSPPu1QxrpfyOPx+4z/71In6RvYsaUanl+LT3eaZnqWbHw8ujMF/krQk2/E+F0ZuMsnFioBHMx5l2rheqMCxL2LDYLJyO7TNsT8eQV3tRIKvEzoNlV8AiojROL3rESQgHN+6ln0Rmn131rFk5SWfrJXUjYuQCBahqgf8PuSkCtstlGbm4OopXXSYLcBIVF4uzpksfRZkVMJAESIAEHJVAtxNNYtcbmytZD8MI3o9CgVmsMv/IeNVVMXkagX/AmvdPDavjkf6pDr5iEQd1vNwd6yM3Lxvz10zBr6fvm/wFbFpJ1NPcO/S8CfEJ0soi0X5Z/WOiFSS6GB9XH6//6zbK4Pp694mP8suKjQulGgvzPXdYLdWk+QL1GyYQ3k23atxjTF76mhGCMkeSQnzJVLll96yoC1NnJxYrzpYzJgM7jMKrvw1o4CxCpf+bS92yyudQxaaiep3H9n1Xel9bmeuVZWbTxR8xY+q6ejmm+YHFQq14TpCUnIOlsrEVq0Yc1lCC/f9jb6Ny8v3nsT5zZj49/e0IJ9X2FCnZveR3GXfO0+TkXAbTn6AZ8NucpnFWCqKCJeLyx1/3o33ks5IXVMJlaOX3Bq9hzbIORhFb1u+PRmz42n8tB/0636B8jcc+xf/DKtxOM0zJ/pq/fgczdh8xiqLgK/W/qD+9ubXDm9W/gVi8CfoN6KUHkrYuIWDn5WGGvplfH5ggYPdCcT9YLZW4/gIRpc2wKHFl/VXPiMLj4+5i6okRa8pzlNv/eJUPY83deqNtUAln7jyHu7ennzwp/uPj5QO7Fq0Nz0U1my9y6D4kzFiAvvmhxeubNb1S/TQLCXPAyHNSPaIUXxn8H8eT6qGfY8vk9o8TTez8/pKbw7i7UM5nK+6/r/4O2ja7U/xZIhnQ1hU3+fhdt/KFQfkno2mIg7hz0ivriZQr2n9iMfw36j/6Sycj8zJfDzH8rT4z+HPUjWhqX9Oe79y2yOn/1uwnYffQfq7SLOZEgDIHKUySepJhlF7zsRdWRtH8FtrzR0+ZlY/id1ZcbpbWwbmoaovIqnd02x6qIp/pCRUzWOBW0FPVvhIgnz5CGRYonKRN9yCSeIuo3pngqCJHnJEACVZ5AtRBPxiiO6vsIWtTrqv7HugWbDyzT3zzKi25Be2jE+2in1nJsUXlW7fhDvXy7o3fb4bih+x1aHH0+5xmrIvLi/NSYL/WLk6z7OBizXX9bel2328zf0FsWSFWLfv9UQsywqJDGaKleSIszebl9bNQnyovSAsu2/qL7JoKia/OB6NzsGu31eH7qKPM3rsXVVdS12q16o067fkVd1unxx3dj77Lvi81zqRdF0PrVCERi6hkr4ST1XeyYDOxyK27p96T+xnnu2m+0h7F53S6YMPA5m927lDGRCHhPjP5CR54S0Xvk5E7V/yBc02kMpH3xynzxx+RC7fkHhcLd0wunTxwudK2ohLtueFV5go7h63kvKmdKHrq1uBatG/TEvUP+i2e+HG7F67quE3Dz1Y/re/7j7/9qUS3Pvawn+8/EX/Dc1yMKCe0xVz+hhZOIpKVbZkG8VE3rdNKC6LFRn+ovHqLPe+6OqfVqxt9A0zod1d/Gjfrv6Z/dF4JeJKbFWd2Kb0gUWg240yqt4Eludgb+mfFqwWR9LqKnNF4ay8J+w/rCo2k9ZB86gdzt6kXRRUXAyym8psXnmm7wH341ck/FIfm3pchPz4Rn60ZagIU8PgGx//kc53JNHmupX4JCBD14i/57T1u+EdlHYuAWGQapR0fRs+zE+eO05Zvg5OGmzySPd/e2NnJZJKlIfEH3joJbnXCkr96KzB0HxEUCr44t4NW+GYJCa2pxeC7btrcr93QR3jWLJirzsG/7kdpzNO2vV9QQZKN9497o2ORqPHfrdDz9xVCIkDJM/m5evn2WmkoXjhXbf8PWA8v1mqSr24/C+AGTEaL+7n5Qz3VRJvXe2Os+/YyvVv9+5yovqEzLi1WeVMPk79VXeZ/ExvR7QnvHvpz7vPrbuvB8xMQpsW5hXce8qAIkFh9Fcevcj5CeYPpyQqbHuXr5I37HfHgq71Nw++HwqBmJTDVbIPngarWuaIVF7cUdOiGo/TCdobRlfOt1gVdYEx0kIl/9XVnZ+XtwsnEv2UkndVaP8wLLqpzFiQS5EQutXU9/8hcJkAAJVCcC1Uo8NazdBq99dxt2HV1f5Bj3bHWDFk6rdszBp78/Zc63Wp1PHjcdV6jr89TLuHzrb5h8Yy9C5su5z2lhI+nyv8W1KnKcrTDlSerF8rtFbxjF0bfdiBLFk4gm+dm0f4luxyi8bvefeHjkh+jQuC+aK+/X1oOl/R+yUcOFT7+w+qjTYcCFBBtHzm4eFSKeZBrYXTe8or0qy5U4tLSLHRNZPzWk511qyk228n6Mh/HSL6LzyKldWlRZ1i/HlzImnZsN0AJJxtJSDMuYvHn3XFzRerD22hScilkzJEI3n1xKr5NkXr9ngdUL4/Jts/HihB+1x6tRZFvsO75J1ymez+HqxTFJLTh/6X+3aCFqlJepp/LyObLPQ/hEeawMEy9fr7bDtNB844c7zFOV5FlLSDmteV3ZZoh5KmW8SpOXWjGZ/iPi6YTyfhlpRr2Wn+41Akp8trIzUooUT5Z1lfbYvV5txL3zLbL2HS2yiIQ+97uhN0RsxL72NQwxkrFpN/JTM+DTryu8e7SDiCTDfFV+JxdnJEz/QwsbIz1jw64iw5Qnz1lmZNPh1ksST+5KNIlwyty2T7djFM7YuBsShtyzTRMdfTBzZ9FTUY0y9vB5Rk3Te2HqaC3KpT/Ltv6MW5XHVr5ouF59yTT1z5fN3Rzac5IWTr+u/BQ/L//AnL5q++/6mR/YZZwuX1DcGBkbR7ZTfytvYf66qUVO85Mvxgy7Ua2xlGl8q3b8bn72jWuWn3XaX6Nm1ZkEsGW65fHuxf9T4smU4q7En5hEzWs6/isdYS8vMxk+ddrpABAS/S56yYemzAV+e4U1hndYU7iqL2MCmvSCd0QLxG36GYlqSl9pTLxOEkHvzMaZhbIba65q1G6NtJidVtfd/U3/NslareIsNydbr9X0DwrTXyKcY2TH4nDxGgmQQBUjUK3E0++rPi9WOMnY9us4Wg9xweldMg1vwYZvcY/6pl++2TTEk7z0iwdApswt33ZhIa9UciB6q1ozclqHKteVluGXfFsr5q/+ZypCzTIqlIg2P+W1EY9NWWz331MhP5VhnZv1V9PzGuimfNVeJjKdUtamiUfw15WfWXXhYsekVf0e5pchQzgZFa5X3hHxSJWHGV7LQF/TS5JRp4ill6aOgYi43LwL32Qb1yVEuVhWVoFvhI0MNj5Xnhcrlpd2HF6lxZOstTLEkwhNmXY3Z/WXhZ6HxZtmqKmoEyFT+r6Z/5Jal5Wmq5MpfdJP8bD6qrV4CakXphJKme2HVplfei3bv5jjs0e246dHulxMkTLnTflzVbHCSRoQEePk5oqU+SvNwsloOHXRWi2exNNjiCfxGnm2aKCnzKWv2WZk1Z/Zh6ORl5BsClVudeXiTwxPl14rpYTaubx8cyUJ0+fC2XcJ8pNKXsNmLnSZD+RLi4Jr7n5b9anyht6Ezk37m8WTTEcWL5VM0ftjzZdWvU5TwmPe2q9x+3UvacFelPdpx+HVmLfuG6uy5XEy8/GeF1WNRNkT81brlKL/fh9nNszQ2zB4qmnJDUe9i9Cu6suNfcuQFr29UL0ByjMXfsVEc3r6qb1qjdJ35vPiDrzDm8G3Xick7FqIbPX/n4KWsPMvhHe/VUXbG6Oj/hl5ROTVUsEixGSqYUkmocu9ff3h7uGFrMz0krLzOgmQAAlUGQLVSjwdPmX9LVvBUZT/cUeqKXSy2PjaruMLXjYviA9VUy8MkwX5YodO7qjQ/YlkXYt4H7oo0fHWpPnYoKLV7Tq6Ts3JX689Bo4WNEK4yRQ3MREZphf+L/SaBssABZc0JgGmMTkQbf1yqxsrx1+r1b5UMhVOnhWZvrZl/1LsPLJWTdvcptYVmaa/2GrO3csknnKyMm1dLnWavEyKGdOP5DhCracT23/C5InSJ+d/STTHg4qJTGGqpfLJMysm+2rNVtOYxvV/RnnM/tDP2a4j69W9rNECrKAAPV+d3X/kHCt6DIzOu9UO0YcezeprT4+Rbv5Ua5lcg03TuyRN7+GkPmWqnqyLqijLiT4N8X7Jeqewf9+DjM17tBDM2ntUecTS9U9FtV1Z9Yp3VKbrSfAbCVQi/+4G+oXpfw9k+qitgDv71FomsdrBpi9ebPX1sBJq9mASIlwsbtMvKiLehTD+mWePIGbpx6g3+CU1lW+YTfEkASYkSIRskutbt5MSWmPQ7PZp2PftXfg/e+cBH1WV/fGTNum9kUASSoDQe5PeEVHAAqKgqKt/Rd1dXXd17V1X17JrW7siFlQEpQgISkekSJNeQiCB9N7b/5ybvGFmMjOZSSYh5Xf4DO+9e88t7/veTN55595zi1KNhxOanqt4nURSfvvSNEsdS/spu76hMI64J3XmnN7BnlQdB4m4jMqqg7yU5tb+Iq6kpOr3y51/z2A8mUWNRBAAgRZKoFUZT7VdQ1nrw0PnrdQk2IAlES+PJlqAiDxtrIaW4eCtGBRvLX2A9va6Ug11mcxDV2RejXigdh75iYe3vMnR1+Lr1WpAZCwFRnW3WkdBRhIlH78YPMCqspXMlbwYsBaqvGvUAB4SuZBi2/atMcymXteEA0Q0pOQWZLCHaQ7JtZCAJDJcTj7y1vwXniD/w9b31X5D9sG07qDqoULyYGpOtHTR04wn0Vu763OOyHdMeaYu63EFjepdNcdC5gcu2fwm/XF6u7nqbE7z8AmkiB4jrepXsHf1zO7VVnUcnSnR9US8hl4M+GHahrNvlbEr6c7VASJkSF+DCttlGR8uJS+e6+QzZiD5jBtCPuOHKA9UERtSOSs2qqGGDdqHRqg8l+d/tuGfUz+vYPbeJ3IE1CpvTU5t96+Jt7cRukrtB11B5uYJGbaduP8XkuGnhpJ//rDhodrPPf2b2nqEtK+RJwll/NslH+Kvcd7ZvSRD7WKufIIiRt5Bp797yGwZSZQ5VbLIrpQpuFCzXa1g4vrXqYTrDOwxifw7j2JPU6bybJXx37F2E+4jW4wnDNXTaGILAiDQ2gjAeDK44uK9kdC0Mv/lr29OMMixvCvD8kQ0L4plzfrniOdgMw8NlI9Eo+rRfih7oiarKFM9OCDA4xxNsD4R9yK6jaDeVyyw2tFzBzY4xHgybOTo2d0qmlu3mEEUx0EKDCO71ema5FZN2DY0cg3bc+S+GEoSJVE+MnxOAn9IcJErht5GYhQ+s/Amo2AO0nZxYb7qgpvO3ZFdUXVp11+MenMeIzFGRTQ9dVD9n0TIk4+EfO4a1Z/6dh5DY3g+04Mcmey1b+5RQyoN9e3Z9w5pR4NnP2q1iDx0NrbxVJ6dq8KAX3jsLSpPq93YLs+sejA2NKisnlR9MnkdKBkaKB+JFuge1155oiRohOzLHC1rEffq03RjlZUAMfJiSH5zRdKrI4ZqL6VM+2Ht/jXVdfTxoFkP1zrnac3ZQ3rjqSSrKqiCjr1pplLBy1KIiMfHFsk6vpFimJMMybMmMhSQLTz2dJn3OhmWTd3zLcnHUNpf+aQ6zOew5bWJ9vtVXFh1LrXpIx8EQAAEWgoBGE8GV1K8OEnpp9TaTjKsKSn9tEGu+V2JgCbDniQYhUTE09aRMq9d91SZx9MmKIZ2c1hymcQvRoUEpJCPRBGUuSwypG8VT5KuqyTsWUPpZw5YLV6cX/sDptUKLGT+sPVdZTjNHLGAXvjiVr1WXa7J+fR4Vb4LGwDiUWkoGdl7hgqD/svv36h7QO4F+cjx4xxFTDxpskaN6XBR7WFDm/vkyP5pa1lJ6HwZQmgoMldOJtOLEX7e4N6WdXAk2MgpjhIp3qiSsiI6wPNG5CORzv5+/bs0locnynw0U9HmfcnaT9Yk58Ip+uXtu6ypqAnuVhUaILP0XDK5d4lR85gkIl5tUpbKc0F4uJ6uY1t2QznbFDq9tjrN5bt366ACS0hY8vKsXDVMTwJSyMdv5jjynTSMDak4ylu3w1zxZpEm6+yF8jpEmbxmWSmvwyYi8+3khUQ0f29kDqTsG4rcpyLmXgwY6tmzr80nlXvY2rpOG9/9c63V5qUl6nUKU0+qfe92vfVp2o47/5aLFGec1ZLUEL7IMQvo/MZ3axg1Ts5urMfrfFkZ4eDKhmhQz6nKS5V9fIu+Xlt3vHg9PPFEyXpPsoBubSK/X+J9KrFj7mZtdSIfBEAABJoDAf7rDzEksG7XF+pQJiVrQ/i0fJlPcudVL6igDVqaTLqX6GqyGKPpUD8Jdx4SEKmp1msby8aZREqToXqmok38L65eGNI039bj/MzzlHJit9VP9vmqBwJb67RVTx7UT3OobwmpLUaPodh7TWSujsw5Gth1IgdUMH5wmcjrETlKRvS8im6Z8jj17WQ8HE2M6eLq8MDFZTWHd2Wmnldd8AsOdVRX9PVIYAmZCyVBNiSUuqFMGXyzuk837ltqNJ9E1t+Re0vmPImBZSjavVViYcFnMRZF5OWBNSktyrd6X8l9l3pqr7UqGiSvYMteNRROIu5p85m0hpw8dBQ4bxrpYi5+hyuLSkgi3rn4+/JQuqoHeU3fo2csuQYHaIf12uo6tFXrTslQPVOpLKoyNCpLykyz6nzsFxRKIRFR1BAGvXRKIoWKMWQo14y6W63hJJFNDWXNzkVq3tNMXo/PUCRYjoThF4Nd1o1ylNh6D9f22yj5Em5fEwkEkZ90kPw6DFEBHLR0MYLCh85Vh9nHN+mTZd0lF17kN4gXw3Uy+R4G9Zyi9KQ+SxI2cBY5c9CX1J2L2cC/GGDEkr5hemCPydRp1qtcrILOrvm3YZbZfVdXN/L2C6CsNF5EuwHn/pltHIkgAAIgcIkJGD8pXeLONIXmN+xdQgO6TqA+/ED83G1LaOsfK9SkeVnLaSCnyyRmGaKnzR2RPsuQrd6sL2vriLfhNL+9lzen/buMlZfU8rfSSOSN6/XsLdIknNcAEZH6ZeiXJovWvag8THIsC0OO7DVDPTyE+EeqCGiSHtu2D4fEnq68URJEojnL9+x9kvWcrh55N734xcVIU/ZeE3l7LAvU3nnVi7z+1oe0nQM7iDElb63jeGigOanLNfl6w2tqrtY9V79KG37/lj1Mh/gB0YfXsBmjhu+J58dcOOWcjFQeuldAWshyc/2pa1oeT/iWMM23TX2SHr/5C5Kw7zJET4ZEDu0+VS2Qu2TjG0bVS6Q+uXfk/nucFzSVh9mColwVVEICYog31dLD6pnkozzX7gx1addPXTtZBsDDzUt5SWWNK8PgH0aNNpGD0vOplMthxP1mjKWwh/9E+dv2Utn5NHKN4PmPHA7cJdCvanHeM1VDsKTbOSs3kXuPTuR/zQT2QLWj0jPn1TpPHn26cK6ZLzynBsyZQk4e7lKcnNkoE3FrE0yBt0xX+/Jf/uY9VHKiyhORv3G3WmdKQqW7BPlR8aFTSk/ak/lZ4o0q2ntUX7a+O72GjqPwqI7027pldO7k4fpWV6O8GPJP3/q18srKb6h8R3p3HKF+R9cYrHknBWU+pHjR5UVROHto9vPyCzJMeRR7ekP826qgMobrQtVozM6EnRyIR37vF1z1Esk6fXlF2RTiF8nRUveq4Cl2Vmeknrj+PxR7/X+p03WvsjdpCck6ShKYwZcNKgkTnsGR7zQRw0jWhArqeTl1veUTtV/O30MJKS4L15bmpdGFzR9q6kZbZw66E9LvGl4UN5fSD6w0yrN0EDpwNgX3vkLNk3LmCJ0SYe/00oetzpXS6goMi1C7qYlntCRsQQAEQKDVEIDxZHKp5WHvla8X8B/ueXQ5v6mfOaJqqJEMldt3YjM/lL9WY76IDO97euFcuvPKF2hg3AS1aK08xMqCkJf1mKa8KYbNyCKQl/WcZpik9qPCupB8NPlm438ol6oWDZH6nvlsnlr8UcrKw4WIeDl2HV2vjAVt3oBWvrlt9/CQRAkBL3O5ZHiZBCsQqcs1UYtjcgCCGzgsuYQ+FpGhas9+dpNamFMlGPxXl2siiyE//elcmj3ufpowcI56iy5VSqhyWfdJgnhYkqT4Y9ShW1+SBXOz7VjvyVJ9humyhk5aThLN5XOX4ZyyFpP0STykn6x+muReMhTh+zav+yQPq5fzZ97Ef+qz5RyXbPwvHYo3PzxMvABvLv0b3cWGqoTwl4+IPNx6e/rVaEtfcRPayV2zjWT4nh8vlOszlo1rJyeqKCxWi+tmLVpJxUfjjXpbdiGd0l7+lALnX0WefePUorWygG/WV6vJa3BPtTCvUQE+kKh5Mm/JUCQMuehrUnz4tN54kvrSXllIsqaU6Eh5Jfw2ppCNppzvf6HynDytaL23TnzOIhXseWgIkSGfmTkX1O+Xm6u7Gjoq32+57wxfREnbYlw9wfM35058SM3p7McefBHxEL2x9H6S5QYcKZvYExsR3J7v//mkebvkBYwEhKmv5CcepGOf/R9FX/4QhbJnSL6LFfxdTN/7PZ3joA2mHqKEH1+gorR4FV2v7dh7VPOyXlP20Q1qTSgVRMJMp0L6ziAXDx9K/nUhVVjwEpsW8wztRGJ05Z7ZTYUpxzk631dsfOWYqpk9jojprNITTx81m49EEAABEGjJBJxCIqPkVWmTkJDoOMpJuTgGvCl0St54ShhtcxPszfXPh1eUl+F+tuqbq6O2NAnfHcyLGbrygo3SjrVx+rXV1Rzz7b0mEppb5vE0ZDh3uRah/HZdhrdl8BwOMWqtiV9gCE2YdTudPLiL9m39yZpqvfIkDLxMvk/OPFtrn7SGfDmapB/f9+KtM13gV9Mx3co9GcihmWWxUTHiTR+ITfWb6rGTzo29Tb5UlsIvLWwYjuTs7UlO7rqGDdzAdo1LoD85ufKcyoxs0taAciRDuRflnlz9xdtq8VNH1S2e+CfYmynLLLzx3X3qt1Q85+lsSGlDQq21JfeVzIuSoahaaH5r+vXJk3DpYbzMgcyzlEV9tfl89anTsKwsPOvGoxaKJZBELb8PUs6Ng7uIcSOBJyq5T01FnF1caMoNCyg/N4s2LvusqXQL/QABEAABiwT8wqIoLeGIxXx7M+B5qoWYPHBr3p9aVFW2vNU3fbNvSzl7dMRT0JDGmT19uRS69l4Ta2suOar/YsAaBmGord6czDQ6e+IQtY/rS0f3bqeifMd5EQzbFuNHhtXZI/LG3d637nJPZrB3Vj7NWSpLSu0KAS4eIpJPQwq/3mrIqHqyyKnMX8nPyXKo4WQOiXiV7An2IPdVCnsxG0NknSlt8fOGaK+C50MVl9h+LjJMrylKh279yMPLh3b9bDxXrSn2FX0CARAAgYYggIARDUEVdYKADQT2bV1LZaXFNHAMTxCvHjZlQzGogIBDCUR36cmBA11oz8ZVDq0XlbU8Ar4BwdRj8GiKP7yXUhLjW94J4oxAAARAwAYCMJ5sgAQVEGgIAiVFhbTtx28oKLwt9Rk+sSGaQJ0gUCuBk3/spk0/LKLUJPs8lLVWDIUWRUDn4Ukjps2hjJQk2ssvfiAgAAIg0FoJuHj5+j/ZVE7eyz+EivNtm7DaVPqMfoBAfQgUFeTRhYST/ObfWYX9rU9dKAsCdSIgQSjyGuZ3V+Y1ydIB+zhiXk5+ep26h0JNg0BFeTnpPL1o76bVJPsQEAABEGguBNy9/akg23FDoREworlcefQTBEAABEAABEAABEAABEDALgKODhiBYXt24YcyCIAACIAACIAACIAACIBAayUA46m1XnmcNwiAAAiAAAiAAAiAAAiAgF0EYDzZhQvKIAACIAACIAACIAACIAACrZUAjKfWeuVx3iAAAiAAAiAAAiAAAiAAAnYRgPFkFy4ogwAIgAAIgAAIgAAIgAAItFYCMJ5a65XHeYMACIAACIAACIAACIAACNhFAMaTXbigDAIgAAIgAAIgAAIgAAIg0FoJwHhqrVce5w0CIAACIAACIAACIAACIGAXARhPduGCMgiAAAiAAAiAAAiAAAiAQGslAOOptV55nDcIgAAIgAAIgAAIgAAIgIBdBGA82YULyiAAAiAAAiAAAiAAAiAAAq2VAIyn1nrlcd4gAAIgAAIgAAIgAAIgAAJ2EYDxZBcuKIMACIAACIAACIAACIAACLRWAjCeWuuVx3mDAAiAAAiAAAiAAAiAAAjYRQDGk124oAwCIAACIAACIAACIAACINBaCcB4aq1XHucNAiAAAiAAAiAAAiAAAiBgFwEYT3bhgjIIgAAIgAAIgAAIgAAIgEBrJQDjqbVeeZw3CIAACIAACIAACIAACICAXQRgPNmFC8ogAAIgAAIgAAIgAAIgAAKtlQCMp9Z65XHeIAACIAACIAACIAACIAACdhGA8WQXLiiDAAiAAAiAAAiAAAiAAAi0VgIwnlrrlcd5gwAIgAAIgAAIgAAIgAAI2EUAxpNduKAMAiAAAiAAAiAAAiAAAiDQWgnAeGqtVx7nDQIgAAIgAAIgAAIgAAIgYBcBGE924YIyCIAACIAACIAACIAACIBAayUA46m1XnmcNwiAAAiAAAiAAAiAAAiAgF0EYDzZhQvKIAACIAACIAACIAACIAACrZUAjKfWeuVx3iAAAiAAAiAAAiAAAiAAAnYRgPFkFy4ogwAIgAAIgAAIgAAIgAAItFYCMJ5a65XHeYMACIAACIAACIAACIAACNhFAMaTXbigDAIgAAIgAAIgAAIgAAIg0FoJwHhqrVce5w0CIAACIAACIAACIAACIGAXARhPduGCMgiAAAiAAAiAAAiAAAiAQGslAOOptV55nDcIgAAIgAAIgAAIgAAIgIBdBGA82YULyiAAAiAAAiAAAiAAAiAAAq2VAIyn1nrlcd4gAAIgAAIgAAIgAAIgAAJ2EYDxZBcuKIMACIAACIAACIAACIAACLRWAjCeWuuVx3mDAAiAAAiAAAiAAAiAAAjYRQDGk124oAwCIAACIAACIAACIAACINBaCcB4aq1XHucNAiAAAiAAAiAAAiAAAiBgFwEYT3bhgjIIgAAIgAAIgAAIgAAIgEBrJQDjqbVeeZw3CIAACIAACIAACIAACICAXQRgPNmFC8ogAAIgAAIgAAIgAAIgAAKtlQCMp9Z65XHeIAACIAACIAACIAACIAACdhGA8WQXLiiDAAiAAAiAAAiAAAiAAAi0VgIwnlrrlcd5gwAIgAAIgAAIgAAIgAAI2EUAxpNduKAMAiAAAiAAAiAAAiAAAiDQWgnAeGqtVx7nDQIgAAIgAAIgAAIgAAIgYBcBGE924YIyCIAACIAACIAACIAACIBAayUA46m1XnmcNwiAAAiAAAiAAAiAAAiAgF0EYDzZhQvKzZmAu4cX9Rg8utmdgpOzM/UeNp5cXd2aXd/RYRAAARAAARAAARBoSQRgPLWkq4lzsUhA5+FJo66aS5EdupKTk5NFPclwCQmgkPvnkWf/blb16pNpTxtuOneK7BhHl02dRS4urvVpFmVBAARAAARAAARAAATqQaDVGE9Duk2hO696kV67ey09Of8rmjfxnxTs16Ye6FC0OREYMmEmubm70+YVX1BlZaXVrjvr3Mi9czS5BPha1bOU6RLoRxH/vp/8rx5vSYXsaaOkqJC2rVpMgaER1HfkZIt1IgMEQAAEQAAEQAAEQKBhCbR448nJyZlumvQI3T7tWXLifyt//ZgOnNpKnaP6KSOqQ0SPhiWM2i0SuO/aN/gafEkuzg3rTenQvR+Fto2h/dvXU1F+nsX+6DOqPVMVhcX6JHt2vIb2ImdvTyrcfdhyMTvbyMlMo2N7f6WYrr0pPKqT5XqRAwIgAAIgAAIgAAIg0GAEGvaptcG6bXvF14/7Gw2Mm0DPLJxLZ5KP6Asu2/I23Tzlcbpnxiv0wP+msjeiQp+HncYhENOmG3v/ImodRlef3jjzfKG4/sMpOz2Zzp04ZFdVlUV1MJ54RKDXsD5UmpRKJWeSam3PnjaO79tBnXoNpO6DRlLy2ZO11g0FEAABEAABEAABEAABxxJo0Z6nIN9wmjTwBvrvkvuU4dSr43D626y36ZG5n1C/zmNp4ZpnSefmQQO7mh9eFcjlu8UMog5tepCnu49F8v7eweTj6a/yvdx9KS56IMWEx5Gzk4vZMu5unuTvHUKuLlUBANqGdKLu7YeQr1egWf36JEp/pC0X54t9kfZ6driM2gTFWKxa+tilXT+KCO6gPHaWFH29glT95vLlfKRt8fhp4uMZoNIk3Zm9giKyb/jRuGhlDLeS1zGip+Jri8eqbadu5OntS2eOHjCsxqb9unie3DvHkGtoIBVs2+fwNsrKSinx5BE1fC84vJ1N9UMJBEAABEAABEAABEDAcQRatOfpystup8NndtKJxL0khtP9171Fmw98r+jdNOlh2nV0HW3ct4QGdBlPO4/8pKca27aPGupnOKSvtKyYftn7LX25/mUqKy/V68rO6/esp3Opx2n3sfUkbepcPVR+UUkBfbL6Gdp68Acj/UmD5tKsMX9VdQ3rcQW1b9Ndn38ofge9sfR+yivM0qfVZ2fupH/SyF7T6YmPZ1PHyF509cgFbKQFqSrzCrPprtcuM6peDJ7br3iW+sSO1Bt/BcW59M2G/9C63V8a6crBC7cvJT82Hm96vmeNvEfnLqTIkI5056vDKL8oR+X/4/r3yJCrJL5+zzqjss9/Pl9dN8NEMZRmjLiLpg27lY1OncoqKy+hH39bSN9u+C9VVJYbquv3I9t3VfuJpy56HfWZFnbKktMp+al3qTzd/mvgdVkfqiyvoIId1o21urYh5yHDECM6dKb05HMWzgDJIAACIAACIAACIAACDUGgRRtPfTqNpMW/vKa4zR57H/244xP6esPrNLT75ey9qJrrdD79DHVu20/PVh72H5zzPj+MV9BXP79K8cmHKIA9I5MHz2Mv1o3KW/Ipe6xMRYaghQVE0fJt71NK1jnqFNmbxvefzUEqXmBjq4R2HF5tWoSuH/8AHTy9nd5d/rDyXA3veaXyQIln7OEPrnboUMLZY+9XdR8/t5d+P7FRzTOSfhmKl4cvPXPrtyqQhhiZ+05sIn+fEBrfbzbdPPlRCg1opww+wzL27n+3+S3yZe+TyA0T/sHnHUAfrHycKirK9FUlpZ3S72s7f732v9Q3djTt5b5vPbiC3Fx1NLrP1XTlsD9RgE8ovccMzUloZDQVFeRRYX6uuWyzaZVl5VR2Ic1snrVEZ093FaGvaP8xqsgrsKZKdW0jI6VqKGBY2/ZW60cmCIAACIAACIAACICA4wm0WOPJQ+dFIQFtKSn9FA9Pa8/DvLrRa9/cowiKpyQ7P13tZ+enUYBvmJ7sqN4z+MHcgz5c9Tht3r9Mn77n+C/06oK1NKr3TPps7Qs1PB0VFRUkHhNtXtU2fsA/krCT/nz16zSTPSa/HV5DlfzPUMTb9eZ39+vTf/79a3r4xk/Y8OpFg+MmmTW4DMvbs9+pbW964fNb6NCZ3ywWmzH8LmU4LdvyP1qy6Q293tYDP6jgGlPYgBRPnTnjRq9cy44YP5pcM/peZTyJZ87Um6fpyFaMSjGcth5cTv/74SF91jY+fnTeZzSC81dxIBDx/hmKt18ASYjy5LM1jTFDPUftew7sQU5urjYP2atLu2WlJVSQm03+weFqrlhtkQPr0gbKgAAIgAAIgAAIgAAImCfQYuc8tQvtTOy6oQsZZyg6vCvlFmRQes4FRcGPh63lVBtPsuaPoQdGvE3zX+xtZDhJocLiPDqbckzNkQoLrDnfpICHpWmGk4ZajCMp0zY0liJCOmjJ+u1hNmQMDaqS0iJasf0DlT8obqJezxE7P2x9z6rhJPOSxva7jmSIntYHrV0Zcrfq14/UML7Rfa7RkhttO2HA9aotGTpoKOUV5bR21yI2IpzV0EvDPNl39/RWSSXFhaZZDXLsNbwPlWflUtGhhg3mIKHL5b7VuXs2yHmgUhAAARAAARAAARAAAfMEWqznSQUT4AfM8vIyCvQJY2MpQ09APE85bEyJhPhHUkrmWX2ethMXPYi9HaMoyLcN+XgFqJAHUWFdVLYtgQq0ek4k7iMpF+rPXjAzw9E0PW0r+iIhrO9IOX3hD6vVBfmFk3jrjiTsouLSmsbGsXO/q/JteVhjY4oYdWIIi2F5+ZCbazQtgSZEzBm07h5eKq+0uA5R81RJ2/9ziwwlXUwk5a7eRuyWtL1gHTRLSopUKXdPLyousj48sA7VowgIgAAIgAAIgAAIgIAFAi3WeBLjSB68vTkKnhgDgWwcSKQ2N1d36tF+KG2pHpLXL3YMzwHaoMcj+Q/MekfND8rKS6WElKOUzVvxcogHyV7RjDQx2GwR8ZCJSAS/xpRANhJFNI+cadvaMEcxJhtTZM6Vh67KgzR50DyLTYs38VKKBIoQKdi2t8G7gaF6DY4YDYAACIAACIAACICAWQIt1niSuUwi4YHRHLntN+VVeeqWxSQP2QVFuTS422QVJU7Cdr/zw4N6ONeMukcZTt9v/R8t3fwOG00XAxk8NOcD5cXSK9uwoxlBWbkpNmgT96nKk5KVZ5u+TZXaoJSenaS0JPiCOREjRiStWk/TEaNSRIbONcRaWbkFmWo+lFzPv745QWvWpm1xYb7Sc9O526RfVyUnVxfyGtKLio8nUFlqZl2rsbmcdj7FhfA62QwNiiAAAiAAAiAAAiDgAAItds6TGEh/xP9K4/rPouTMBHrn+4foQnq8iqD39MIb6djZPcoweumrO9R8Jo2leKVEVmz/yMhwkjQxEOyVLu36qyLJWTWHBpqrq2tUtb6ZoYTm9B2VlsnGmsx3iub1qWRtKFPpxsMYRRLTjOfzZOScVx4+Xx7aaCoyL8ealJZVRfvTQo+b0xXjVYJ+yGK6kbzmlD2iGRcSNKIhxaNXZ3L28WrQQBGG/ZfhiOJ9aqy5XIZtYx8EQAAEQAAEQAAEWjMB+62BZkRrzc7PaFj3qSqYwK+HVqn1kySymwRA+Hj107TopxeVYWV4SlrUN1nk1lBknaiu0QNUkjkjysvDT0X0MywzvOdVap0jmcdkbl5Vt5jByvDQysjwtGkceltEIstZEhl+KOtJSfhxbXFeS7r2pK/ZuUh56GbyWlCGIt6zqUPmq8AaEhHQUJLST6tDWXTXUHp0GEZtgtsbJtXYF6NWRCIBWpN1u75Q2bdOfUo/hE/Tl0V8JRy85uHT0mWbn5tFElzBP+hiNEXDfEftew3vS5VFJVS457CjqrRYj6urG0kUway0C8qAsqiIDBAAARAAARAAARAAAYcTaLHD9oTU3uMbac3OhfSXa16nTTzH6TgHPUhmj04EP9RHhXahhWufqwFUwpPLIrn3z+IFdXlfFquVNZtkzShtCJ85L4uLsws9PPdjWr9nsTKUJNz4qD4zuUw5fWsQ9tuwQQlH/tCNH6mQ5N5sfF3GC+ZKcARZ2PfAqa2Gqkb7vdhQkUV2RaR/KzkSniNk5fYPVYj0KYNvovCgGNp/cjMvqBvI4dlnqAAWEu0uldewMpTVvEitLMJ7y5QnqF1IrArEIYanhBaXoYqBvuGG6kb7O4+sVVwXXPUSc/uK8oqyKcQvUi1q/BvnabJhLy9k3HWC0n3utiW09Y8VJPPRhPFATpc5bYbh57Vysk1NOkNtO8aRh7cPFeXnGWY5ZN8lwJc8unWkfJ7rVFlivHiyQxowqSQwLEKlpCaeMcnBIQiAAAiAAAiAAAiAQEMTaNHGk4QBl9DjCclHaXivq5SnRowBMTgseXbEs+Ku86QZvDaTFqBAHtQ/4YVxZX6ULJTbMaK3MnAML47MzVm65W21ppNvdfACWSz34x+foj94IVxzIkaPDJObP+Ux5YEqKSvifv1AH616ypy6Pk28PRI6XRaKTUg+ok+v744YIU98PJvmTnyIjajJ1I8NIBHxEL2x9H61VpVpGxKK/c1lD9D8yY8pb5gwP5dynF768g6aMfIuq8bTpn1LlSE7ZfB80rxd4vnTgmZobUmdr3y9gGSdqcsH36wYS15mbjIv5LuZFz5+rcZcLK1s0umjynhq2yGOTh7cpSU7bOs1jL1mzk6NNmQvIoZD8LMk8nlBQAAEQAAEQAAEQAAEGpeAU0hkVMPGVbbjfEKi4ygnxba5QXZUa6Tq6e5jNMfJKNPgQIbmhXIYc9mKEWQtGMLHD+5VdS54fQSJByo0oB0VlRQo74hBlfpdGXInnqNP2SBbt/tLtVCsDDuTNak075Ze2cKOjhfylSFcMrerIUQiFYbyIsMyxFE+tYnoy6LEYtSJcWqP6Nw8KCwgSp17alai0bpb5uoRA9jdzdOiwWRYxtnZmSbfsEAN31v/7YeGWfXf5yld4U/xEMeyckp++t3611dLDc4uLjSFz0WGI25c9lkt2sgGARAAARAAARAAARDwC4uitATHORtatOfJ3O0iD/e2iBhLYjTZKzJMT4wge0SMF/6TzQAAQABJREFUDXsNDvFSyaehRLw99py/6JsO6bO1b7KG07nU47aqs2cqk3LJtqh2FRUVdGT3Fuo36nKKbN+FkuKP2dxObYpOrq6UvXgNlWVk16bqkPwO3fqRh5cP7frZ8nw4hzSESkAABEAABEAABEAABMwSaNEBI8yeMRJbHYHTh/dSSmI89R05mWRhWUdJZWkZFf1xksrOV4XFd1S95urxDQimHoNHU3z1uZjTQRoIgAAIgAAIgAAIgEDDEoDx1LB8UXsTIfDbT8s4tHcRjZx2Aw/F5PF2zUgk1PqIaXMoIyWJ9m69GEijGZ0CugoCIAACIAACIAACLYJAqxu21xBX7eXF/0cV1YvF2lL/9j9W0amkA3S+Osy3LWWgUz8CsibSph8WUaeeA5tdiO9SNvoSjh+kI7u2UEV51aLE9aOB0iAAAiAAAiAAAiAAAnUh0OoCRtQFEsqAAAiAAAiAAAiAAAiAAAg0PwKODhiBYXvN7x5Aj0EABEAABEAABEAABEAABC4BARhPlwA6mgQBEAABEAABEAABEAABEGh+BGA8Nb9rhh6DAAiAAAiAAAiAAAiAAAhcAgIwni4BdDQJAiAAAiAAAiAAAiAAAiDQ/AjAeGp+1ww9BgEQAAEQAAEQAAEQAAEQuAQEYDxdAuhoEgRAAARAAARAAARAAARAoPkRgPHU/K4ZegwCIAACIAACIAACIAACIHAJCMB4ugTQ0SQIgAAIgAAIgAAIgAAIgEDzIwDjqfldM/QYBEAABEAABEAABEAABEDgEhCA8XQJoKNJEAABEAABEAABEAABEACB5kcAxlPzu2boMQiAAAiAAAiAAAiAAAiAwCUgAOPpEkBHkyAAAiAAAiAAAiAAAiAAAs2PAIyn5nfN0GMQAAEQAAEQAAEQAAEQAIFLQADG0yWAjiZBAARAAARAAARAAARAAASaHwEYTw14zQK93ahzG28K8HJrwFZab9VRsT0oNDLaIoCozpzfNsZiPjJAAARAAARAAARAAARAwB4CrvYotyTdIB83evPmnnQyOZ8e+/aYQ0/tqv7h9I9pnSgiwF1f78bD6XTr+/v1x/buRI65m7wje1DCqueoOCvR3uI26ev8Iyjmisdq6KYfWEkZ/DEnESP+RD7R/WtkHf9iQY00RyZ07DGA+o6YRDvX/2CxWg8vHxo4Zhr9+tN3dD7+uEU9ZIAACIAACIAACIAACICALQRarfGkc3WmIZ0CyMPNsc63Kb1D6bW53Sm/uJwWbj5H5zKKKJANtQI+ro94hsWykdKPnHWe9anGalknFzdyD4rS6zi7eZCLuw/lJezRp5nuuPmEGJVx8w4icnIsU9M2QyNjqM/wiXR49xY6e+IP02z98fF9O8g/KJQGT5hBP3/7EeVmpevzsAMCIAACIAACIAACIAAC9hJotcaTvaBs1X/gio5UWUk07529tC8hx9ZiTUKvOCOBDr55pb4vwX2nU/SUh/TH5nYSVr9olNzznuUkBlVDiYurK/UfPVUZQkfYeKpN9m1dR21iYmnAmCtow7KFtakjHwRAAARAAARAAARAAAQsEmhYF4HFZltmhqfOhWJCPNnbVNjsDKfmckViuvYmb78AOvTbRjZS2UqtRUpLiuj43h0UFN6W2kR3qkUb2SAAAiAAAiAAAiAAAiBgmUCrMZ5cXZyoT7QfdY3wJhdnJ8tEDHLcXJypN5fp3taHpLw5kbpCfXXqI3U7OzlRVkGZPk3L42SHiptvGPnGDCSP4BhysmGYnHiDZNifqwyrayLi5OxCnuGdyatNN5Ihg7ZIbK9BVFxUQOcTTtiirnQSjh9UhpaUtVU8vLyp59Cx1KnnAFuLQA8EQAAEQAAEQAAEQKCFE2gVw/bmj2qnAji48zwnkaz8Uvr3qlMWL60YSvdObE93jIsmmRslUlJWQR9tPEuv/niayisuejzEYFr+N+OH8l5RvvTrU8ON6u/1z031nvckFbp4+FKHGc9RQNxYPqqyyIpST1H88ieoMKWmQSHGiQSB8AzrrO9PURrr/2BeX6/UgDtiNEWM+j8KHTiLnF2rgmpUlpeSBKZIXPc6VZQVm23dj+cv+fgHUfyRfVRZUWFWx1xiYX4uZSQncuS99uSmc6fSEvP1G5aN7TWYuvQZqpIyUy+o8ob52AcBEAABEAABEAABEGh9BFq88XTr6Ch6ZHosZbLB9P7PCXQus4iGxgbS09d2sXi1/3dLLxrbPZh+OZROy3ZfIDG6rhsSQXeOj6EwP3f6+5eH9WWTMov1x8E+Onroyk50Jq2Q3vwpXq8jO8Wltj/sGxU0OYi54nEqzjxHCT/yXKPKCgroNoH8Ogyh9lc9RUc+nMcelovteLftRZ1veIsqSosoacM7VJQez16erhQ2ZC51uekDOvrxfJVm0kSDH3a4+kXyjx1BeWf3UsbBVXwa5RTYbSKF9J1BXuFd6NjC243OQ+uQBIoQyUxJ0pJs3makJFJwm3YUEhFN58/UHnkvOz1FeavKSospPyfT5nagCAIgAAIgAAIgAAIg0HIJtGjjycvdhe6eEKO8Rte/+Tud4LDkIt/sOE8Hz+bSozNia1zZGQPCleG0bHcy/e3zQ/p8OV58b3+aMTCc3t+QQMfOV9WVVVBK3+28oPSigj2V8ZSeV6JP01fgoJ2soz9T4s9v6GtL37+Cut78IXlFdCcxlvLO7VN5MgwueurDav/Y53eSeKdEso+zB+z8Iep47b+pzcg/UfyyR1V6Y/0nRpN8cuN30cmv72PDqUw1nXFwNbWf/jQFxo2noD5XUvre72t0KTA0QqVlZ6TWyKstIScjTakEhITbZDxJFL+UxHgqYy9VeXlVH2trA/kgAAIgAAIgAAIgAAItm0CLnvM0oksQBfBCtSv3pugNJ+1y/rg/Rds12s4d3lYdv2IyrE+G6n3KocdlTtPEnqFGZRrzIOPgjzWayzm9Q6XpAtvp82TtJY/g9pTxxxq94aRlZp/YShJZL6DzqAYPK661qW1D+s1Uuxe2fKA3nFQCe8zOb3pP7YoHypy4e3qp5JKiQnPZVtNknpSIu6e3VT3DzOLCfBhOhkCwDwIgAAIgAAIgAAKtnECL9jxJ5DsRW0OGS1CHLhE+VFhSTrfxcD9TCfXTqaToYA/TrEt6XF6Uq9p39fTX98MztCqynM6/DbWb8Fd9urbj5KJTQRp0vqFUkpOsJTf41p0DXMjQwvykgzXaEoOurCBLBcGoms91cW6ZKGvGU2lxUY2ytSVoZbQ6atNHPgiAAAiAAAiAAAiAAAiYEmjRxpNm7GTklZqet9ljiYznzUP9RCTIhCWRuU1NXbTFbiUin3wsiatXUKMaTzqOElhemKPmOZnrU1l+BnmEduTAGD6kGYXm9OxNsyWsub11Qh8EQAAEQAAEQAAEQKB1EWjRxtOFrKqoasFsFNkiGRxUorS8glJzSmjkM9ttKdJkdUrzqub4JKx6jmReVFORkhwOwBHQlpycXY2H7VV30NUniMqLebhctTfNsN/FhVVD79zc3VW4csO82vYlyp6IVkdt+sgHARAAARAAARAAARAAAVMCLXrO06mUqoftgR0uDmczBWB4XFZeyXOjCigy0IM6hVXNrzHMb077hSlVEeV8ORJfU5KitNNqnpVPVN8a3fII6UCungEWIwDKHCQRnYf910YbrqfVUaNxJIAACIAACIAACIAACIBALQRatPG09VgmJXFo8im9Q6lvjJ8RiptGmB+Wt2hLotJ7blZX/RA+rWBHNqj+fUM3CrHRk6WVuxTb3FM7qDgrkUOAjyf/LhwYwkicqM2I2yio1xVGqY1xkLLra9VMxKg7yNnt4twxWfspcvRdKi+1Wse0P7Lekois92SvaGW0Omor7+HtQ72HjafY3oNrU0U+CIAACIAACIAACIBAKyHQooftyRA8WQz3lRu602d39qUf9iQrY2oIr/M0pFOA2Uu8eEcSTeoVQqO7BdOKBwbR9xyiPIWH8fWJ9qXJbIQVcDCJYB83SsstMVu+qSTKQrMJq56nTrNepY68rlLmoZ94XaV95OYTTL7tB3NY854kRkoGL0yriRsHj2g75m7tkLToff5dx5C7QSS/c7yQbVlhltILHXAdeUf20JeRRXxF2l/5pNrKf7KeU9reZeo478xubnMVG25Tqcu891S/KstLeNHf8SrUei5HDpS+mpNUDh0uEsQhy+MP71X7tv4XFBbJwwQrKO18gk1FYnsO0htOssCufCAgAAIgAAIgAAIgAAKtm0CLNp7k0orxU1JWwQvldqbrh0Wqqy3D+a5/c49at8n08ldygLc/fXCAbuGAEbeNiaJ7J7VXKsnZxbSBF819eeUpSmRvVnOQvIQ9dOSjmyhq0t/Y+zSGArtPosryUiq4cITOrv03pe1ZYnQaLu6+FNhjslGaHEjkPi16nxwnbfofUXW0cBl+FxA3TpKNxLAeWctJM55E6czKZ0iGFYYNnkORYxaochIo4sK2j+nC5g/42DjKnlLg/3Iy0yg3K50iOnQhpy1rlDGk5Vnb6jw8KTi8Ha/bdJrKSm0zerPSLqj6S3mdp/xsLJJrjS/yQAAEQAAEQAAEQKC1EHAKiYwy/6R6CQiERMdRTsrZBmtZ5jJJGPJMDgxhqwTyOlFeOpdmYzBZOi8ZFqfjQA2lHJZcvFJNRVy9g8iZF/S1NVx6x+79qe/IyfTr2iWUdPqYTafRqedA6jN8Im1Z+RWlnOM5VzaKGF1lJSVUUVFuYwmogQAIgAAIgAAIgAAINCUCfmFRlJZwxGFdatFznkwpyfwnewwnKS/6zcXTZHq+hseVbADIOkpNyXCS/onHyVbDSfTPHNtP+TmZFNd/BDnJwly1iIurG3XpO5SH6521y3CSamUxXhhOtQBGNgiAAAiAAAiAAAi0IgKtynhqRde1xZ5qeVkZ7d6wivyDw6hrv8tqPc8+l00gnbsH7dl4cW5XrYWgAAIgAAIgAAIgAAIgAAJmCMB4MgMFSU2bgAR92MtznroPGkXtOnWz2FnxOEV37c1D/L6jPMxbssgJGSAAAiAAAiAAAiAAArYRaPEBI2zDAK3mRuD0od/VsDpri94W5GbT5uWfU/qFc83t9NBfEAABEAABEAABEACBJkgAxlMTvCjokm0EEk9Zn/x37uRh2yqCFgiAAAiAAAiAAAiAAAjYQADD9myABBUQAAEQAAEQAAEQAAEQAAEQgPGEewAEQAAEQAAEQAAEQAAEQAAEbCAA48kGSFABARAAARAAARAAARAAARAAARhPuAdAAARAAARAAARAAARAAARAwAYCMJ5sgAQVEAABEAABEAABEAABEAABEIDxhHsABEAABEAABEAABEAABEAABGwgAOPJBkhQAQEQAAEQAAEQAAEQAAEQAAEYT7gHQAAEQAAEQAAEQAAEQAAEQMAGAjCebIAEFRAAARAAARAAARAAARAAARCA8YR7AARAAARAAARAAARAAARAAARsIADjyQZIUAEBEAABEAABEAABEAABEAABGE+4B0AABEAABEAABEAABEAABEDABgIwnmyABBUQAAEQAAEQAAEQAAEQAAEQgPGEewAEQAAEQAAEQAAEQAAEQAAEbCAA48kGSFABARAAAWsEnJydqcfgMeSmc7emhjwbCQjP3sPGk6urm40loAYCIAACIAACjUMAxlPjcEYrIOBwAlcMvZUemfsJdYrsbbVubw8/cnF2sapzKTKbar/sZeHk5ESDxl1FnXoOIA8vn1qLB991HflNH2NVz3/mOAq5fx65hgRY1bOW6eTuRk66pmV82HLuck5ihEZ2jKPLps4iFxdXa6eJPBAAARAAARBoVAIwnhoVNxoDAccRiAhuT3HRg8jH099ipV2jBtA7922l+2e9bVHnUmQ01X7VhUVc/+HUlh/0f12zhHKz0mutQtcpitwiQqzqubYNI/fO0eTkrrOqZynTyUNHbZ67lz/31LkOS3XXJ92Wc5f6S4oKaduqxRQYGkF9R06uT5MoCwIgAAIgAAIOJQDjyaE4UZk9BO679g16cv6X7BXBm2V7uNmjW1RSQPLJya/9od6eeuur21T7Ze95+QWFUlc2nuIP76WUxHibi1cUltisWyfFsnKqKChSHyovr7WK4Duvo9B/zCcnl4b/k2DruedkptGxvb9STNfeFB7VqdZzgAIIgAAIgAAINAYBPLU2BmW0YZZATJtuFOwXQTLsCdIwBM4kH6Y7X72MKiprf4BumB6Yr7Wp9st8by2ndhswQmUe2rXJspJpDt/vlUXFpqkOPa5k4yn5iWpvY2XtVbtFtSGXID/iL2PtyvXRsPPcj+/bQZ16DaTug0ZS8tmT9WkZZUEABEAABEDAIQRgPDkEY+NWIp6aqLAuymOTmHZCeRZq60FYYBQF+oRRQspRKizOM6uuc/UgT3cfKi6t8lYYKrm5upOXuy/nFXJ7+fosf+9gKq8oo7zCbHLif5GhncjfK4iSMxMoPeeCXk/b8fEM0HuanJ2q3nL7e4dQWXmppkL5RdlGx/qMJrijMSssyaOS0iLVQ+HcNjSWcgsy6WzKMbOGi7Bqw8PufJmHXBPxxNQmUm94UDQlpp3iujMsqvt5B3Htxh6E8opSdY0sFqrO0Ll5UERQe5L5SMmZZymDr2El/3OE2Nsv6YOri46y89NU82Joy/ln5abQhYwEs1wN+yn3ZmRIR0rLPk9pWYlWz8OX71mxG3Lyq7jKd6xDRA9yc9Ux75P6dMP6vXz9KbJDVzp/5jgVF9Z+/QzLVhTaZzy5BDKLsCAqz86lshTuY0XNa+Ls6UFObjV/0stzzH/fnb092dNUPRfOucpocvbzJiqr0He1oqCQxBAzJ6pPoYEk5yJ9qiy2zZtmz7mXlZVS4skj1KF7PwoOb0fpyefMdQVpIAACIAACINBoBGr+pW20ptGQvQTEgJk36WEa2esq9VAp5cWj8POer+mbDf+hguLcGlUO6zGV5k38J8nDoYg8CB85s4veXf5QDeNmBNd7y+VP0Heb3qSlW94xqqt/57F0z8xXaO3ORfTZTy/o8167+yf18P/pmmfp9iueVUadlrnr6Dp6f+WjVFB0sV//uP499VCq6cj29XvWGR7S85/Pp8NndhqlNdWDId2n0B3TnqOvfn6Fjp/7nW6f9iy1YeNDk4c/mKkMKO1YtkO6TaGbJz9y8ZpUVtDeE5vovRWPsIGTZaiq9oP92tC9V7/OgSF66fN+O7xGv2+68+LtP3DdgUbJRxJ20nOL5hulGR5IQIlrRt1LkwbNJXc3T32WGHafrX2ejiTs0qfVdcfefi2Y8TL17jiC/vrmBLqJeck9qIkYpW9//w86l3pcS9Jv46IHqntRXhhociHjDC1c+xwdOLVVSzLaPn3LYvLj78gdrwyhm6c8RsN7TCMxJEXkPv7Pkr8Y6ctBREys8pomnTpaI89aQupLH1NFfpWhbU1P8py9PCjo9qvJs1839gpVaZcmpVLmR8uoNDHFqHjA3Knk2Z/1TCTxrudMUqoOg++dQ7qYCKM8mSdlKGmvLaLiY2cMk0jXPpL8Z09WWy1DDKz8jbso5/sNVFlapiXX2Npz7lrhxFNVxlNEh84wnjQo2IIACIAACFwyAjCeLhl6+xp2Yi/Nwzd+RLFt+9K+k5tJHp5Ly4tpRK/pNGHAHAoNaEevLL7L6O361CHzac74v/Ob90Rasf5l3iZR9/ZDaFz/2fTsbd/RYx9dq9Ls60lN7fDAGPr77Hdp97H1tOLXD5WHakL/62lg1wmUlZdKYlhp8t3mt5S3RY5vmPAPDnYQQB+sfJwq2HulSRJ7VuojvqFR1HPyHVarKCsppJ1fP29Vx57MAV3Gs/Fxj+K57eAKfnlfqoYkprD3xlCmDrmFr8kDJOcoBm8+G7x9Y0ezQTydnrj5c/rn+zOMvG4eOi9O/4ICfcPZwNpIe479TAE+oXRZz2lGRpphG+v3LCYpJ+Ll4Uujes80zDa7f8P4fyjDSYykDXu/Vd7JrmyETBp4Iz0w+3/0xMezlQfGbGEbE+vSL6n64Rs/ppSss1X3Cb8sGBQ3ifoxswXTX6JHP7zWyAPVr/MY+ss1/1Xe0aWb36Z4HrbYLiSWJDLhA7Pfoec+u5mOsZFrTsRYEuO+S1Q/+iN+B2XmJitP7PFze82pU2hke5WekZJkNt9SYlmyZa+haZnA+VexVyeTsj5fSZXsbfIc2J08unekwNtmUMqz7xt5oIoOnKDyzBx9Fd4j+nOwCMvR9nJXbCJnn6r7xP/aCSSeqMxFK4ldyfo6Si9Uef20BIn+F/znOeTExnYOly9NuEDOvl7kM2Yg+Ywfooy9zIUrNPUaW3vOXSus8Q1r215LwhYEQAAEQAAELhkBGE+XDL19DY/oeaUynH499CO9vezveiNp+x+rVCQ1eZjsFjOIDp35TVUsD9hX88N8NgcKeOrTG5URIxm/HVnLb+tPsOfjUbpuzF/pHX57X1+RaG9vLv0b7Ti8Wl/VTm7n1QVr1YP7wjXP6fsrBoAm14y+VxlPWw/+YGQwaPl13eq8Ayi6v/UIXSWFuQ41njq360tfrv83/bjjE/25mva/TVAMXcvnfCEjnh77+Dr9MD8xhGWInxi7o/tcQ+v3fKUvOnHADcpw2nLge/YWPqxPX8c6T978JRl6V7TMJZve0HbZwIqp1XhydnKhUX1mqj7868s/6a/FnuO/KAPixgkP0sje09m79qq+3rrs2NsvrY0Dp7fSJ6uf0Q5py/7v6Sn2FMmwug4R3elk0gGVJ94zMQLFv/o8e9nEayYiBufB09tUcBK5559bdLNKN/dfgG8YPfDO5TW8suZ0A0PbUHkZD1nNtt0YMlePtbTCPUcoe8lFz2zB9n0U+uAtyuuj69iOSk5cNM4Lft1vVJUYWi5WjKeigyf0+n5XjiZi46lwxwGLw/RE2YM9WzI8MPvbdZS3foe+fOHuwxT+1J3kNaQ3ZS1ea/MQPn0FVnbKSkuoIDeb/IPDlaevsrLmkEUrxZEFAiAAAiAAAg4lAOPJoTgbrrIx/a5TlS/j4XSmc1BW8wO7K8/R8OI5IpoMZ2NLhl8t3/aB3nDS8mSY37Rht5EM6fv4x6eM5jBpOvZs84tyjAwnKStG2zmej9UxoifJA6m8xW8sSY8/QIvvH9xYzal25OF81Y6PrbYpHiAZerlsy7t6w0krIEaXGE+D4iYaGU/DelyhVEyHUYqxdTjhN7PGk1anrVu5n8rKy9T8Hl/PQMrMuzgcTO4VGepmaZ6crW3UR088VoYi/T10ZocynsLZONSMp7iYwcpYFGNUM5y0cqfOH6RN+5epuVxamrntBzzM1NxcPXO6Ok8vKi2ybfidufK2pJkaRFKm+PApZTy58nwjQ+PJlvrqrVM9/8klwNeoKpnvlPrSJ1Vh0W2I7mdU2IYDCV0uc8x07p5UXGTf/DIbqocKCIAACIAACNhMAMaTzagurWJkcAcVrEEmr5uKeJs0j5OWF8H6IsfP7dGS9FuZJ3Uycb8aVib1yoNlQ0gBG1UiMnSsMY2nhjiX2uo8feFQbSrUjoN8iPTsMFR5TEwLlFeUUxgPvzQU8SyJoWQ6/M9Qp777lTznaikPp5T5dC/duUJ5Jw/F/8ZD17Yrw9vcPVffNutbXptHJ0FMNJF7WUQzprR0bfvByse0XYvb0+drv45S2NVNpxZvzS9pWOPJXEclBLmIDLNrbCn47SB5j+xPPhOGkK5zFMlQweIjp6nkdBKVZ1wcMujofpVUc3ZngxXGk6Ppoj4QAAEQAAF7CMB4sofWJdKVyF8yN8jWN+LSzSAOMiAiHiBzoqWLXkMZT+babYw0D59Aiugx0mpTFWUldGb3aqs6js6MYC+JiMxTsyRaYA/J99B5K++hPdfdUr21pa/d9Tl7a44pj+Rl7O3S5knJfJ8lm9+kP05vr62KS54vQ1VFJFojpGEIVOQVsIfpY/IeN5i8h/Ymv2mjiPgjEfQKNu+h3NVb1b6jW8dQPUcTRX0gAAIgAAJ1JQDjqa7kGrGchAIXY8fXK8DmViU4hIg8UJrzHPj7hKh8TU8OxPMhIpPBm7N4h7SjwbMftXoKMuepsY2nzNxUFeTh/rcnU2rWOav9k0wJCS/D5SQKXGOIROSTj4Rf7xrVn/py8IUxPAfrQQ6i8No399DvBvPVGqM/9rahGZmmkQbtrccWfZmHUy5DHXXutqi3KB0xlHJXblYfGTro3q0DeV3Wh3wmDSNdbDSlvvKpUSALR5y8xtnekPCOaBt1gAAIgAAIgIAhARhPhjSa8L5EZ5OAEO3bdKd4kyFisqbQYI5AduDUNjqRWBUZLKl6eF9c9CAefvWr0ZmJJ0sCHMjwvfPpp/V5GTnn1b6fSZhrSZRof46WUvb+iMhaPobrPNW3nZwLp+iXt++yWk1ltaFoVcnBmQkpR9Q17NVxOIeXN57HY6mp8xnxat6YrFdU3yiEltqQ+6cb3yenOPCCeCFLyoroAM/hks8+DqH+9+vfpbEcobGpG08any7t+vOpfljjdCUqpaxjtnwbR6lzgMiDvAwjawlSyYEvlLjyixML6zpJvtew3motqfzNHLGQAzeUpWaqjxyHPnAz6Tq2Jbd2bTgKX9VvSVWl9f/f3cOLm6ukkuLC+leGGkAABEAABECgHgQc/0Rcj86gqGUCa3ctUpkSDluiimkii61eM/Ieunrk3WyEXAxLLNHZJJDDhAHX15hHM2XwzWrB3I37lqp5VFpd8qAuk/F7tB9qZCyJsTW277WamsO2spCuSKe2vR1Wp1RUWpRPKSd2W/2knjIfftqhHTGp7BcOAS5exGt5PaXwwGijXBmi96crnlGGkmHGxr1L1OEsjhInUfE0CfFvyyHOx2iH9dr6ePir6Isy50mutaFoCyKX8OLIlsTTP5T6zbiPuoy63pJKo6QfPbtbBYroGzuKw42LAXVRYsK78Zyuf1KvDsMvJtZzLyv1vJr35OPfOJ7BenbXanExgkR07dta1fMa0osC5lxOHj1jjfXYsKksqXoZUllSapxXzyNXVzfy9gugrDResBmR9upJE8VBAARAAATqS8D4Sam+taF8gxGQhTp/P76BZB2bR+YuVAt3FvMDrUTM6xo1gCTctwy50iSvMFuFzr5t6pP0OK8TtGnfd2oNIvFeDe0+Vc2fWrLxYkhrKSdD+HYe+Ul5sR6a8wF7GjaoN/VDu12uVevQrYQz79NpJC246iUVYS6P56qE+EUq75mEVG9pksgh4oX5rLH38Tpb3/J6SkvYm3SSIkM6Uf8u4ziARxsOqb3daA7apv1LaeLAG0jWkXrsps94ja9NyvAVfZkHZ07m8yKvnjofleXh7q22kcGd6K6r/qVX//n3r0mMDZFjZ/eo+0nW5Xqc15raenC5WthYAjDImmAynFP0LUnX0Tew4TRHZafF76eMBPNBF+ztl6X2LKVL4AtZ0FfWpZL1mjbyPZ+QfIQkeMp4Po+S0mJaZLDAs6V6bE1PSYynyA5dKTA0okHDldvaH5+xg8iNF7DVxNnLU+0G3nJxjl3J8QTK38JeIxMp3HOYPHp0oqBbp1P+pj28iG8huQT5cyCIRJI8TXKW/UIhf7tJLdwr9YiHSUKXe/TqTO5xHNTmSDyVmawNpZWt6zYwrGoh39TEM3WtAuVAAARAAARAwGEEYDw5DGXDV/Tat/fSzJELaEzfa9RCq9KiRGL7khfAXbNzUY0ObNy3hNJykmgur9Mjocll6F1RSYEKK/7J6qdJDCxTkXRn1hvQdbxaULeAF3GVdXW2sHH29C2WH6BN67HleBN7viKC29OUwfPVeUkZGb6XW5BhS/FmqbN8+wd0hh/oZaHcyYPmqmsijCUww4erHqdDvDiroQiPZxbOo9unPasW041t24dKy4pJvFiFXG768DsN1dX+4LjJPD8u0CjdzztILayrJUpodc14Em/j27ze15TBN9Hl/Jk38Z+amopct2Tjf2v0S6/AO5nnjvACruUk88jy0hMNs4z27e2XUWEbD2SR3yc+uZ5uvfxJGtdvlvLGilF1kIeufrHuJV7j7LiNNdWudv7MCepz2URq2zGOzp74o/YCDayhi40iT16HyVS8Bve8mMQL4JoznmT9KLfwYBVFz/eKqmArlTx8TwJEGEpJfBKlvvwp+c9k4330QA7556SyJVS5rPskC+c6WiJiOqsqE09Xrdvl6PpRHwiAAAiAAAjYQ8ApJDKq0p4CDakbEh1HOSlnG7KJFlO3BIKQIVbp1fOUajsxD52XCh6RnHmWh75U1KbOkd5EP4xkaJ0t+rVWaEVB5+bBQwuj1JC21KxENqCqhv9YKdIisuS8g3zb2MxY1ogK9otQYctlvlpDiUT8k3lvcm+JsW2LuPPCxKVFeVTBQRSaisgwVgn9npZ9Xs3jaoh+DZ4wgyLbd6HVX7xFRQX5DdFEo9bppHMj15AAqmQjqzw9y+qCuU48P8olmHV5mF55Vq6aA+Xozjq7uNCUGxZQfm4WbVz2maOrR30gAAIgAAKtgIBfWBSlJRxx2JnCeHIYSlQEAiDQ2gj4BYXSuGtuoVN/7KH929a1ttNv8PPt1HMg9Rk+kbas+JJkmCQEBEAABEAABOwl4GjjydneDkAfBEAABECgikBORiod2b2V5CE/NNI4CAgY1Y+Ab0Aw9Rg8muIP74XhVD+UKA0CIAACIOBAAjCeHAgTVYEACLQ+Akf2bKVzJw7R0MnXko+/8Vyz1kfDMWes8/CkEdPmUEZKEu3d2vKCxziGEmoBARAAARC4FAQQMOJSUEebIAACLYrArl+WU9yAEYRFXB1zWUuLiyjh+EE6smsLz6NruPl9juktagEBEAABEGhNBGA8taarjXMFARBoEAKy/tDhXZsbpO7WWKnw/GPHhtZ46jhnEAABEACBJk4Aw/aa+AVC90AABEAABEAABEAABEAABJoGARhPTeM6oBcgAAIgAAIgAAIgAAIgAAJNnACMpyZ+gdA9EAABEAABEAABEAABEACBpkEAxlPTuA7oBQiAAAiAAAiAAAiAAAiAQBMnAOOpiV8gdA8EQAAEQAAEQAAEQAAEQKBpEIDx1DSuA3oBAiAAAiAAAiAAAiAAAiDQxAnAeGriFwjdAwEQAAEQAAEQAAEQAAEQaBoEYDw1jeuAXoAACIAACIAACIAACIAACDRxAjCemvgFQvdAAARAAARAAARAAARAAASaBgEYT03jOqAXIAACIAACIAACIAACIAACTZwAjKcmfoHQPRAAARAAARAAARAAARAAgaZBAMZT07gO6AUIgAAIgAAIgAAIgAAIgEATJwDjqYlfIHQPBEAABEAABEAABEAABECgaRCA8dQ0rgN6AQIgAAIgAAIgAAIgAAIg0MQJwHhq4hcI3QMBEAABEAABEGhiBJyI3NqGkUuAr9mOubYJIdeQALN5SAQBRxPw9QqktqGx5OPp7+iqUZ8ZAq5m0pAEAq2agAv/wQu86UrK37CLCvccvqQsPPp0JZ/xg2v0IfvrtVR6LrlGuiQE33kdOXl5GOWVnr1A2d/8ZJSGAyKXYH8KvPmqGigKtu+jgu37a6TXlhB46wz1MJX+3y+osqy8NvVmlx/y5zlUWVpO6e983ez6Xt8OB99zPVFlJaW/tbi+VaF8MyfgEuRHIffMIdeIEMr8dDkV/Frzt8J7RF/+7R5CRQdPUMYHS6myuKTJnbWzjxdV5BU0uX61hA4F33UdlSalUs73Gxr0dC7rcQXNGns/Bfu10bez7+Rm+vfiO/XH2HE8ARhPjmeKGps5AWedG7l3jqaivUctnolHj04kD8q5P26hvHU7auh5De1F/tdNYoNlLf9hPVAj39YEZy93cg0L0qs7s1Hk5OZKsrUkLqGB5OztqbKdXJxJ/kBeSvEeNYD8po+hrEUrqfD3I6orQXdcQ+5d21Pyk/+jitx8ldbmX3+hsuQMSnv1s0brrpOrixFfJ772zp7uVHLsTJ36oGsfSa7Mn5z4tbQFCf37fHJtE0zJj71FFQVFFrTsS3aLjqCQv9xgtVBpYkq92epio9l4KrPaTkvNdOdzp8qKlnp6OC87CAQvmE3Oft7q96ssOd1syexv11HxoVMUfPdsCpg1iTI/W2FW71Il+k4Zrn6Xc5b+TLlrt1+qbjRau2//5xUaMmgAjZxwORUUFDZ4u7pOUeplS0M2NChuIt01/SUqKsmntbs+p7TsRPL1DORjGMQNyV3qhvHU0ISbaf3v3tqLQnx1NPvNPVRWXtlMz6KO3a5+8K0oLLZcgRglYsi4mv8KSbq1fMsVG+eI98PQAyIGm9egHsZKJkcpz7ynTxHDK/ypu/THl2JHjCNhIV4eTXQd2qo0t7ahVHyE89nYc/HzodL4JE2lUbZirF146D/6trxH9KOAG6fqjxtiR4wzZfxaMbDsbVfeapcYsNNFt1FGc8npRNLu4/LUTHurhT4IgIAJAfe49mq4Xt5Pv/LLHvOGk1akiI2n4qPx5DmkF2V//wtV5FS9KNLyHbH16NWZfC8frl7S5W/abXOVFfmF6kWIo17g2NzwJVJcuXotTZ82la6cejkt/va7RulFRWHDehtnjfkrVfK/F7+4jU4m1f0lbaPAcGAj/WJH0/QRd9Lm/d/T+j1fObBm26sy/+Rne3lotlAC3dv6UGQgGwf8j1+ftNCztH5alUVWjCfrRZFrQKA8I1sdaXMDlCFVPU/ALTKMjad4/byBsvQqXYPi2LWBgDzEpb/xpV4z+N455NG9I8nb75JT5/Tp2AEBEKgfAV1MpKpAPLm2SGliKrl368gGVzgV55yypYhdOjKyQF5GFR+1z1uev3kP5W/9naiidfx9X7vuZ8rIzKQ5s65pHOOJX4415DOEzs2DwgOjKTUrsVUZTvLl8PUKok6RvelQfM1RP3Z9eeqhDOOpHvAau6iLsxMFebtRcVkF5RRWDZ3x8XClnu18qYTTjiTlUUGJ+XkW4X7u1D7Uk06mFFBarvm3IQFctxu3ISJtiYT66aiU69Ykq6CMSssvHgf5uJEL/0ikmqkzkOtz5XrS8kpkqoCRSDkxzNI5T8TVxYl68Xno3JzpxIUCfbrk+Xu6ks7VWd+GGHUxIZ6Ukl1M8WmFVN5AP/7aG3vpg8OF8bqGBbN3wJPnLqU0nfHwzs7kFhlKMtxPHg4cMW9HM4hcAvwURplkrYRvCm1fM6w0Q8uUt5M735vtwnl8fiGVpfDbXpP7yVBfPDtObm5ULmP5K6ruVZmbIG2Us3FWlpJhqF73fbmG4XwN2aumWBWX1r2uZlpScfX1prK0TCrPyLF6FjLcVOMl17ksPavGdZTr7OzuThXFxfydMM/Tmdtz4t+c8pw8s+25+PvydyuQStmgbIg3/dKok4dO3Y/yw1bG8xps+a2wt18ypFQeuCvLy6nsfCpvL/7uaieuhuV687yVal7CWH2n+PtbdoHPn70LjhaXQD81NFXOWb5LtszlaSnnLiy136rKEvP3pylvTc8l0Nc0q87Hcm84e1UNzZbfOxH57oj3XhO5b4yuP/+2u5gZwl3BXmtz11AN/eYyMnJARg24BgeQeLJl2K5LEB/z8GT53bM2Z8re6y5tuobLMHUndW9Zq1s7T1u3paWltGTZcrr9lpuoU8cOdPLUaatFQ0OC+dmnjLKystXvTZfYThQcHEzxZ85Q0vkLVstqmbb8Lmi6tmxdnF04IAQPC2cJ8Y/kfjlTfmE2+XuHGBXPyU9XHimjRD6Q8u1CO5Mzb8+mHONRRZbvYWcnFzZS+BqXF1NBUa6qytPdhzq06c5pJZSQfJSKSwvVc5yfN7NivcLifIoO68LPczo6xZ4w8YrFhMeRu86L4s8f4udU88PUA33DqU0QT5UoLqALmWe4npq/7VKnt0fVM4SXR9V3Seo1PPfyilLKYx6NITCeGoOyg9qICHCnjY8Oow2H0+mfi4/Q63N70MCO/npD56mlx2nhZuO3zOJBemlON+oWefFH9fiFfPrrokPK2DLs2id39KFeUcY/8JsfG2aoQje8/TvtOMEPPdWy6u+DKcRHR7F/+0VL0m+/uqc/xYZ7Uf9HNlN2tbGnZS67b6AyBPty3lPXdKHp/cPJU+eistfsT6UFnxzUVOn1eT1oVFwQjXxmOz1xdWea0OPiD4UYjPd9foiOnXfccAh5i5/81Lv8oH3xPPWdccCO54BuFHD9lItzkfgBrOjACcpcuNz4j50D2rK5Cv4jKfOSfMYOUnOqpJwYTjIRWoJT1Geei/wBlAcI7aHDlb1NIsXHE8iVh+2JOFd7okwfwOWtauC8aeTRM5aVqgx6+YOUw0Ng8jfuVmVN//Pn+QVeQ3tT6osfk1v7CPKbNkrPWh4mzj/wqmkRu49lTlzgbTPJxb/6e8VGWs7yTeqPrN2VNcMCYmAH3nwlyVwrTYr2HeV7eEWNeVzyoOfL18Bn3GD9vSVl5MEre/EadR9odchb/ZD75qq5cRnvLdGS9VsJ5tLm6bupJCFJXV99Bu+Ica36xFtNStnoyPxwmWpLS6vvVr4jfjPGksyPE5F7W+Y+5q7eZrZqe/slBpHv1JHkM2kYDwuu+k2U72Le+h2U88MGI0+B8A/9x3w1Z0WMOP+rx6u5OKpfbGzlrd3GZTaa7Ze9iTKfz3/2ZJKtJtKv/I271KR4c78RLeXctfNV2+rfoRpvBI2UDA74911EDH5HiXtcBzWXyrA+uS/lo4n8vhrOH3XjFz1hj9+hZeu3uSs3U86KTfpjbUe81zLsu3D3IZLhzCLy8kn+Jsj9yU/N6gVH+tuLqdhkjqi9112MPvnd9uzfTdWr9aFo3zHK4r8/ll6qaXq2br/6ZokynmZfezU9/9IrVovt2LSeDh0+So88+Qy9+q/nKK5rF73+j2vX0f0PPkw5OVVGhT7DYCf1pY/577l5Y8FAza7ddqFd6NnbvjUq0yGiB735F+Pv+O3/HmQ070mMpmtH/4UmDbqRX0RXzZcWw2nz/mW06KcXzRo1QRyA4rW719K+k5vog5WP04LpL1PX6P78Z7jqN+mztc+reVbiAZP2D535jTzYmOkY0VP1b89xHqZaUU4Du05QxzIf6/GPr6fcgosvL2Pb9qGbJj1Ccg6alJYV0y97v6Uv179sZNz17DCM/jbrbU1NbScNvJHko8mRhJ303KL52mGDbmE8NSjehqm8Y5gXffuXAeTp5kI/HUyjbPYGhfi61TCG+rf3py/u7sveqAp6eeUpOpGcr7w7t4+LpiVcfvqrOzmN385Xy3/WnCbxFok8clUsiSdKjLQyA8/OSQP96mJ13oixJAbbgA7+tP14Jl3ILiEfDxfaE2/+zcHnC/pSQnqh6pN4m6b0CaNx3YPptRu701Wv7nKYB0oeCMoupNX5vKwV9Jk4VD3gSP0ShUfGm3v0ilUP+xJIIOXZ9xzi7bHWB3N5wf93LXn07kwlJ85SvkSO4gcvz4Hd1R9N+UOY+vInRg9t5uqwliZGkWZoyDyn8uxcKuE/7sKDnyr0hpX8cdbE2dODwh6+jeRNt/zBlqhV8kfWe1R/ZXy6hgRS9pJ1mnqNrd/MsSoohQxbKztwnF+78Y++A4IdyMNj8F9uVA9DMsdA5hoJIzkXNZepRk9aVoJ4N+TBqviPk/xA/xs58XXyGTuQJDKk34x8yvriR6MT9ucXBd7D+5LM/yjY8rsyNnRsfEoksuAFsyjl+Q+prHo+ljyEyXfDo3cXZfCavnn24rkj8tCWv2mPURu6ju2U0SWGTM6yX6iU69CxYSHXJPTBW6racMB32snDnfxmjlOROEsSzqu379KG3/Sx6kFJhkIZSl36FcTRMuVlgdzvBTsOKIPT+7K+5Dv5MvUdkuhupiIPnc7MWO5HifAlXgHh63v5COXZrm/UUAm5HcyRFp34IUwetEsTLpCzrxf5jBmo2pH7XgxnQ2kp5254TrIv94BIeXae2tb2n+Z9cHLX1aZqc768eNDuA/fYKPKS7xf/xhXuOaKvo8LEMysvjsQA10Q8lGKEWRPlxeff54wPl5LvxGH8sqSNakuCX4h3V4JOyD1maDzZfd35xZ0E1ZC6C7btU/e9vCjzHNCdPPvFUTC3Iy/CNA+etf7Wlnfk6DHad+AgXXf1DHrpldf54dz8SB2tng7tY2jRx+/R6rXr6a13PyBfXx+6ee4NdPmkCZScnKIMK03XdCvzaR0t6TlJ9N7yh1W1MnRtzvgHKDkzgb7f8j+jpsQAMZS/XPNf6td5DB09u1vNE6qoKKOhPabS2H7XUTR7hp7+9EYevWmeRURQB3ri5i/InY2k3Ud/pvyiKk9XQspRwyaoa1R/+nbjf+nnPYvp+nEPUP/OY+nY2T309vd/p8Fxk5URNa7fLPp+a1VfI0M60oNz3ud2K+irn1+l+ORD/MwZQpMHz1MGkTN71T5d86y+jYTkI/pz7xo9gEb3uYZ+P7GRdh5eo9fJyjf/3OYfHGZtsIq+vD07MJ7sodVEdKODPWnVvhT6x5dHqNDCMD03fnv5wuw49XLseg76oHlm1rGxtS8hh97/U2/68+QO9OeFf+jP6pdD6fr9+6Z0UMbT0l3JRsP09AoO2gnzd6dxz/9K57OMv+zmqt98NIMe//aYPuu7XRdo6V8HKm+ZDF2U82psce/Wwehtuta+/CEwFXmL53flaBVRLuWFj/R/DOTBRoaj+UwYQl78kGTPpF/TNupyLEaTfGTuUfqbX+qHB8mDWxB7V8RTJg9v+fzgW1cp42Fa7l1iVHH5oy1vyeUhT97ey4OZ5pUSPU18p45QhlPuqi3s1bn4Zk36JQ/E4snI37rXoqGra9+W0l5bZPSHXau7PltfvobiHZAHCPljr0nhrkMUcv88vbdAS29pWwmGkvXlairaf/G7KPdwm2fuJq9hfSjrq9V6Q1seNL0G91RDcFSI7+phlEVseMmwPL+rRqu3zblrLnptxDBS3kMul/fzbxfxsdEkxlNFYREJa03EOxM47wp1mPbKQnVfyYG8tRbDVgw08T5mfPCdVqReW/GIiWGjiXxv5MWHnIvhHJK69EtYieFU8NtByvz4e60JNqIOUugDN6nzl0AF8t0xFBnulPriR0ZDUmU4sJy712V96r3kgocYZ2wkyxw6wwfwwt2HOSDNndyv3pS1mD3U1eG4W9K5G3KWFz1ilMtclpIz542yLB3IMhEibjERllTsTi/PzFEvlFRB7pMYTzK3ylzIdK1yGeYq108T8SbVZjyJbqa8DOHvrbw0UUt48AsCWcpBROqoGmanDtVvn73fRQluI38v5ffEMCKh3FsS7ltepKjot/yb4Qj58usl9OIzT9DYMaPop/W/WK0yIMCf7vzz/bR85cUXQqs48MT2DetIvFePPvUsP2NVWq3DkZkyJG3zgarfhbCAdsp4ysnP0KeZa0uMJvn8Ef8rvfzV//F70aopH1sOLqe7Z7xMQ7pNYUNkpvL2mCsfFhhFv7GB8u6Kh6mktMicikqTgBUrtn+o9rtGD6SRvabT1xteVwZbAg8RFA9URHDVM4Aojeo9g9zYC/bhqseVB0wV5P/EY/XqgrWcP5M+W/uC3qjLyE3Wn6cMVxTj6RzXq/HQypvbBoZGUEaGY41ZLJJrjnQTT8sqKKUHv7JsOEn3h8YGqCFz3+9O1htO2mn9zEbS6dQCmtQrhF/w8BPJJZSH+DxsMZyki19sSzLqqfxm/XqiKoKYzOe6FCIGgTzkm37UMDOTDsmDpfwBkiE+pm/R8tb9qrTlTVtji/fI/qrJnJWb9IaTSmDAOcs3qF3vkf3Utq7/ybALeaCSYXgy5Ev+0GsPgOK1Ea+UDPvRwpaLd0HalLe2uTz0yFDEWycPkPJ2UjwaliR39VaHG07yhl0CMcj5GEZBlD7IfAB5qGnpIsaLoeEk5yvXTR4S5RqLp1ATechM+vO/KPmJd9QDmJYu25ITCerQVZsDV50pD4BiWMlDv6FI6F/xqEjof8Pvj65zDId+D6FCNji0e0orJ2/j5Q2wR58uysOppdd1K+djaDhJPXLdi4+cVve24ZC2uvTLe/RA1TUZlmok/PCa98tOdQ7i4TMViehmOpev+Fi8UjNc6sC0nM3H7I0X0V5yaOXEWEp96RNKZo85GbzFb1Hnzicrc9zEEy9r6Mm8vRx+oaPNp9RYWNqKV0a8rhIlVQxst4hQ/u1qRo9e1caBNixT28r5yr78TdOkLtddRnqIqLmM/FLKUDI/W0nJT7+rvmOG6fXZX7Z8JRUVFanAEbXVk52dY2Q4iX5qWjodPX6cPPllQnhYWG1VXPL88f1nqz58t/ktveEkCZXs8fl24xsqb2z/WWpr7j8x2N5f+ahVw0nKSX2aaJ4v/bba6BJjSRPxNs1/sff/t3ce8G1V599/vPd2nMTZe++EhBUIYRPCDnu2QKEFCqWLllEKtH1baPkXSqGBsssOFJKUTYAQCCOL7L2c2PHe2+/zO/KVJVmyJUu2Ffn35OPo3nPP/F7p3vOc85znOClOuIb1TliPBXPArLT+VnS/PmNiA79dS8u33q+qMXFXEth5qEoqa2wPHE/ljuqbYC71T4+VO88e0SoaHDBgdqqPrqPKKfI8mtAqYYADvt/n2WbYm6IsxxnJ6lSiOwT7Y1Q4jo43VyJOR5Cx/sBRYK4GwWifu5kpvIy7Y0d6dDzhcal2x37H6ppjdDxhOhXZW+NAz+7gIJtljgeTDsxGoJNrFpvrizNSlSl0yhzt2uFcAmYuMO1z5zigZvteUz/sl+RJ6tSsKtBi9nDSTI1b8C4ccQx0OzojP8vlcbg6MLDut1UOZkYwa2QcTKiijNmrMN3DDIJZPEeBwlz5zXqjGON3AhMxCNaxQVxN46zfFRa1p1xwkonj+F+YmjfblDp8xzpHucUsBGahYUpq/Y58rpf+vjCwAMUQJneuYjkDiOyV6nrJ7Tl+N3AyYTkUcBvJy0DMhGGQBbPj0SMGmDWaUBhrd+a4ZRpKbQcizLxb3y3MCIKHL1L4+GuSdtV8Y+IGMzesRcKapFATn++7Aqjbn2tmRmF62vveG816Ryic8B6Id4+r6a6/zMrKysS4LT/zDIFTCChDvoq11iklOUkO5ub6mrxL4/fNGGpmb7bvt80WOhZ+sHCXWYOUrXHgwAsOHlwFcTpz36jRA2fI5OGzJT2pjyTGp5puxgB1OgGJCA9Mvy46jsqT633luQcCQ3rZvixHjkgT/HmSDPV6153Kk6d6HS7hTdrRc2f7jnBXgXc9CDbQ9SRYR9DVAsWlEZsGNptUuZbfoHuToFMHsx2rg+wap71zSzGKHTfURIXZHsqDcw6Y8aEOdftaXkKWZyr7TJRLAZYXNcdZDpconXIarh1/CMwsKd4RwKwPzD+hwEDpxOxcY1mlhDfYBnjc5QLTVcwqJujsU7EqTxjdjlfzUXQ46w8427VjJgCCTZfx50ki1EtfZylPlkviMJ2ZtMTXekE5wgwHBCapngQj9F0t6MBiAXyC1itBlViYQYr+GUVXzbgwy2ut7UHdQqntaI+ZXdy4U6JhaaB7KtXuzjEzmrjmjWDWKU5/Bxgwwubr9fmd44zIm7p0Zhxf77upi/bXsaYqXk1hzRq6E2aawQMo/tW6qXrpO8t8Yu1N+1569Q057+z5cv45Z8tj/3rSmySHbZx09WQHj3wN6rzBnZSoZz544IMHu4rqzhlcclduVGSM3L7gMRk7eKYUlx8SrKEq0U/Us1+v4e6SBFVYYNS6oGoSKwMCuaW2zjvM+15bGfgReItyQ/MGujD/a+RIvIXF7SecJMA+/OCdOn0eRC9PKDaYUcEMgDt3yBHJCcbGv6OKE2BYa5lixw4zs1d1B1V5QrgqUZiNCk9Ud9cOziIaCmwPcWu03UR2+M8Kd53hcIjSKYcNRbaZUn+U3ILHXjEzL5c+5gIAAEAASURBVDB/C3XBjBMUJ3S+8x9+wakTFD2sv82LohsImG1ChzVu+jizTiN28igzY+k664SkDcW2ewKHBdZaDDdZdmqQ5SjEcdDE13qBEUyYMDBw8Dd/79T6diRzY0KrntngnQ3PC8y0wbQSXgGjh+t+Mw8+Y2awkXeotR3fxfz/e1FddCdL7zuv17U4CyT3nn96hRFuveGlELP4eQ8s7BaHQF5VNACRfL3v9iLV8sHaEB6m3diIGDNRcBqBY6wRtgbg7Gn8OFjx1UrZvXevXHTBuSGvPOWX5Oh+UAPMLI613skRHVx9w1SuKxUnlH/e7J8YxQkOJBZ99piTSeGvLl4oaYmBM4msqapwbHJAjp3tJQKSJTMJBgIb1YU3BC6+OyK19bbp2+hI2Gp5lgPF1VhDa/fS5xjT8ujqGNaTj62ZFayZCSYxI/l6E9EBchWYWeFlVucy2u8ar71zS8mBq2ns72OZ4sGVNMytMFfv+HKEoonOWtSA3m7NjqJH2uoKr2pdKfWHdNGpDhJED+3X4XUL8CyHdsNUMtQFChJmjbD4u5X3qXbWW8JxBJQvzFzBZA/KBUaiXQWOESBd87ty/zyMVo9nEHNfzZEe+1gvDFzA0yA66G2ZozZn36Uf8UdONF4uzcNeS8Z3GPfn0J+eNmaK+D1E9e9jr1Motd3eKD3AzCXWl2GGBffJG0HnH7+BSnX5ba3v8Sad13F0LyIIZna7W3y976gvlPCE46bZ19Phdw6HMHDMUvb+CvP+iZs6OqBNg5OHl19dJMOHDZVpUzyvmw1ood2UWU7+dv3Zhqub8WmtatAvc5jZyymnYEera50dMG7wLFPEOytUMW52YmGVifq2JfW6zxQEez95IzVVld5E8ylO2zX0KStGDiYCn20qNG69T1d33iepYwhHQZ/l5lMGy3kzWl52jtdxvDvf9mWbPKjtFwQ23YUcM8rZNPDokWlimQ6aCPxP3TSvNjM78LhnrZ2xsMBcB/sZWbvXW+Fd8Wl5NMNiZmvvGlOuLmpO0f1sIBVYrO6HQBmyZrXqc2ydXWTnuMDfUrCsYrCWDOuesEeQo4TrTFjSibNMR8TdTIRj3EAfN1XXGkUAmz8mnjDDKXs4CcFGku2K/gCxoWWPkObF4HAK4ij4nsHNsREPShT2l4F75cTjZ0isdrAq1LOhu85nzYbtpjOPUepWzhT0WZd0xrHqBdC2XsqxDh05xu/U1ZFF7LhhZvbUKMV7W0xPO1Iva++ytEvPsJvwWfVEhx3rZvD972rBerXUi09rPVOondCmWltHxtGJRyi13ZW1ZaYdNcDz+9MxjWVa3Oila3PHtN4cW27+o4fogE43S0fuO+qNfQ/drfOzzGGbam0KorvmweQb69HaMnV1l+6V1xep5XijOo44393lLg8Lj4iSMXOvkonzfiLR8W33u3yp3LtfP2einz/7ZuOEwUqLvZ8WzLnVnL739fNWcJd9Whv0YhNdR5kw9Gi7oudJiYJ7dsiwft4914sOBd76imZ7jncthI6r6xrlV7pH01PXTpLHrpogb6/KlW92lEiv5Gg5RhWbKboH1DO6oe7rX9sWY7s2faluVHvcGN1D6bKx8sLyHIGHv37qfGKV7sG0dI2OmjfLU8v2yrmqhN13/igZ0SdBCsrqZFz/RJmjafPUdLC3uiKn2AhgVLpMXW5jg82sO36onUF1s60zOpjdgTtWvGSrN+oIkNrTWwLnEo4dvxg1cYPA7h7uaSEYqSt59X1zjP9SLz7VmDjhOLx5DUWUOlZIu/osBBmB0oE9nSBYnAsPZxjd7/XzK6Xq6/WmkwoX5TCpq9E6YQG/X6KzLI261gUzT44Kk1n71JyxZdpnlYNRR5hu4KUIZRPurTELlqBeCzFbhX2y/DV/xIsX+/ZYYim1MBOL0DItAV9whsArYYx2mFPOO9HwqVNnAVAOjEc3s+DW/eyElRfcrGMNWd79C3U2xvfFylY+jp+ot6OSiXVkkOR5x0qDri+CQDk1m6yas675D4490LnD6Ds2v8WoPWaTzL5Eei8hOHcn8OQFUx44KQDWSv3OuhPEK35+sWT85CLBfmX4ruK7DXPTmDFDzSyh8VSnefkrUN7SLj3dOH2p0/Vb2OsG2wugfqVvfGhmJa0yOlIvuDrHdw8KGZ4R8CAIF9Pw4hc7WbeeUEUFa7esNX9WWZ39ib2zMn92haRfe67ZsgDOWLAGMnbCCMMC7tod98YLpba3ZmubMfZ201t7vE4ya4dFA9ZSYZY340fnG0cLGHSCl8Wi59423020oSPPutZtbzukQ/ddNzvHuwe/c8zm1ahnQgjePVgfDFNArBPzJFC6LMWpdvs+sx7NU1zH8AMHD8qyz5fL/HmnyV2/v18qse63G6XPqJky8YwbTQ1qK0pk08c2pcffKmHzWrjzhutw7Ne0Yv1is/ks9l4a0X+yrNv5hYYt8bcYn9Njg15sknvbgkeNx73yqmIZlj1RJg3Td1bzTFSSOpBwJ7tzN8vBwt0ysv8U+en5/2fboDcqXvqkD5J/vfNbfRzbfqNW2tLCQ5KcZbMOsML8/aTy5C/BIE7/1bZimfeXr+We80bIKRN7yfypvc2eTev2lsndr2+R55e39q5mNQfrpIaq04kfHD/AzFIhvE7NSgrL66wo5nPzgQq55dkNcu/5I+WGuYNg0SRbDlbIlY+vkZt0dovKkxMuwX42eNklqyc+sxu8jrrDPA0buaIDiM6lo2C0GXu/uIrj/hzoFDsqT44dUysdFpk75lOji58t5QlxsOEiTC4S5x5hVybQQYNbdbP7vPOzyMrWp08oR62UJ137hRFrzEQ4mu0hY5j25f3pKR1VxM7zo01HDeHojBf+6w2/965BXugAOnJBGATKh6WA4ByKmiX1Bwsk/8/PmFmAOO3Qwr08ZkiwvxHyastpgckDjjk8OOewyvD1E0qlu3ZAebAErsS7WnnCPSx49CUzawEuZq8vfUhUr9smZUs+M/t1Yd8cuJ13Z8YIJR+do2rMLrWxThADAHn3/0tSLzxV4lT5wAJ9KDro5OO+WDM6FouOfkLZhXMEeNJEGRD8Topfe0eq3HTwfK6X/s6wHxZ+h2g3Zs0g6EDW6IL6ElViXH8nJkIn/wdHH4f0O5+iAw2JcKfebJMNV+XY98k8I1zqECptd2mW+a0jzGmW3jWSw7m1Oa4/a0Ydsmt1iO954cJFOjg238y8WrOvGFgKj4+z17cjz7pWhXkR4Ot9x7MT+7Nh/zw8w/D+MqLPCfym4LYfAwiexHhV1ecp+NbnF3mK5jYcjiPmzD5Wzjz9NHn5tTfcxumqwNK83VJXXSERkVFSnNOyh14gysfGuthk9rSZV8mFc24zWcJRBNYbvfHpP1opG4Eos708Plr1isREx8nZx9wgp8y43ESH44indWNcmBOePP1SGdp3omzc/XWrrGC298iin8kN8/8o00bONX+IdKh4nyTEJQvcq3e2hGVmDwhAtygw1cwcOFpK82yj4YHJkblYBCL0ZYfNdbFGCbNS3kpcdIQMyIjVkYom2VdYLbX17tPC8qZ/WqyUqQv14gpnBcvbsnpaPLx84VWuPk8f+J00KtkRpjALCouICK49i/T7BZM4vCA7qxPSIVY6a4LOkU8dWm0L+LozQetIHQ6XNHBRH6kjy1AEOvUeqrkp3HljfQpGwjtF9HkKRwBhWpZR6rxRhjtQLyjF7gYWOqVNXmZq3L7rbxGDHsZBgDfPrhBpOxDFqdKcfs3Zqvw7b97tCR+cS2ATcuxX5Oop0lOaDoXrcwVbPGAmF8pGV89Ouq2zr/cdbUjT35Wu38Iz1dtnJH4nTeqAxzINd1sXN4FRUVGy6stPZeu27XLOhZe5idG1QRFRMRIeGS11VTYnOJ1RekpChq4VipKCUvdWR51RZlt5wjSvV0q2WZeVp8qP435RbaXDNbhXT0vKksS4VCmpyNc/z5YcmHnK37OpvSy9vk7lyWtUjEgCJEACJEACJNCTCcD5Q58HbjIWA5jttJzfuGOCmfbed12vG0jn6szd0+6iMKybCUwYp5sfZ6TLss+Wa8c9aOYSuplK6BUfaOUpIj4p5Z5gwRSfkik1FTYXxcFSJ9aDBEiABEiABEiABAwBnWWE50jsQxY3foTA46e7/cNggpauDj4gMKsLipkgUxv+50gg79Ah2bXb5oDAMZzHoUUgJiFFKksC552Xa55C6/vB1pAACZAACZAACXQigeq1W8wasPjpY43pptuidN88eIis/Gqd345t3ObPQBIggW4jQOWp29CzYBIgARIgARIggcORABwVlOifJ4GnSAoJkEBoEggPzWaxVSRAAiRAAiRAAiRAAiRAAiQQWAJUngLLk7mRAAmQAAmQAAmQAAmQAAmEKAEqTyF6Y9ksEiABEiABEiABEiABEiCBwBKg8hRYnsyNBEiABEiABEiABEiABEggRAlQeQrRG8tmkQAJkAAJkAAJkAAJkAAJBJYAlafA8mRuJEACJEACJEACJEACJEACIUqAylOI3lg2iwRIgARIgARIgARIgARIILAEqDwFlidzIwESIAESIAESIAESIAESCFECVJ5C9MayWSRAAiRAAiRAAiRAAiRAAoElQOUpsDyZGwmQAAmQAAmQAAmQAAmQQIgSoPIUojeWzSIBEiABEiABEiABEiABEggsASpPgeXJ3EiABEiABEiABEiABEiABEKUAJWnEL2xbBYJkAAJkAAJkAAJkAAJkEBgCVB5CixP5kYCJEACJEACJEACJEACJBCiBKg8heiNZbNIgARIgARIgARIgARIgAQCS4DKU2B5MjcSIAESIAESIAESIAESIIEQJUDlKURvLJtFAiRAAiRAAiRAAiRAAiQQWAJUngLLk7mRAAmQAAmQAAmQAAmQAAmEKAEqTyF6Y9ksEiABEiABEiABEiABEiCBwBKg8hRYnsyNBEiABEiABEiABEiABEggRAlQeQrRG8tmkQAJkAAJkAAJkAAJkAAJBJYAlafA8mRuJEACJEACJEACJEACJEACIUqAylOI3lg2iwRIgARIgARIgARIgARIILAEqDwFlidzIwESIAESIAESIAESIAESCFECVJ5C9MayWSRAAiRAAiRAAiRAAiRAAoElQOUpsDyZGwmQAAmQAAmQAAmQAAmQQIgSoPIUojeWzSIBEiABEiABEiABEiABEggsASpPgeXJ3EiABEiABEiABEiABEiABEKUAJWnEL2xbBYJkAAJkAAJkAAJkAAJkEBgCVB5CixP5kYCJEACJEACJEACJEACJBCiBKg8heiNZbNIgARIgARIgARIgARIgAQCS4DKU2B5MjcSIAESIAESIAESIAESIIEQJUDlKURvLJtFAiRAAiRAAiRAAiRAAiQQWAJUngLLk7mRAAmQAAmQAAmQAAmQAAmEKAEqTyF6Y9ksEiABEiABEiABEiABEiCBwBKg8hRYnsyNBEiABEiABEiABEiABEggRAlQeQrRG8tmkQAJkAAJkAAJkAAJkAAJBJYAlafA8mRuJEACJEACJEACJEACJEACIUqAylOI3lg2iwRIgARIgARIgARIgARIILAEqDwFlidzIwESIAESIAESIAESIAESCFECVJ5C9MayWSRAAiRAAiRAAiRAAiRAAoElQOUpsDyZGwmQAAmQAAmQAAmQAAmQQIgSoPIUojeWzSIBEiABEiABEiABEiABEggsASpPgeXJ3EiABEiABEiABEiABEiABEKUAJWnEL2xbBYJkAAJkAAJkAAJkAAJkEBgCVB5CixP5kYCJEACJEACJEACJEACJBCiBKg8heiNZbNIgARIgARIgARIgARIgAQCS4DKU2B5MjcSIAESIAESIAESIAESIIEQJUDlKURvLJtFAiRAAiRAAiRAAiRAAiQQWAJUngLLk7mRAAmQAAmQAAmQAAmQAAmEKAEqTyF6Y9ksEiABEiABEiABEiABEiCBwBKg8uQlz/joCBneO0F6p8R4mYLRSIAESIAESIAESIAESIAEQolAZCg1xpu2pMRFSnlNgzQ0NnkTXSYOTJa7zxkhk/QzLMyWpLiyTo665wupqW/0Kg9GIoGuJhAzZogknXaMFD/7ttTnF0vy/OMlIj1Zip7+b1dXpVvLC4+PlcbqWpHGw/O3mnbN2dJwqEhK314mkb3SJPXyeVK2+DOp2byrW7mycBIgARIgARLoqQR6lPI0Y2iqvPjjyfL55iK5+ok17d7z/umx8sINkyU2OlwWr86T7/eVSWxUuAzIiKPi1C49RuhOAhFJCRIzYqBIlO0nHpXdSyK0892TJHr4AOl12+VSvWGHFDzy0mHZ9OjB2VIXYTMQCIuJNve0QhVCCgmQAAmQAAmQQPcQ6FHKU0VNvVTqrFNBuY5EeyE3zB0k8TER8se3t8u/Pt7jRQpGIYHgItCEWReIzpraj20hIf9/U02dNNXUSmNZ5WHdVvt9a576NjNph3WLWHkSIAESIAESOHwJ9CjlacP+cpn628+9NtkbnZ1o7uw7q3IP3zvMmvdMAlZHu6rG3v7Gqmr7cU84qNt7UHJ+9qCa7HlnohuUTPQ+ut63puqWexqUdWalSIAESIAESCCECYS88pSRGC3hzWuVrPtY19AkWLfkThzj901rcQ7RKynaHr2kql5qg3y9U0R4pCTEpEp1XYXWtUqiImKkb9pIQXhuyQ6dgSuxt8fdQXx0smSlDNF1XuFSULZXSqvyW0VD/rheXl0o6Yn9JEP/dh1aI3UNNZKekC0ZSQPkQPEWvV7UKi0CwvRfr+RBkhCbJjmFm9UU8vCeIXDbyO4KxHdedYamGqujHdZ9M09al4ikRGmqq9f1RzUS1S9LwtScsHbXflPHqP69JSw2Wup2HzBx3CGLSE2SyKx0s36pPq9Q22K1yzl2uJorhlmLE5svNTU0SGNFlXPE5rOwmCgJj4nR65XS1NAoWCOF+mF2p/5gvsf6uM2sEwLNbXSYPUQRjQ4KcVtFZg8ZJb2yB8rODauktKj177ettLxGAiRAAiRAAiTgnkBYZvaAoBmWzRw4Wkrz9rqvaQdDv/n9MZKWEOWU+qvtxXLJo6ucwqyTNQ8cK4mxbeuU1y5cKx9tKLCSBOXnoMyJcuvpL8qH3z8pB4u3yfzpt0tSbIapa0NjvQlfsvrvreqeEp8lZ0//pUwZfIrTtfX7PpHXvrpfiioO2MN/dsbL0itpkHy3a6kcNfICE15Yvl++3vFfOXnij4xyBMXtiY9ulG0Hv7anwwHyP++I3ypr2zqcpqZG2bD/U3lx+W+loqbYKS5PfCcQHhcj4SmJqgDYvqcRaclmBqahpMz3zPxMAQUl+2+/kJotuwXH0YOyTY7Va7dIk84KxU0eZc4bCkok749PSWN5ixIdPaSfpFx4iqbpa68FlLCKz1UheONDaapvsIfjoO+fb5XwxHinsJqteyT/oeecwqyTpJOPlORzTpCCx16RmOEDJeH46Uaxw3XUo/jFpVK1apMVvcs/4SSisbLaKH9QOCMyUtWBhCqPqui1JVHRMXLGlT+V8PBwyd27Q5Yvebmt6LxGAiRAAiRAAiFLIDlrgOTvCdy7vG0tIQQwvrB8v1m3hKYkq6e9849o6YS5a95vX9uiszS2qarfnDVcUuOj5Fcvb3Iy9duQU+4uaVCGTR50isSOOE+Wb37ZKFGYDTp+7BWq3Fwv+4s2y5rd79nrjdmpH819XPqkDZdPN70gG/d/LpHh0TJ1yOlG2UmN7yMPLblYWbTM2sVGJ2oHLUKe/fTncsL4q6V/+liZNfw8eemLuyQzaaCcNOFaOXnC9U7K0wnjrpL50243M2CLVz0sVbVlMrb/bDli2Fny09Oelz/+9xynMuwVDLKDmZfcY9reVrXWLH5UKosOmij9xh8nAyef2FZ0Kdy7UTYve7HNON5cxOyE4wxFQ1GpN8k6NU70sAFS9t9PpOLT7yTl3LkSO3Gk1G7bK4VPvSlxU8cYJSrh2KlStvRzU4/IPpmSefMl0tTUJCWLPpK6PQclIjlBEuceIYlzZkiYKgbFL/3Pqc7IGwoaBLNI8UdOcrru6STl/JNUW2qU0jc/1jVSFRI9tL8kzJ4qaVefJbW7c6ShsHv41aunPUugNGI2zBupq62R8pJCSU7LlOJ8mh17w4xxSIAESIAESMAbAiGvPP31fzvtHAb3imtXeXr7u5aOxm2nDVXlSWTRNwelXk39DkeBad2DSy6UQ6W77dXPUaXp2hMeVSXnHCflaUSfmdI7dah8vf0teWPlH+zx1+39UE0AU2Rk31nqaXCsMc2zX9SDV1b8TpeVNEikKl+XHH2ffLHlFflq2yIT5aiR50tW8mB7dJjpnTb5Jq3PLnlw8QI1KbStw1m9+12dcSqSOWOvklkjzjXKnj1RkB4MnHKShEc4z2q6VnXjR8+o8mQLTe49RAZOdZ7Rc40fHhUTEOXJNd9gOK/blSNl760wVYEnwPhZE6XkrY+NAlW/L88oT5G90+1VTThyooRFR0rx84ulcsVae3jV2q3S574fq2I0UYpfedfMqFkX4dLbEpj5eas8YXYn/6/PqZmjbWCg8uv1ZlYr8cSZEjd9nJQ319vK+3D4/PDVhRIbnyhVFV0/23g48GEdSYAESIAESKAjBEJeeeoIlFBKs+XgV06KE9q29eBK00QoMo4Cs7nbnpvkGGQ/3pH3nVGe+qaOaKU8NWFxjUq9rnWCYM2TJXX1usYlMsY6lZnDzjbrr95b+7hdcbIufrz+GaM8TRp40mGhPL3686Otqnv1ufHDpwV/PVZ0BskSzKIYqbOZ3TXV2ZQWmKZZgtkm/LkK1jvV7c+TmJGDJDIzTbAGyl+p+mqdXXGy8sJeSlCeoIQdjoIZOypOh+OdY51JgARIgASCmUBLTyWYa8m6BZQA1iFh3VNcdJLbfHvpTNE0NdVLT8zWdVKZxjQNziAgcDjhj8BpBWRk3yOlf8a4VllhBgumhRQSsAhglip2wgiB04jwxDgNDjNOHcz15j2QrLiB/MRsFATrxygkQAIkQAIkQAIkAAL+9YTJMOQIzJv6U5k7/gdSp+Z0u/PXGi979Q21xmwvEI3Nap7tmjFsvsfsLCcSHiMEyYXBM87QdTcRbdZm/1o1S6uymU2lZg+XtAFj24xfWZgjuVu/aTNOT7mIWaiMH18oMaMGS0NJudTty9XPCrM2KTI7s6dgYDtJgARIgARIgASCiACVpyC6Gd1dlbH9ZsuJ439oHEU899kvpLK2ZZH8SROuM84g/K1jSeUhdU8+WH7/xim6WfF+f7Pr1vQzFtzR7pqnd/dusCtPfcccIxPPuLHNOu9b9wmVp2ZCyWceZxQnOJAoW/yZk4e5zFsukYgU9zOnbQLmRRIgARIgARIgARLwgwCVJz/ghVrSkX1nmiZ9vvklJ8UJgeG6n1MgBB7+hveZIaOzj5bl6ljicJZlj9/cbvXL81sUxD3fvSsFu9e1maamgm7aLUCYcYLAyUQr19wuezmZiPyPBEiABEiABEiABDqZAJWnTgZ8OGVf3+yCvH/6aMG+TpZgvdMsdXcOwaa4/siKra/JMaMuktOn3CSbD3wp+WV77NnFRCXIuTN+pUrVy7In/3t7eLAe5G371qeqVRQdEPxRvCOAzW0h2EQXLs0tiR07VKJ1TyaI64a4Vhx+ivQfNkY3yR0k29d/K6WFh4iEBEiABEiABEggAARCXnm69/yRkhhja2ZCrG19yvDe8fLQpS1rT/6zIkc3duWI/6qdS+X4MVfIKZNuNO7FD5bsUBO7gYK9osLDbOzg+twfwYa9S1c/Ilhb9fN5r8qX297Q/ae2S5/UYTK+/xxJTegjm3O+OCyUJ384MG37BOCeHJvkZtx4oboqX2M2isV57Lhh9pko1w1xUy8+VcJibQ4ewmOjTSFRfTLMfk1WiRWffeekjFnhofSJTXKnnzDfbJIbn5wqyxe/FErNY1tIgARIgARIoNsIhLzydPqkLElLcN6LJyMxWs6a1tsO/fMthao82U977AFM6p785GY574g7ZNrQeYYD9mH6cuvrsqdgnVx2zB9lUOYEv/l88P1C3aB3k26U+zOZPfpSM5tVXVsuOw+tkpdW3K2u1L/yuwxmcPgTgJKDDW+TTj9WEk84wjQIjiOwMS420MVGuVGDs6VmS8seZths11WhCk9KkPgjxtuB1GzcGfLKEzbJLSvKl5SMLCnKy7G3nQckQAIkQAIkQAL+EQjLzB7QsvmKf3n5nTpz4GgpzWsxz/E7wyDN4MrZD8qUwae0WTvsxfToe9fY49y34FNJjG17v5mlqx+Vd9c+Zk/jz0FSbIZ62EtVpw77nPZt8idPd2mjI2MlJb6PMd9ramp0F0V8bfvRoy6UC2be6TYvKxB7U936rP+KoJXf4fyZ/sNzJW7amDabAAUl/6/PmzhQXHrffX2b8XEx/6HnpGZri1lmuwk8RdD1TZEZKbDRk/p8nSF22C/KU5LOCu9I2xNmTxPMiLUp+hTef+P9bUbpyMXY+ASprlQPhRQSIAESIAES6KEEkrMGSP6eTQFrfcjPPAWMVAAzWr/vYymubHvtS36pc6cTThxiouLbrMWuQ6vbvO7LxbLqAsFfZwtmtg6V7mqzGF/bvr9wk3y84ek28+zG/neb9eqOi9Vrt0hDUYtnRXd1qD/UshFtY0WVlH/Q/uxge3m6K8dtmN4sozS5vdi1gR1pe92+g+3z6qQvJBWnrv1+sDQSIAESIIHQJ8CZp9C/x2whCZAACZAACZAACZAACfRIAoGeeQrvkRTZaBIgARIgARIgARIgARIgARLwkQCVJx+BMToJkAAJkAAJkAAJkAAJkEDPJEDlqWfed7aaBEiABEiABEiABEiABEjARwJUnnwExugkQAIkQAIkQAIkQAIkQAI9kwCVp55539lqEiABEiABEiABEiABEiABHwlQefIRGKOTAAmQAAmQAAmQAAmQAAn0TAJUnnrmfWerSYAESIAESIAESIAESIAEfCRA5clHYIxOAiRAAiRAAiRAAiRAAiTQMwlQeeqZ952tJgESIAESIAESIAESIAES8JEAlScfgTE6CZAACZAACZAACZAACZBAzyRA5aln3ne2mgRIgARIgARIgARIgARIwEcCVJ58BMboJEACJEACJEACJEACJEACPZMAlaeeed/ZahIgARIgARIgARIgARIgAR8JUHnyERijkwAJkAAJkAAJkAAJkAAJ9EwCVJ565n1nq0mABEiABEiABEiABEiABHwkQOXJR2CMTgIkQAIkQAIkQAIkQAIk0DMJUHnqmfedrSYBEiABEiABEiABEiABEvCRAJUnH4Exes8ikJrZR4aMndKzGs3WkgAJkAAJkEAXEhg99WhJSErtwhJZFAl0nACVp46zY8oQJ5CWlS2z518qUKDcyS8u/pfcdsGj7i71iLDwxHjJvO1yiZsy2rQ3buoYcx6eENd++8PDJTw5of14/sToijK0fhHJiSJhYf7UtN20YBoWGdFuvJgxQ8w9iMy0dUKS5x8vaVfNbzcdI3QBgbBwiUrI0K+K96/dyLgUCYuI8qlyKEN8KCM8Kk4iYvU7HMRyxqxr5DeXPS3Dsif6VctZY08z+Rwx+mS/8mHiwBNI750tx519uSQkU4EKPF3mGGgCkYHOkPmRQCgQiImNl6NOu0AK83Jk9efvum3S6AHTpLa+xu21nhAYFhUpMSMGStW3G0xzI1KTzHlbikRU/96SevGpEjWgjyB9Y3mlVK3ZIiWvvi9NNbUBwdYVZUBxRDugrITHxWrd66R2xz4p/s9SqT9UFJB2iCp/yWfOlviZEyQiLVmksVHqcg5JyRsfSc3GHW7LiEhKsN0DZQuJyu4lEb3S3MZlYNcQiEntJ/1OuFmShs6U8MgYaWqok/I938n+jx+RqrxtrSoRFh4hfY+9VtLHnyZRSVnS1Ngg1fk7NP6jUrbzq1bxERAZlyoDTvm5JA0+wihCjXVVUrF/nez93/+TmuL9btOkjTlJ+hzzA4lNH2CUrdriHDn03euSt/I/Gr/JbZruCuybMVhGD5whiapM+iPpSX1MPt9u+cifbLo97SO3LJPIiGiv6vHLx8+Ukop8r+J2Z6SV778pc869Wt+7C+Sj156Shob67qwOyyaBNglQeWoTDy/2VAKTjj5JIqOi5btlS7Tz0nhYYjjnmBtk0vDZ8tx7f5DtOWs7rQ1N1c1KT/PsS1O1e4UyZuQgyfjJRdJU3yAVn30nDSXlEj04WxKOniwxQ/tL3h+elKY6/16YXVEGFKesO34gUBYrv14vdftyBTM98UdOkl6//oHkP/is1O3P85t3xo0LJHbcMKnZslsqPv1WwmJiJH7WBMm86SIpeu4dqVzh+Z623BPtBlv3x+8ahWYGt57/d0lJzJTfP3u5NDT69/1zJRQZnyojL39CIhPSpXjLMqnM2SBxWcMlbeyJMrL/E7Lp31dJTeEep2RDz/+LJA+dJeW7vzXKTER0glGkhi94SHYveUAK1y12ig/FadTVT0t0Ui8p3PCeUchiUrMlfcI8E771+R9J1aHtTml6z7pcso+/0ZR9cMUz+pusk5QRx6iSd5PEZg6RPUvud4rPk+AisHnvdxIZ3tJ9S0vuLUP6jJOcgp1yUP8cpaGxzvE0aI/r9Tu46rOlau1xmYyZfqx8/9XHQVtXVowEWn59ZEECJGAIJKdlSv/hY2Xbuq+lsqzksKWSlTbAmLnEx3SuSU5jVYuyBOUHypE7ST73BDVBCpe8BxZK/cECe5Sk046R5PnHScKxU6X8o5X28I4cdEUZSScfaWaCip5fLJXLV9urCUWq121X6GzRcVLwz1ft4R05iB0/3ChOlSu/l6J/v2XPovyDL6X3XddL8tlzpOqbDa2VzWYF1vGeNFZV29PzoDWBQX3GSEZyX50wDbzpZe+ZlxnFKffLZyXnk8fshWNWqP9Jt0n2cT+SnYvusIcnDzvaKE6F6/8nu9/+nT08b+WLMuaHL6rCc4MUb/xAGh1mvHvPukyitfO8Z+kDUrDmbXuaog3vy4hL/yF9Z18nO17/pT08Mj5N+hx9tVGcNj11hT2vXFWihqmCljFxnhz69lWpyt1iT8OD4CLw9zdudarQUePnyQ3z/yQr1r8jb37+T6drh9NJ/oG9krt3hwwbP122rPlSaqurDqfqs649iID3xtc9CEqwNzUtqbeMGTTDjDTFeegYR+ioVEpCpsRGx5vmpGuasYNnSlZqf4/Ni1Hbd6SJbLax75c5zKRJ0pdtoCUpPl2SdTTWEtR3eL9Jpl2O4bgeH5Nk6oU4roL22+rcYsJgtR3tgUSpqcyw7Ak60jvFK7OP4ROPMOl2b/Y8sm8iuPxneA06wnTEXC61Oo1Q05xBvUfLkL7j7LxbRXIJSNQR5uH9JsuI/pPF0z2J1VFq8MBfdGSsySFB01lh+LS+Ey7Z+37a3Ne0zzTpuf3YJbeogX0lelC2VK3a7KQ4IRoUAihcCbOnuqTy7bQryhBtI5S8hpIynflZ41TB2m17pXb7XomdNFIiUvxTWC0WZUuXO5XRWKHmWJ+vMuusUE4rwT1Ri6umGkuhDevWmSfrt2h957x5Djm2Cb9h/G77ZgxR9M1fOMcIDsf4vpvvfZTte49LaYlZMn7IUfpbGyPhYS1rxvBbsn4T4c3rg6xz69N6DjoU4fNhfN8xJk3BWufZooI1/9Wb1Cjxfcc65Zk55RxznvvFM07h9VUlkr/6TbNmKmXEbIdrYYI0deX5UuhSRvne1VK+d43OKM2WKJ1ZswTmgFjnlPf1y3bFCdeatD65Xz5voln1sNJ09Sfu2+iB0/U51/KOaK8OeBeMUlNqDBq1912x8srW79W4IUcKPj2Jr+8fx3zwHcK7B+8263mM9xu+f90lnfnudW2T7T7O0N+arsPzUnZvWScRkZEyZMwUL1MwGgl0PYHWvdGurwNL9JIAHsBXnPwb0+G2ktTpCOTHq1+T/3z4Z6lXW3pLhvQdL3df+YJ8tOoVSYxNkRljTra/UA4V75OHX/+p7M7daEU3nyfPuEwWHP9Tk9eR486QwX1aXuwbdn0lf190m5RXFTul6ejJvVe/LMn6YrzuwZly5al3ytHj5kl0c6fnm80faP1usWd99Wl3yayxp8v9z18pm/Z8Yw/HwYVzbpW5Uy8y8ZEOgnrfc9V/5J0VT8q+Q9vk4rm32x/eMMt5Z8VCeW3Z301cd/9lDx4pFaVFUlKQ5+5yq7D+vUbIdWfeb5RZ6+K3Wz6Uf73zW6moLrWCzCeUpvOPu0VOnnGp/WWK+/bZ2jfl+ff/qGuoWs8SoDN3+cm/liPGnGK/h8jsO7Xbf+79P0h+SY69jHOOvUFOn3m1/RwHPz77z07niz77h7zxmf+OLhrV7C73d49LQ4HtOwEzsmpdv+ROIrNsCnjdgUOtLofH65ohnR2JyNQ4GP1v6th6i64oIyIpUcJio6V+zwFdg+RcTzh0sGbdsM4IZokdlcgs7TSquWh9bssMnT0vRQQxcWyH9v/BP/deHXlurlrxS/9rVU975C446MhzCNXC4MC1Z9ynZqfH2pWeypoyefWTh+WDb7Emp7XMHHuqXDfvfnnpowdl675Vcu28+6RP+mB7xDsWniN782zfz19c9ITTcxSR/vYT2/PDSvDAC1fJxt1fW6cd+2xWzDzNajW5mAli/ZFZ4+RiymcKb54Zi8EapWaJ0o54uA6QVR7YaJQfKxyfcDTR1LxuJCatv1GwEG6lxzqqVtL83UL87pCM5D5y07l/MwqHVf7Kje9ah24/oQxcc9rdMm3UXPvzEe+pp//3e/lqo37/3QjWPt195YtGqbEu7zjwvTz65u2SV7TXCjKfvr5/rMSnz7xKn/U3m8E7hKFOz7//J/nhGb+TvYe2yl1PLbCidulnZ757rYZgYPC6Mx+QgVmjrCDZr+/iR9/6uf03aL/gcnBg11ZpbGiQ7CEjZfOqL1yu8pQEgoMAlafguA/t1iI7c6j8Ur27Nero4EsfPSS7cjdIqnaqTznicjl5+qXawQiXZ969r1U+c6ZcoDbQu+TZd++XuvpamTLiOJk2cq7cecVz8ut/nS1QpFzlIlU2vt+5Qh5/+w4zU3P0+DPNDBS8Hd2x8NxWL2nX9N6eQ1lCJ2bkgCmyXpWzorJcwejh1n0tplDe5uUuHpSN4yefJx9+95IqUdult45InnrEFXLW0T+SPbmbZeWm91olS8nIkujYOMndt7PVNXcB0Tqr9YuLHpe1Oz6Xd1c+Z+qP+wHGJXMK5N9Lf+eU7Jbz/k/vwfGyee+3qjC9pf3jepk17nTBfRqoL5x7n7lU73GL2RuUrdsvfMwohMvWvCGrty0TjObPHHOqzBh9krZpoNz19IVSW2dTur5cv1T25W01ZR6veWLUfslX/7aH4cLu3E1Odeo3/jgZOPlEpzDXk8K9G2XzshedgpsatHN/sGUhMmZF8OdOLO9vjaUVTpexRin9B+dIuDo6gGAdUUORs8LplKCNk64oIyLTtmAdiqOjRKSnSPp155rZNYRHZqQKZqI6KhGavkGdaTgqknCwkXrxabq2yuZxDGW4Csz1HE32OsrSNV9/z315DsXHJsnvr3lNZ3D7yGfr3pI12z41a5LmTrlQrjzlt9JLZ88xWORJ8Ns7b/ZPzKDCF9+/I/W65gNmeY6dYgweJDWP/l9y4i/MTMDCxXeZ36OVb46LcjHzknvUh0fL7JUVz/FzzeJHpbLooD2oZNvnkjhgsmRMPlv2f/iwPTxj0pnGSUOpXneU6JS+Uo8BKn3OWwInE3AGkT7hDBOEOJZEp9qO6yoKraDmOLrFwtkP6MyWbebLpNGZKEhMc3rXNL2mLzBrnhDHsQycd4VgdhIKDSwr8JzD4FBqYi+BSZqjEuxYl4TYZLnvB69pvEx5/5sXBYN8Gdo+DCD95JwHzYAcBqZc5dSZV8iOnO/lqSV364BVrZZxhkwceoy+YxfKr584y+0glmsebZ3DO+BFJ/xMyiqLZPGX/5YDBWqKpoOf1877vXl+u6bt6DPYNR9vzzvz3QvLiDsufVpq1GnJKx//VfZr27Ee64xZVwsGNe986gJx/W051rtB1z6VFh4yXm6jomOlrtb2bnOMw2MS6G4Ckd1dAZbvHYHZE8/WEaxYeXLJXWaWwkr13daP5aEb35PZE88xjgEcO96Ic0g9Ld399EVSVWPr7C1b87qZvTpp+iXmYYbROVf5etP78sgbt+ngtW34GrNXeBjC/AAuXj2N5rnm4815qnqTuv2x06SgtKXD4U06b+LAM9Pd/75QDhbutkffo4rDbQv+IbMnnetWeUrrZeuMlHo56xQZGW1GOHEfLFm56V37PXnmf/fZlSEoTfhbv+tL+fNL19sXp3/+/dtmdggK0XGTzjEziVZemEXDH/JfuPhOK9jcg1sveESmjpgjY9QL1Zrtn5lrOw+uF/xBYKYJ5en7HV/Iup2eR/CSew+RgVNPMWk8/RceFdNKefIU1114WHSzu2XL+YaOcCedcpSuDzpenSvkSmNltUT2UTfOMc3x3GXSTlhXltHkMDuG9UnGHbiG1WzcaTzw+dMOHQmxuSV3mNnCLFP6dedJVN9M9W64UeKmjRF7e9vhEgyXfXkOnX30DUZxwtqN1z9tmSFevu6/2vl6SQdALhc8xzx1wNB5+8+Hf5GlXz1tf4a5MkDn3JLzjrvJKE/Lv/+v0+y9dd36HDjlJAlvx234xo+eUeXJSqHP329ekaRB0yVrxkXGEUNlznqJzRgsqaN1zVruVsn59HF7ZLgwN27Jrd+IXonRAZ8h5zxg0hZt+lDSRs9Vk7sWs0T7sYOylTzsKBl85t1mkKts10rjgc8eT/MMs9I3p8HM1aDTf6N1OkGK1OFE2tiTJaLZ5NleuS44OGnaJUZx+lwVZgzcWfKBDn7dc+V/jDmeFWZ9wqoApqBPqhL0iVpgWILZqj//aLEq0TfpOqAlel9rrUvmEwN0f3jhavv9/kLXCuF5OmX4cWbA7b1vXnCK78sJTKfnHflDUyasJfbnbzfJv1i/WHYf3GhmRF3z64pnsGuZnfHuhZniD09Hn6JJ7nvuCh20tA3kQRHeoU6L8O4999gfyyOLfuZaHafzkiJVnnr1EQxm5h9wdqjiFJEnJNBNBKg8dRN4X4vFbBP+XAVKEUxRsAYqS00tHBUFxN11cINdcbLSvrX8n3LC1AUyY9TJpuNvhVufG3evdOp0YFYDpm63nPewme0IpPK0cPFvO0VxQlswCunKY4O2DdInfZD5dP0PLsohNTXuZ1Bc41dWlxnFxjG8VEeB8ZIcOWCqpOvoeX7JfnN57tQLzSdGvR29emGtAcwIoTzN0fsCM0xLMFsIgc04Zpwc00GZguljcfkhK3qHPjd++LTgr6sEZnpQNmInjDDrd0peeU8ybrrYKE+BqkNXlAETQ7gSTzr1GKnduU8KFy6yeQ5U9+WBFOyjlXbFPGlUV+6H/vq8buETbpSnQJbR2Xl5+xzCWhXMUsFED88cR4EJ7JIvn5JrTv+dDjKc53H26XsdKMBsa6Dl1Z8f7XOWcEt+8POFkpA9XpKHzDR/yAThOcv+IY21np8zqaPmyEBVauB2fNuLPxbV3Izy5LESqnz1PfaH0ueoq9RN+fey883fSuak+UZ58pQmttdQGXrOH8xM0953/yz5q94wypOn+J0ZDlNxyKLPH3MqBrM3G/esbKU8YQ3RsTqomKfWE46KExLjmQilCd+locp+i3qnc5Sv1erA0cwdz+C3v3jCKE+TdYDLH+VpvK6hwsDdch0UsxQnq2xYKLiTrn4Gow6d8e7FQB6sZGAlYSlOVntX6YDFwcJdxioDAwVg7klqq3XWXSUmzvY+9hSP4STQXQSoPHUX+Q6Wi70uJqv7adhsJ6obXB3AlwFZI01u6Fx7IyUVBcZcD6YQmL63TL7aSrtt/xpzOTOlX1vRfL6288AGn9P4kwCmBFBAsAjYnUQ3P6zravwzFbDWOsE0yFKe+mYMNbNQ25tZOpaPl0pZZaEuXB5q7PatWT8oxjAvxIzfX25YKljXtWH3V7oWY6UxCUHH4nASOHWAd73wpHgpevq/UvnVuoBXvyvKiND6Z958icSMHizlH34lpYs+0g6x585ARxoJJSnl/BMlce5Mqdm0SwqfelMayyoEpo6hIO6eQ+nqNQ7mW1jbiN+qq2zRtUyQftpB8yQ7dcAoWCRJFaZhF/xFsIfSniX3GZfhmE3qO/t649lu99v3CjzrOQr2eeo39xYzW1W26xvZ9d+7pF5/54kDpzpGczqGS/ThFz6sitJ0dQTxkuTonlCu66mcEuhJ+rhTJWvmpSbvLc9dL5U64NOdAkcPeJ45mle2VR846IETEJg+X3bSr1pF7ddruAnLSh3QSnlqFVkDdh6wzdj31vj+iOWUaUdO4J9t/tTLNW1nvHutvkgv7Se4uyfYmwqzU5gtLCg94Fol+7n1/o2JS7CH8YAEgomAd73tYKpxD60LPMbdvuAxY4qFUbU9eZulRD8bdANF6yXhC5qyymKdfRGduciwd+7bSo+OPcQXrzlt5dcTr+GFUaFes3DP3Ak6k3A+gTUflvIFJerRRbfL6glnCkwtscYN67agAMK88vVPHzGjee7y8zYsNVvNzgaMbTN6ZWGO5G79ps04bV209m+CFzk4QTj0p3+bDV9d0zTV1rsGeX3elWXEjBlqPAsWPvG6ehDc1KqO/rQD65zgeCI8OUEST5gpZUs/l9K3P9Xpiiancqz2OgUeZieuz6E0HRSClOpvwZ3gNwLB4FFXy+AZZ+isX9trnvav/Vhqq8qaqxYmA06+3dy37a/cZt+stqZon1So+d7Y61827sqLty4zM1AwBcWMFPaEypqh5sZf6FqZz3T2zRqhb3YY0eTgpryxeWYaSlpDTYVxe168+eMWNM1pHF2bNzWnwQa5JduWy+53ficNOoNuEwzHqY8RhzJs4Z37P0zd4FnRF/PtPhm2QQQMAnpaE4VaY3beG8FMFMz78Pz1R7BnGKSsyvuBra54BvvTJm/TWvcBJuP48yTwONiW8tTyqHN+5nnKj+Ek0NUEqDx1NfEOlocF0HgYweRu0WePmc6zldWvdJErXIL6Inh4oWPu7c7jyeqcAlJcnudLMQGJaykblkvhgGTqIZOaKptDg6joGA8xOh4Mr3hwWuFqfmflCK96MMO0FCcrHOvYsOgZf/BCNm7wLJ2JOkXgXWycfifu0nVdjh73rHTefvYdc4xMPOPGNqPvW/eJX8pTQ0GJyR9rggqeeK2V++wIVRTgXa6h2OrEtVkdtxe7sgw4Ysj/2wtSn+e8UB8KD8TyQOi2ou0Fan8B+Ueq98GCR1+S6vW2NRNWMquM+mYvh1b44fjp+hwqaPYcCUcB7sTqmPrzfXeXrzdhMxbc0e6ap3f3brArT9HJWbpmqb/O6GyyK05WOQ1qgli++zuzzii+9yh1KQ5nDk1SW5qrafrJ9ld+JqU7VljRzWdUsxJQU9IyYl/bfIx02/5zk9S4eIqDIgax4jke567QvaeW/VODWjqo8N7nGMecdMF/1bUV5tnnraKDKhWVHTI1c10j1dHqwgwQMyOVNc7vOF/fP4V6LyAYmPRWuuIZ7G1dHOP52vai5v4BPM1+unaRY1Y+HVvv35oqm/meT4kZmQS6gACVpy6AHIgi0GGGvLPiKSfFCWGwH/ZF4M2oV2o/ffnkqQe+Gq+SjtL1O5Bcl5ezV4n9jFTY7EzC3Z4fvra9vapYD2tr7VN78X25nqMLh7HWatTAaWY9lmNamKBAMdqui2odBXvUIM23uuAW3ghh1vLlhqXm78I5t+nC5B8Yk74lujjeVep0JBUCpxZtyZ7v3pWC3evaiiI1FeoBzA+pP2QbhW1Qs7OmaufF2/AiB2919VCwHBbL+1pcV5SB/Z3MjI+O6LsqTqhvZG9bh6k+339ekeruvK0yGpqZ+sopWOK7ew6h84X1TvA8CdNaHDsK1lRAXNeSOMbx9dhaV4iOs+M6GNd8lj1+s2tQq/PyfNv6RlxorLM9W40TiFYx4Urc9vptbPaUiSg16uAHCperEoRrlovx2qKWMurK8s0sEZ6D7tLE6mANpMYhjXWMshwVJ8SzyrDiIKyr5ICaLg/VLTawZsaTMxDHuuxV6wvImEEzjSlYW/fOMR2O3bmOxxpVCFxqO4qv7x9rnS2c9bz79XOOWXk87opnsMfC27jga9vhxRYyYejRfilP8HgLsd7H5oT/kUAQEfCt1x1EFe9pVbFeDNg/wVHwkEJnHOJOkYCnNtf1PefN/rGxFceCVncyRjd6ddxk0PIehLie0uBaXEovmXL2rTJy9kU4DZjkFOw0eWEhrqOg8wW3xIGUokO2Ud3kDPcj3/6UZb1Iz599s31PK+QHd+QLdL8qyHtfP28+rf+G95to3DPDVM9VMFoLqXHofDnGyW3eK2ZY9kTH4FbHFUUHJG/bt23+lRxwnv1olUk7AbW7coyZXtykUbqfU6pT7ITjpqkHsEip/MK2rs7pYvMJ9lBKOlW9851zgoQn2F6srvH8LQP5xU0fa9yBR2V7uP86SI96wqU6PN45SvSgvhIzYpDxuNeWi/DoIf0k9dLTBV76PEnlcsxEiCSe6Gz6EhYTbTYThkv4qrVbPCX3OTw5vZdk9h0gnTFogMr48hx6V38DWPd0zrHOs6EwGcbeOTCtggfQQElu0R6T1TD9rbUl7f1GcL3ewQEEXI5DQYnLHNJqM9zo1Gz1wjfDOIOoymvprJvNc7USWUdc7FSV8Og4yZx6rprXlUrxVjXhtEuTbo77jkQl9WrlTCK+zxhJHDRV4HGvTgfKLMEaK5gH9pp2gZohOo+fZs28zEQrWOv+3YCLGX36m+9KuK7JC6QsW/26yQ57DTpuaIx1tpOHH9+qKMzQw4MdXNpjIMnxnYXI8ER6ydxfuHUNDu+0jhvMYx3OOcfcYMpw3cLC1/fP+l0rjPnhtFEnqoda5+8UHFy4k654Brsrt70wX9u+bsdys2YNVhGu72bcH/ymPTFwrAu87MGMtaQg1zGYxyQQNAScn5xBUy1WxJUATLawSe5tCx415lvYcA8P5knDjrXPRCXpomFXweLVe695RT5e9apZgA1X2djPAmsH3l35rGt0cw7nBL+69CnjDhv7aBylXpCwFgcbRuLh6ElGHXeJKk62l37+rrVSuCcwC7fh3e+C42+R43TPJuyzgn2KMpOz5ZgJ89WuvDig67CwvwRGuyyX5Z7a2pFwePrDvjXHTjjL7GeyQl/8UIphggf3ynAnDg9RjoINQY+dcLbpNGamZNv547twjOaD2Shrc2DHdDhetfUj3aTxJnVJf41RoA8U7jSs6nQfDZh/dqnoixBOFTJuuECyfn6VlH/ytZrolUv0kGz1UDdFGgpLpPzjrz1WCWuMks+aY6436v5H5e9/2Tqun2WEx8VK+tVnqVezcJ0JS1aTuZdbl6EhZUuXG8Up7aqzJHqobj66L9fs65QwZ4auVaqX0rc+cZvOCky96BSBU4t4VdRyfvaQ29m2qlUbpXb7PlWUppk9sGrUdC8sLsZ484tIThR4KHSdwbPy78jnhFknSO8BQ2XlB2/Kvu2Bdxzgy3NosW5ujWcQBgx666zrWnXDj1lZbNeAjjQ2ynW3P11H2o008LyG5+iN8/+f2ROuvLrEPF+27V/tdjsDX8qBB7vhCx6SERc/YjzZVRfsMp7toAhBIdqz5H4nxw7Fmz6Win1rJXPKuRKpbS7d8aVExCRIhnrNi1Llcd/7D+n6KGdTpoNfPC2pY+bKIHVPntB/glTmbpUYVc6gHDXqb91mmtdSayhSeStflN5HXikjr1gohesWG2UqZeQmaKuWAAAOqUlEQVRxkjx0lmDNVMX+dS0JXI6OmXexROis2eJn/0+flbYBHJcoHTqFmRfWdaLTjX0I12z/1JijTx15gnEl7y5TbCwOqwh8V6Cgr9r6iRohNuoWDVM1nxPMnoFYS+U6g4n98e77wesCk79anSGcOfYUsxcRtnnA3mCO4uv7B890fEevn/+A/OqSJ/WZvljw7B3eb7LxVuuYd7Af+9p2bPK+cMmdujfhP+WW8x827zN4OoS57QQd/AQDDBB+Jm96bHpEZKQkp/USDGTW1dZ4jMcLJNCdBKg8dSd9H8rGSGuMvmzP1tGxU2ZcblLCccTTujEuTL6wMevQvhONguOYLdyDFqnZG9ZMwekE1s9gj4t/vPULo0A5xrWOF6s7YJjNXHXqnWY0Dw9E7IHy1JLfWVHcfhbt26QdgQZj819e0GJa4jayD4EwLXzw5RvkR/P/aPazQlIoDf/56C8C5e7SE3/pQ27tR83ZtUWGjJls9pgo8XK/p/ZztcV4QvcvwV5Tp+kIOkZLIVBkocy88ek/9MXfsv4A18rVwcTvn7vc3D9sFolOJQRuXr/Z/KG88snfPK5bw6jhE+/cYd/Xy6TT/FfrAvXukOrvtxlX22mXnG72d9IvlzGBwwxK8fPagVNX3J4Em/E2VeuLVF+sdftaRtFd4/tTRqPmX6fOLKL69hLMYnkSmO7lPfCkpF0+zyg3mBWDM4e6vQel6LnFRpnylBbhyBvKU+0e3dvMk5mifg3yH35BUs47UeJnThC4K4dgRqvwyUVS9U1gBiZMpvqfZcbU6Kk+VsQOfvryHIKXPezPBm9dGFjA3jsQzBD9fdFtgj18AimfrlkkfTMGawf8KvtsFzrAlpMcf8oq2/mVbHv5p5J9/I3Gs52VV43OCkOxKt70kRXU/Nkk2166STervVnSx58mcFcOwZqmXW/dKUUbP2iO1/JRV54vm566Ugad8RujdBkzQX0+VOZuUeXsAalq3jS7JYUYhQp5wmlE/5NszyE4jcA6qAMOe085prGOLQuHpgB/V8D8989ebvZBmqz3HANEePZj64YqNd/E5uaugnt0x7/OEWzsPlO/K6MHTjfP0BzdFP1/umn5q8sedmua/tz7fzBrRzHbhPbguQvF6/G3f23fl88qqyPvH7wvG3Rz5ovn/ty4S0deUPifXHy3/PCMe82sipV/MH92pO0YZP3NwvPUYuI3uh3KiWbwFfcW3gyf0f4KBgTbkqz+QwQKVM7OzW1F4zUS6FYCYZnZA5x7a91YncyBo6U0b2831iD4i8aDvpfOQOAT+1t42isBIzx3X/mCGTn9+xu3Gk9GmLmANyPL3Mu1tWceda3AZMJ6wCWqm22YysCG23F/Idd0jucxCalSV10ujQ31jsEBO8YCcyzs7cwF48lpmXLigmtl+/ffyJrl7wes7q4ZgS3MRbz1MAWzh4yUviYN2o8XkjcCs8BeOgOJNR3wcGRtmOxN2s6KExYbLREpSWLWKXnZCYNpX5i+VBurqr2qVkfKgEIXkZQoDaXl3pWhihPMEBsKS6Wp1rv7gYwjUrSMEu/KQJ0iM1KlUdeKYdatMwTfd3zv//fiP6SyzObcIxDldOQ55FguvvNYnwkTLVdHKo7xAnGMbRvg1hrPOmzq67qxqr9lYKYpWk3M6uAlVZ+R7UuYmUGCFz2YAHojUJww6wTFyHEtVVtpMaMVFhmlTiVUmW9HsBZl3pU/Nd8RfFc6SzDQl5Hc15iAuW783laZeMdV68wcLDO8EZi0p6l7/BJVQL1J05H3D9oBi4l8/U4N7jtW7r36FTMAgIGAw0k60nbbu2eAYO0UBmG9kVknnydZA4bI0ucfEctluTfpGIcE2iKQnDVA8vdsaiuKT9c48+QTru6PDGUJSpOvgtFcXxdZ42XizQvFsS7+OhZwzMvdMTag7WwpLcqXvds2yODRk2Xz6hVSXeFNR8f3Wllul71NidHRjiiN8JhkLWL2tqzOjgeTs/pq9+6oPZUNRw2+uOfuSBmK2GvFCfWES/H6g761A+m8VpxMISL+OqBANp4kOiZOEpJTpaK0OKCKk7vyfH0O4Tvfkeedu7LbC8N+d64be7aXxpfr2BC3On+nD0maWnnpay8x1jJVF+xuL5rT9ToPbuGdIjWfpGdlm6O8/bvcXQ5YGGY8sPedr+Lr8xHmfJWHyrwuxtv3DwYN9Okg2B/R0SX3rLGnmbKwafThJt623bFdtnfPLsegNo+x1il7yEjZ9N1yKk5tkuLF7iZA5am77wDLD0oCa5a/J1n9Bsn04+fJ8iUvHzZmFkEJk5UKagIDR443I+PfLVsS1PVk5bqfwJAxU8w6p/UrP+n+ygRxDS5Rc71BfUbL0q+eMWv2onRWc7qu5Zo79UKjTL3fjulaEDet06oGU73pc84UrDve9K3ntdWdVgFmTAI+EKDy5AMsRu05BGqrq+SLpa/KsWdeIpOOPklWf/5ez2k8W9qjCGxf/61ZnF1w0PcZ7R4Fio2Vbz55R+ITk+lCup3vAkzyrjj5Dpl/9HW6Vut6e+zNe7+Vp5be49F03h6xBx7AXA9mocveek6Xgjb0QAJs8uFEgGueDqe75UNdYcs9pO84KdUFtXvzvHNpDE9W2MT1gDoaKFSHDBQxTiNgqrJz42riIAES8JFAR55DPhbB6CQQtASw8fmw7AlqwNdk9q7K030ScUxpTWDk5FnGXL6qvLT1RYaQgJ8EAr3micqTnzeEyUmABEiABEiABEiABEiABIKTQKCVp8DucheczFgrEiABEiABEiABEiABEiABEvCbAJUnvxEyAxIgARIgARIgARIgARIggZ5AgMpTT7jLbCMJkAAJkAAJkAAJkAAJkIDfBKg8+Y2QGZAACZAACZAACZAACZAACfQEAlSeesJdZhtJgARIgARIgARIgARIgAT8JkDlyW+EzIAESIAESIAESIAESIAESKAnEKDy1BPuMttIAiRAAiRAAiRAAiRAAiTgNwEqT34jZAYkQAIkQAIkQAIkQAIkQAI9gQCVp55wl9lGEiABEiABEiABEiABEiABvwlQefIbITMgARIgARIgARIgARIgARLoCQSoPPWEu8w2kgAJkAAJkAAJkAAJkAAJ+E2AypPfCJkBCZAACZAACZAACZAACZBATyBA5akn3GW2kQRIgARIgARIgARIgARIwG8CVJ78RsgMSIAESIAESIAESIAESIAEegIBKk894S6zjSRAAiRAAiRAAiRAAiRAAn4ToPLkN0JmQAIkQAIkQAIkQAIkQAIk0BMIUHnqCXeZbSQBEiABEiABEiABEiABEvCbAJUnvxEyAxIgARIgARIgARIgARIggZ5AgMpTT7jLbCMJkAAJkAAJkAAJkAAJkIDfBKg8+Y2QGZAACZAACZAACZAACZAACfQEAlSeesJdZhtJgARIgARIgARIgARIgAT8JkDlyW+EzIAESIAESIAESIAESIAESKAnEKDy1BPuMttIAiRAAiRAAiRAAiRAAiTgN4FIv3MIcAbjx44JcI7MjgRIgARIgARIgARIgARIoCcS2JNfHtBmB53ydKigIKANZGYkQAIkQAIkQAIkQAIkQAI9lUBMQBtOs72A4mRmJEACJEACJEACJEACJEACoUqAylOo3lm2iwRIgARIgARIgARIgARIIKAEgs5sz7V1Y8ZNkDknnix9+mZLXFy862WekwAJkAAJkAAJkAAJkEBIEaiqqpSDB3Lk4w/ek43r14VU2w73xgT1zNP4CZPkmutulCFDh1NxOty/aaw/CZAACZAACZAACZCAVwQwYYD+L/rB6A9TgodAUCtPmHGikAAJkAAJkAAJkAAJkEBPJcD+cHDd+aBWnrKy+gYXLdaGBEiABEiABEiABEiABLqQAPvDXQjbi6KCWnnyov6MQgIkQAIkQAIkQAIkQAIkQAJdQiColae8vANdAoGFkAAJkAAJkAAJkAAJkEAwEmB/OLjuSnApT01NSifMTggeRigkQAIkQAIkQAIkQAIk0FMJsD/sz51XvcLoF/7k4Zw2Ij4p5R7noO47i45PlvjYaGlqbDCVyMvLlX1790hqWprExsZKVFRU91WOJZMACZAACZAACZAACZBAFxCAq/J9e3fLoldfkg3fr+2CEkOziIjIaKmsrpXq8uKANTAsM3sApnuCQuKS06X/gEEBbWBQNIyVIAESIAESIAESIAESIAES6FICsYmpRgmtKi0MWLlBZbaHhoWFR0p0XGLAGsiMSIAESIAESIAESIAESIAEehYB6BPQKwKpOIFgZLBhjA+vlfjefdU8sUHqqquksaEu4LaKwdZm1ocESIAESIAESIAESIAESMBPAmFhEh4RJVGxcRIWFiGVxbl+Ztg6eVCZ7TlWDyZ8MfEpEhkVrT4kWpxIOMbhMQmQAAmQAAmQAAmQAAmQAAkYAuocor6uVmoqSwI+42QRDlrlyaogP0mABEiABEiABEiABEiABEggGAgE1ZqnYADCOpAACZAACZAACZAACZAACZCAOwJUntxRYRgJkAAJkAAJkAAJkAAJkAAJuBCg8uQChKckQAIkQAIkQAIkQAIkQAIk4I4AlSd3VBhGAiRAAiRAAiRAAiRAAiRAAi4EqDy5AOEpCZAACZAACZAACZAACZAACbgjQOXJHRWGkQAJkAAJkAAJkAAJkAAJkIALASpPLkB4SgIkQAIkQAIkQAIkQAIkQALuCFB5ckeFYSRAAiRAAiRAAiRAAiRAAiTgQoDKkwsQnpIACZAACZAACZAACZAACZCAOwJUntxRYRgJkAAJkAAJkAAJkAAJkAAJuBCg8uQChKckQAIkQAIkQAIkQAIkQAIk4I4AlSd3VBhGAiRAAiRAAiRAAiRAAiRAAi4EqDy5AOEpCZAACZAACZAACZAACZAACbgjQOXJHRWGkQAJkAAJkAAJkAAJkAAJkIALASpPLkB4SgIkQAIkQAIkQAIkQAIkQALuCFB5ckeFYSRAAiRAAiRAAiRAAiRAAiTgQuD/A7ewDPKbIzgYAAAAAElFTkSuQmCC;" vertex="1" parent="1">
          <mxGeometry x="3310" y="-790" width="272.25" height="180" as="geometry" />
        </mxCell>
        <mxCell id="T2tRfhaVKCpMN6s5OHe6-49" value="" style="image;sketch=0;aspect=fixed;html=1;points=[];align=center;fontSize=12;image=img/lib/mscae/Docker.svg;" vertex="1" parent="1">
          <mxGeometry x="3770" y="-841" width="50" height="41" as="geometry" />
        </mxCell>
        <mxCell id="T2tRfhaVKCpMN6s5OHe6-50" value="SUCCESS" style="dashed=0;html=1;rounded=1;fillColor=#008364;strokeColor=#008364;fontSize=12;align=center;fontStyle=1;strokeWidth=2;fontColor=#ffffff" vertex="1" parent="1">
          <mxGeometry x="3750" y="-750" width="70" height="20" as="geometry" />
        </mxCell>
        <mxCell id="T2tRfhaVKCpMN6s5OHe6-51" value="REMOVED" style="dashed=0;html=1;rounded=1;fillColor=#BA3200;strokeColor=#BA3200;fontSize=12;align=center;fontStyle=1;strokeWidth=2;fontColor=#ffffff" vertex="1" parent="1">
          <mxGeometry x="3750" y="-720" width="70" height="20" as="geometry" />
        </mxCell>
        <mxCell id="T2tRfhaVKCpMN6s5OHe6-52" value="IN PROGRESS" style="dashed=0;html=1;rounded=1;fillColor=#0057D8;strokeColor=#0057D8;fontSize=12;align=center;fontStyle=1;strokeWidth=2;fontColor=#ffffff" vertex="1" parent="1">
          <mxGeometry x="3740" y="-680" width="100" height="20" as="geometry" />
        </mxCell>
        <mxCell id="T2tRfhaVKCpMN6s5OHe6-53" value="Container&#xa;Registry" style="sketch=0;html=1;verticalAlign=top;labelPosition=center;verticalLabelPosition=bottom;align=center;spacingTop=-6;fontSize=11;fontStyle=1;fontColor=#999999;shape=image;aspect=fixed;imageAspect=0;image=data:image/svg+xml,PHN2ZyB4bWxucz0iaHR0cDovL3d3dy53My5vcmcvMjAwMC9zdmciIHhtbG5zOnY9Imh0dHBzOi8vdmVjdGEuaW8vbmFubyIgd2lkdGg9IjM3Ny4xNTkzMDIxNjAyNjMwNSIgaGVpZ2h0PSIzMzYuMTYyNDk5MDAzMzEwOCIgdmlld0JveD0iLTAuMDU4MDAwMDA1NzgxNjUwNTQgMC4xMTI5OTk5OTgwMzMwNDY3MiA5OS43OTAwMDA5MTU1MjczNCA4OC45NDMwMDA3OTM0NTcwMyI+JiN4YTs8c3R5bGUgdHlwZT0idGV4dC9jc3MiPiYjeGE7CS5zdDB7ZmlsbDojNjY5ZGY2O30mI3hhOwkuc3Qxe2ZpbGw6I2FlY2JmYTt9JiN4YTsJLnN0MntmaWxsOiM0Mjg1ZjQ7fSYjeGE7PC9zdHlsZT4mI3hhOwk8cGF0aCBjbGFzcz0ic3QwIiBkPSJNNTMuMjQzIDYyLjA5VjQ3LjA5NGwxMy4yMDEgOC40MTZ2MTUuMDM4em0tMzMuMDIxIDBWNDcuMDk0bDEzLjIwMSA4LjQxNnYxNS4wMzh6bTE2LjUxMS0zMi4yODVWMTQuODFsMTMuMjAxIDguNDE2djE1LjAzOHptNjIuOTk5IDMzLjk2VjI1LjQwM2wtOS41NjItMS44ODR2NDIuMTMxem0tOTkuNzg4IDBWMjUuNDAzbDkuNTYyLTEuODg0djQyLjEzMXoiLz4mI3hhOwk8cGF0aCBjbGFzcz0ic3QxIiBkPSJNNTMuMTg1IDQ3LjA5NGwxMy4yNTgtOC4yODcgMTMuMDE2IDguMjM0LTEzLjAxNiA4LjQ2OXptLTMzLjAyMSAwbDEzLjI1OC04LjI4NyAxMy4wMTYgOC4yMzQtMTMuMDE2IDguNDY5ek0zNi42NzUgMTQuODFsMTMuMjU4LTguMjg3IDEzLjAxNiA4LjIzNC0xMy4wMTYgOC40Njl6bTYzLjA1NiA0OC45NTZ2MTIuMjE3TDc3LjAxIDg5LjA1NVY3Ny43NTJ6bTAtMzguMzYzVjEzLjE4Nkw3Ny4wMS4xMTN2MTEuMzAzek0tLjA1OCA2My43NjZ2MTIuMjE3bDIyLjcyMSAxMy4wNzNWNzcuNzUyem0wLTM4LjM2M1YxMy4xODZMMjIuNjYzLjExM3YxMS4zMDN6Ii8+JiN4YTsJPHBhdGggY2xhc3M9InN0MiIgZD0iTTY2LjQ0NCA3MC41NDdWNTUuNTFsMTMuMDE2LTguNDY5djE1LjR6bS0zMy4wMjEgMFY1NS41MWwxMy4wMTYtOC40Njl2MTUuNHptMTYuNTExLTMyLjI4NVYyMy4yMjVsMTMuMDE2LTguNDY5djE1LjR6bTQ5Ljc5OCAyNS41MDNsLTkuNTYyIDUuODh2LTMuOTk2em0wLTM4LjM2M2wtOS41NjItNS44OHYzLjk5NnpNLS4wNTggNjMuNzY2bDkuNTYyIDUuODh2LTMuOTk2em0wLTM4LjM2M2w5LjU2Mi01Ljg4djMuOTk2eiIvPiYjeGE7PC9zdmc+;" vertex="1" parent="1">
          <mxGeometry x="4010" y="-754" width="42" height="42" as="geometry" />
        </mxCell>
        <mxCell id="T2tRfhaVKCpMN6s5OHe6-54" value="" style="shape=flexArrow;endArrow=classic;html=1;rounded=0;" edge="1" parent="1">
          <mxGeometry width="50" height="50" relative="1" as="geometry">
            <mxPoint x="3630" y="-720" as="sourcePoint" />
            <mxPoint x="3700" y="-720" as="targetPoint" />
          </mxGeometry>
        </mxCell>
        <mxCell id="T2tRfhaVKCpMN6s5OHe6-55" value="" style="shape=flexArrow;endArrow=classic;html=1;rounded=0;" edge="1" parent="1">
          <mxGeometry width="50" height="50" relative="1" as="geometry">
            <mxPoint x="3880" y="-729.5" as="sourcePoint" />
            <mxPoint x="3950" y="-729" as="targetPoint" />
          </mxGeometry>
        </mxCell>
        <mxCell id="T2tRfhaVKCpMN6s5OHe6-56" value="Cluster" style="sketch=0;outlineConnect=0;fontColor=#232F3E;gradientColor=none;strokeColor=#232F3E;fillColor=#ffffff;dashed=0;verticalLabelPosition=bottom;verticalAlign=top;align=center;html=1;fontSize=12;fontStyle=0;aspect=fixed;shape=mxgraph.aws4.resourceIcon;resIcon=mxgraph.aws4.cluster;" vertex="1" parent="1">
          <mxGeometry x="4230" y="-763" width="60" height="60" as="geometry" />
        </mxCell>
        <mxCell id="T2tRfhaVKCpMN6s5OHe6-57" value="" style="shape=flexArrow;endArrow=classic;html=1;rounded=0;" edge="1" parent="1">
          <mxGeometry width="50" height="50" relative="1" as="geometry">
            <mxPoint x="4120" y="-729.5" as="sourcePoint" />
            <mxPoint x="4190" y="-729" as="targetPoint" />
          </mxGeometry>
        </mxCell>
        <mxCell id="T2tRfhaVKCpMN6s5OHe6-69" style="edgeStyle=orthogonalEdgeStyle;rounded=0;orthogonalLoop=1;jettySize=auto;html=1;" edge="1" parent="1" source="T2tRfhaVKCpMN6s5OHe6-58" target="T2tRfhaVKCpMN6s5OHe6-66">
          <mxGeometry relative="1" as="geometry" />
        </mxCell>
        <mxCell id="T2tRfhaVKCpMN6s5OHe6-58" value="Simple" style="ellipse;whiteSpace=wrap;html=1;fontStyle=1" vertex="1" parent="1">
          <mxGeometry x="4460" y="-1920" width="120" height="80" as="geometry" />
        </mxCell>
        <mxCell id="T2tRfhaVKCpMN6s5OHe6-70" style="edgeStyle=orthogonalEdgeStyle;rounded=0;orthogonalLoop=1;jettySize=auto;html=1;entryX=0;entryY=0.5;entryDx=0;entryDy=0;" edge="1" parent="1" source="T2tRfhaVKCpMN6s5OHe6-59" target="T2tRfhaVKCpMN6s5OHe6-66">
          <mxGeometry relative="1" as="geometry" />
        </mxCell>
        <mxCell id="T2tRfhaVKCpMN6s5OHe6-59" value="MultiStage" style="ellipse;whiteSpace=wrap;html=1;fontStyle=1" vertex="1" parent="1">
          <mxGeometry x="4460" y="-1810" width="120" height="80" as="geometry" />
        </mxCell>
        <mxCell id="T2tRfhaVKCpMN6s5OHe6-75" style="edgeStyle=orthogonalEdgeStyle;rounded=0;orthogonalLoop=1;jettySize=auto;html=1;" edge="1" parent="1" source="T2tRfhaVKCpMN6s5OHe6-62" target="T2tRfhaVKCpMN6s5OHe6-73">
          <mxGeometry relative="1" as="geometry" />
        </mxCell>
        <mxCell id="T2tRfhaVKCpMN6s5OHe6-62" value="Simple" style="ellipse;whiteSpace=wrap;html=1;fontStyle=1" vertex="1" parent="1">
          <mxGeometry x="4480" y="-1610" width="120" height="80" as="geometry" />
        </mxCell>
        <mxCell id="T2tRfhaVKCpMN6s5OHe6-76" style="edgeStyle=orthogonalEdgeStyle;rounded=0;orthogonalLoop=1;jettySize=auto;html=1;" edge="1" parent="1" source="T2tRfhaVKCpMN6s5OHe6-63" target="T2tRfhaVKCpMN6s5OHe6-73">
          <mxGeometry relative="1" as="geometry" />
        </mxCell>
        <mxCell id="T2tRfhaVKCpMN6s5OHe6-63" value="MultiStage" style="ellipse;whiteSpace=wrap;html=1;fontStyle=1" vertex="1" parent="1">
          <mxGeometry x="4480" y="-1500" width="120" height="80" as="geometry" />
        </mxCell>
        <mxCell id="T2tRfhaVKCpMN6s5OHe6-64" style="edgeStyle=orthogonalEdgeStyle;rounded=0;orthogonalLoop=1;jettySize=auto;html=1;entryX=0;entryY=0.5;entryDx=0;entryDy=0;" edge="1" parent="1" source="T2tRfhaVKCpMN6s5OHe6-22" target="T2tRfhaVKCpMN6s5OHe6-62">
          <mxGeometry relative="1" as="geometry" />
        </mxCell>
        <mxCell id="T2tRfhaVKCpMN6s5OHe6-71" style="edgeStyle=orthogonalEdgeStyle;rounded=0;orthogonalLoop=1;jettySize=auto;html=1;" edge="1" parent="1" source="T2tRfhaVKCpMN6s5OHe6-66" target="T2tRfhaVKCpMN6s5OHe6-67">
          <mxGeometry relative="1" as="geometry" />
        </mxCell>
        <mxCell id="T2tRfhaVKCpMN6s5OHe6-66" value="Docker Image" style="ellipse;whiteSpace=wrap;html=1;fontStyle=1" vertex="1" parent="1">
          <mxGeometry x="4660" y="-1870" width="120" height="80" as="geometry" />
        </mxCell>
        <mxCell id="T2tRfhaVKCpMN6s5OHe6-67" value="Contenedor" style="ellipse;whiteSpace=wrap;html=1;fontStyle=1" vertex="1" parent="1">
          <mxGeometry x="4850" y="-1810" width="120" height="80" as="geometry" />
        </mxCell>
        <mxCell id="T2tRfhaVKCpMN6s5OHe6-72" style="edgeStyle=orthogonalEdgeStyle;rounded=0;orthogonalLoop=1;jettySize=auto;html=1;" edge="1" parent="1" source="T2tRfhaVKCpMN6s5OHe6-73" target="T2tRfhaVKCpMN6s5OHe6-74">
          <mxGeometry relative="1" as="geometry" />
        </mxCell>
        <mxCell id="T2tRfhaVKCpMN6s5OHe6-73" value="Docker Image" style="ellipse;whiteSpace=wrap;html=1;fontStyle=1" vertex="1" parent="1">
          <mxGeometry x="4680" y="-1565" width="120" height="80" as="geometry" />
        </mxCell>
        <mxCell id="T2tRfhaVKCpMN6s5OHe6-74" value="Contenedor" style="ellipse;whiteSpace=wrap;html=1;fontStyle=1" vertex="1" parent="1">
          <mxGeometry x="4870" y="-1505" width="120" height="80" as="geometry" />
        </mxCell>
        <mxCell id="T2tRfhaVKCpMN6s5OHe6-84" value="" style="edgeStyle=orthogonalEdgeStyle;rounded=0;orthogonalLoop=1;jettySize=auto;html=1;entryX=0;entryY=0.5;entryDx=0;entryDy=0;" edge="1" parent="1" source="T2tRfhaVKCpMN6s5OHe6-78" target="T2tRfhaVKCpMN6s5OHe6-82">
          <mxGeometry relative="1" as="geometry" />
        </mxCell>
        <mxCell id="T2tRfhaVKCpMN6s5OHe6-78" value="Servicio" style="ellipse;whiteSpace=wrap;html=1;fontStyle=1" vertex="1" parent="1">
          <mxGeometry x="4520" y="-1270" width="120" height="80" as="geometry" />
        </mxCell>
        <mxCell id="T2tRfhaVKCpMN6s5OHe6-80" value="Contenedor" style="ellipse;whiteSpace=wrap;html=1;fontStyle=1" vertex="1" parent="1">
          <mxGeometry x="4750" y="-1288.98" width="120" height="80" as="geometry" />
        </mxCell>
        <mxCell id="T2tRfhaVKCpMN6s5OHe6-81" value="Contenedor" style="ellipse;whiteSpace=wrap;html=1;fontStyle=1" vertex="1" parent="1">
          <mxGeometry x="4760" y="-1278.98" width="120" height="80" as="geometry" />
        </mxCell>
        <mxCell id="T2tRfhaVKCpMN6s5OHe6-82" value="" style="ellipse;whiteSpace=wrap;html=1;fontStyle=1" vertex="1" parent="1">
          <mxGeometry x="4770" y="-1269.98" width="120" height="80" as="geometry" />
        </mxCell>
        <mxCell id="T2tRfhaVKCpMN6s5OHe6-83" value="Contenedores" style="ellipse;whiteSpace=wrap;html=1;fontStyle=1" vertex="1" parent="1">
          <mxGeometry x="4780" y="-1258.98" width="120" height="80" as="geometry" />
        </mxCell>
        <mxCell id="T2tRfhaVKCpMN6s5OHe6-85" value="" style="shape=image;verticalLabelPosition=bottom;labelBackgroundColor=default;verticalAlign=top;aspect=fixed;imageAspect=0;image=https://docker-docs.uclv.cu/engine/swarm/images/services-diagram.png;" vertex="1" parent="1">
          <mxGeometry x="4610" y="-3010" width="800" height="552" as="geometry" />
        </mxCell>
        <mxCell id="T2tRfhaVKCpMN6s5OHe6-86" value="" style="rounded=0;whiteSpace=wrap;html=1;dashed=1;dashPattern=8 8;" vertex="1" parent="1">
          <mxGeometry x="5740" y="-2890" width="280" height="160" as="geometry" />
        </mxCell>
        <mxCell id="T2tRfhaVKCpMN6s5OHe6-87" value="3 nginx&lt;div&gt;replicas&lt;/div&gt;" style="rounded=0;whiteSpace=wrap;html=1;fillColor=#dae8fc;strokeColor=#6c8ebf;" vertex="1" parent="1">
          <mxGeometry x="5790" y="-2855" width="180" height="70" as="geometry" />
        </mxCell>
        <mxCell id="T2tRfhaVKCpMN6s5OHe6-88" value="Servicio" style="text;html=1;align=center;verticalAlign=middle;whiteSpace=wrap;rounded=0;" vertex="1" parent="1">
          <mxGeometry x="5850" y="-2960" width="60" height="30" as="geometry" />
        </mxCell>
        <mxCell id="T2tRfhaVKCpMN6s5OHe6-89" value="Puerto 8090" style="text;html=1;align=center;verticalAlign=middle;whiteSpace=wrap;rounded=0;" vertex="1" parent="1">
          <mxGeometry x="5850" y="-2770" width="60" height="30" as="geometry" />
        </mxCell>
        <mxCell id="T2tRfhaVKCpMN6s5OHe6-90" value="" style="endArrow=classic;html=1;rounded=0;" edge="1" parent="1">
          <mxGeometry width="50" height="50" relative="1" as="geometry">
            <mxPoint x="5530" y="-2820" as="sourcePoint" />
            <mxPoint x="5740" y="-2820.5" as="targetPoint" />
          </mxGeometry>
        </mxCell>
        <mxCell id="T2tRfhaVKCpMN6s5OHe6-91" value="Puerto 8090" style="edgeLabel;html=1;align=center;verticalAlign=middle;resizable=0;points=[];" vertex="1" connectable="0" parent="T2tRfhaVKCpMN6s5OHe6-90">
          <mxGeometry x="0.4941" y="1" relative="1" as="geometry">
            <mxPoint x="-37" y="1" as="offset" />
          </mxGeometry>
        </mxCell>
        <mxCell id="T2tRfhaVKCpMN6s5OHe6-93" value="" style="rounded=0;whiteSpace=wrap;html=1;dashed=1;dashPattern=8 8;" vertex="1" parent="1">
          <mxGeometry x="6130" y="-2930" width="280" height="100" as="geometry" />
        </mxCell>
        <mxCell id="T2tRfhaVKCpMN6s5OHe6-94" value="Nginx:latest" style="rounded=0;whiteSpace=wrap;html=1;fillColor=#dae8fc;strokeColor=#6c8ebf;" vertex="1" parent="1">
          <mxGeometry x="6220" y="-2915" width="155" height="55" as="geometry" />
        </mxCell>
        <mxCell id="T2tRfhaVKCpMN6s5OHe6-95" value="Puerto 80" style="text;html=1;align=center;verticalAlign=middle;whiteSpace=wrap;rounded=0;" vertex="1" parent="1">
          <mxGeometry x="6270" y="-2860" width="60" height="30" as="geometry" />
        </mxCell>
        <mxCell id="T2tRfhaVKCpMN6s5OHe6-96" value="nginx.1" style="text;html=1;align=center;verticalAlign=middle;whiteSpace=wrap;rounded=0;" vertex="1" parent="1">
          <mxGeometry x="6140" y="-2895" width="60" height="30" as="geometry" />
        </mxCell>
        <mxCell id="T2tRfhaVKCpMN6s5OHe6-97" value="" style="rounded=0;whiteSpace=wrap;html=1;dashed=1;dashPattern=8 8;" vertex="1" parent="1">
          <mxGeometry x="6130" y="-2800" width="280" height="100" as="geometry" />
        </mxCell>
        <mxCell id="T2tRfhaVKCpMN6s5OHe6-98" value="Nginx:latest" style="rounded=0;whiteSpace=wrap;html=1;fillColor=#dae8fc;strokeColor=#6c8ebf;" vertex="1" parent="1">
          <mxGeometry x="6220" y="-2785" width="155" height="55" as="geometry" />
        </mxCell>
        <mxCell id="T2tRfhaVKCpMN6s5OHe6-99" value="Puerto 80" style="text;html=1;align=center;verticalAlign=middle;whiteSpace=wrap;rounded=0;" vertex="1" parent="1">
          <mxGeometry x="6270" y="-2730" width="60" height="30" as="geometry" />
        </mxCell>
        <mxCell id="T2tRfhaVKCpMN6s5OHe6-100" value="nginx.2" style="text;html=1;align=center;verticalAlign=middle;whiteSpace=wrap;rounded=0;" vertex="1" parent="1">
          <mxGeometry x="6140" y="-2765" width="60" height="30" as="geometry" />
        </mxCell>
        <mxCell id="T2tRfhaVKCpMN6s5OHe6-101" value="Task" style="text;html=1;align=center;verticalAlign=middle;whiteSpace=wrap;rounded=0;" vertex="1" parent="1">
          <mxGeometry x="6130" y="-2990" width="60" height="30" as="geometry" />
        </mxCell>
        <mxCell id="T2tRfhaVKCpMN6s5OHe6-102" value="Container" style="text;html=1;align=center;verticalAlign=middle;whiteSpace=wrap;rounded=0;" vertex="1" parent="1">
          <mxGeometry x="6260" y="-2990" width="60" height="30" as="geometry" />
        </mxCell>
        <mxCell id="T2tRfhaVKCpMN6s5OHe6-103" value="" style="endArrow=classic;html=1;rounded=0;" edge="1" parent="1">
          <mxGeometry width="50" height="50" relative="1" as="geometry">
            <mxPoint x="6050" y="-2830" as="sourcePoint" />
            <mxPoint x="6100" y="-2880" as="targetPoint" />
          </mxGeometry>
        </mxCell>
        <mxCell id="T2tRfhaVKCpMN6s5OHe6-104" value="" style="endArrow=classic;html=1;rounded=0;" edge="1" parent="1">
          <mxGeometry width="50" height="50" relative="1" as="geometry">
            <mxPoint x="6050" y="-2800" as="sourcePoint" />
            <mxPoint x="6090" y="-2760" as="targetPoint" />
          </mxGeometry>
        </mxCell>
      </root>
    </mxGraphModel>
  </diagram>
</mxfile>
